{"glyphs":{"0":{"ha":968,"x_min":86,"x_max":881,"o":"m 483 119 q 584 141 542 119 q 653 201 626 162 q 692 293 680 239 q 705 411 705 347 q 694 514 705 463 q 658 604 684 564 q 590 669 633 644 q 483 693 547 693 q 381 670 422 693 q 313 609 339 648 q 276 518 288 570 q 264 408 264 467 q 275 298 264 351 q 310 207 285 246 q 377 143 335 167 q 483 119 419 119 m 481 831 q 662 797 586 831 q 786 704 737 762 q 858 570 835 646 q 881 409 881 493 q 858 243 881 321 q 785 106 834 165 q 661 14 736 48 q 481 -20 585 -20 q 313 11 386 -20 q 189 98 239 42 q 112 233 138 155 q 86 407 86 311 q 110 574 86 496 q 182 708 134 651 q 306 798 231 765 q 481 831 380 831 z "},"1":{"ha":570,"x_min":56,"x_max":417,"o":"m 232 670 l 107 612 l 56 739 q 132 771 95 755 q 208 803 170 787 l 275 817 l 417 817 l 417 0 l 232 0 l 232 670 z "},"2":{"ha":784,"x_min":100,"x_max":687,"o":"m 516 562 q 479 653 516 622 q 368 684 443 684 q 318 679 345 684 q 263 665 291 673 q 210 646 236 657 q 161 625 183 635 l 111 747 q 151 768 123 755 q 214 793 178 781 q 295 813 251 805 q 384 822 338 822 q 511 805 455 822 q 606 756 567 788 q 666 679 646 724 q 687 578 687 634 q 677 503 687 538 q 645 430 668 467 q 584 353 622 393 q 489 266 546 313 l 345 145 l 676 145 l 676 0 l 100 0 l 100 125 l 387 363 q 444 416 420 391 q 485 465 469 441 q 508 512 500 488 q 516 562 516 536 z "},"3":{"ha":797,"x_min":84,"x_max":692,"o":"m 502 575 q 462 662 502 635 q 346 688 422 688 q 282 681 316 688 q 219 665 248 674 q 169 649 189 656 q 146 640 149 641 l 90 766 q 119 779 96 768 q 176 800 142 789 q 252 820 210 811 q 339 829 294 829 q 420 824 380 829 q 496 807 460 819 q 564 777 532 795 q 617 730 595 758 q 653 665 640 703 q 666 579 666 628 q 650 496 666 532 q 609 435 634 460 q 555 394 585 409 q 498 376 525 380 q 565 350 530 368 q 627 303 599 332 q 673 234 655 275 q 692 140 692 193 q 664 19 692 69 q 589 -65 636 -32 q 481 -113 543 -98 q 352 -129 419 -129 q 251 -121 298 -129 q 168 -102 204 -113 q 110 -83 132 -92 q 84 -73 88 -74 l 132 60 q 153 51 134 59 q 202 33 172 43 q 271 16 233 24 q 350 8 309 8 q 476 41 435 8 q 517 146 517 75 q 502 212 517 183 q 457 261 486 241 q 388 293 428 281 q 300 308 348 304 l 300 442 q 374 449 338 442 q 439 471 410 455 q 485 512 467 486 q 502 575 502 537 z "},"4":{"ha":854,"x_min":56,"x_max":783,"o":"m 499 179 l 499 571 l 235 179 l 499 179 m 657 798 l 657 181 l 783 181 l 783 43 l 657 43 l 657 -164 l 499 -164 l 499 43 l 79 43 l 56 179 l 514 835 l 657 798 z "},"5":{"ha":785,"x_min":92,"x_max":709,"o":"m 123 66 q 173 46 145 56 q 231 28 200 36 q 295 16 262 20 q 360 11 328 11 q 499 52 452 11 q 546 180 546 94 q 504 317 546 271 q 376 363 461 363 q 288 348 333 363 q 197 304 243 332 l 115 374 l 115 804 l 650 804 l 650 668 l 262 668 l 262 455 q 270 461 262 455 q 296 475 279 468 q 337 489 313 483 q 393 495 361 495 q 523 473 465 495 q 623 411 581 452 q 686 312 664 370 q 709 180 709 254 q 684 50 709 108 q 614 -49 659 -8 q 507 -112 570 -90 q 368 -134 444 -134 q 298 -130 334 -134 q 226 -117 262 -125 q 156 -97 191 -109 q 92 -71 122 -85 l 123 66 z "},"6":{"ha":851,"x_min":78,"x_max":786,"o":"m 786 248 q 763 116 786 177 q 696 9 741 54 q 588 -62 652 -37 q 441 -88 524 -88 q 286 -59 354 -88 q 172 22 218 -30 q 102 146 125 74 q 78 303 78 218 q 120 539 78 436 q 232 719 161 643 q 395 846 302 795 q 591 922 488 896 l 633 780 q 529 749 581 769 q 432 699 477 729 q 351 626 387 668 q 295 531 315 585 q 369 562 330 549 q 458 574 409 574 q 594 548 533 574 q 697 479 654 523 q 763 376 740 435 q 786 248 786 316 m 252 296 q 261 205 253 249 q 291 126 270 161 q 348 72 312 92 q 441 51 385 51 q 525 70 491 51 q 578 118 558 88 q 608 187 599 149 q 616 264 616 225 q 605 341 616 309 q 572 396 593 374 q 521 429 551 418 q 455 439 491 439 q 394 432 424 439 q 337 414 363 425 q 289 389 311 403 q 254 361 268 374 q 252 296 252 336 z "},"7":{"ha":777,"x_min":94,"x_max":732,"o":"m 732 721 l 333 -142 l 172 -71 l 521 682 l 94 682 l 94 825 l 684 825 l 732 721 z "},"8":{"ha":884,"x_min":102,"x_max":782,"o":"m 603 649 q 591 710 603 685 q 558 750 579 734 q 507 773 536 766 q 444 780 478 780 q 381 773 411 780 q 329 751 351 766 q 294 711 307 736 q 281 650 281 686 q 293 586 281 614 q 327 538 305 558 q 378 508 349 519 q 444 498 408 498 q 509 508 479 498 q 559 538 538 519 q 591 586 580 557 q 603 649 603 614 m 609 189 q 597 263 609 229 q 564 321 586 297 q 512 359 543 346 q 444 373 481 373 q 374 359 406 373 q 321 322 343 346 q 287 264 299 298 q 275 190 275 231 q 314 80 275 116 q 444 45 353 45 q 523 54 491 45 q 573 81 554 63 q 601 126 593 99 q 609 189 609 153 m 772 654 q 758 571 772 608 q 719 505 743 533 q 661 457 694 476 q 591 429 628 438 q 668 397 633 419 q 728 343 703 376 q 768 268 753 311 q 782 174 782 225 q 755 54 782 105 q 683 -30 728 3 q 575 -79 637 -63 q 444 -95 513 -95 q 314 -79 376 -95 q 205 -31 252 -64 q 130 54 157 3 q 102 176 102 104 q 116 269 102 227 q 156 344 131 312 q 217 398 182 376 q 292 429 252 420 q 223 457 256 438 q 166 505 191 477 q 126 571 141 534 q 111 655 111 609 q 137 766 111 718 q 208 847 163 814 q 313 897 252 880 q 444 914 374 914 q 574 897 514 914 q 678 847 634 880 q 747 766 722 814 q 772 654 772 718 z "},"9":{"ha":867,"x_min":80,"x_max":789,"o":"m 409 209 q 272 231 333 209 q 168 295 211 254 q 103 395 125 336 q 80 526 80 454 q 103 658 80 597 q 171 764 127 720 q 278 835 215 809 q 420 861 341 861 q 577 833 509 861 q 693 756 646 806 q 764 633 740 705 q 789 469 789 560 q 768 303 789 380 q 710 162 747 226 q 624 46 673 98 q 517 -44 574 -5 q 398 -109 460 -83 q 275 -149 336 -136 l 233 -7 q 339 25 286 3 q 437 80 391 47 q 518 156 483 113 q 572 255 553 200 q 501 222 543 235 q 409 209 459 209 m 250 518 q 261 443 250 475 q 295 387 273 410 q 345 353 316 365 q 408 342 374 342 q 467 348 435 342 q 528 361 499 353 q 579 378 557 370 q 609 393 602 387 q 613 434 612 412 q 616 483 615 456 q 607 570 616 528 q 577 647 599 613 q 520 701 556 680 q 428 722 484 722 q 344 706 378 722 q 289 662 310 690 q 259 597 268 634 q 250 518 250 560 z "},"\u0000":{"ha":1389,"x_min":0,"x_max":0,"o":""},"\r":{"ha":467,"x_min":0,"x_max":0,"o":""}," ":{"ha":348,"x_min":0,"x_max":0,"o":""},"!":{"ha":523,"x_min":168,"x_max":376,"o":"m 192 15 q 174 104 174 54 q 186 172 174 140 q 229 192 205 185 q 281 199 253 199 q 353 178 330 199 q 376 104 376 157 q 373 61 376 81 q 358 26 369 41 q 329 4 348 12 q 281 -4 311 -4 q 192 15 231 -4 m 334 307 l 168 307 l 168 1086 l 334 1086 l 334 307 z "},"\"":{"ha":578,"x_min":39,"x_max":562,"o":"m 562 1086 l 553 1008 l 499 640 l 386 640 l 342 1008 l 336 1086 l 562 1086 m 264 1086 l 258 1017 l 202 640 l 89 640 l 44 1017 l 39 1086 l 264 1086 z "},"#":{"ha":861,"x_min":124,"x_max":774,"o":"m 506 435 l 526 596 l 395 596 l 374 435 l 506 435 m 364 340 l 330 100 l 203 100 l 237 340 l 124 340 l 124 435 l 245 435 l 266 596 l 134 596 l 134 692 l 278 692 l 309 937 l 435 937 l 404 692 l 540 692 l 568 936 l 696 936 l 666 692 l 774 692 l 774 596 l 655 596 l 635 435 l 766 435 l 766 340 l 624 340 l 592 100 l 465 100 l 497 340 l 364 340 z "},"$":{"ha":867,"x_min":71,"x_max":785,"o":"m 475 133 q 531 147 506 136 q 573 174 555 157 q 601 214 591 191 q 610 264 610 236 q 604 310 610 290 q 582 345 597 329 q 540 375 566 361 q 475 405 514 389 l 475 133 m 402 833 q 281 806 319 833 q 243 725 243 779 q 249 694 243 708 q 271 666 254 680 q 319 637 288 652 q 402 604 350 622 l 402 833 m 402 1069 l 475 1069 l 475 975 q 563 966 520 973 q 641 949 605 958 q 703 930 676 940 q 742 914 729 921 l 699 782 q 622 807 661 795 q 549 824 588 817 q 475 832 510 832 l 475 579 q 524 561 500 570 q 570 543 547 553 q 730 437 675 500 q 785 285 785 374 q 762 156 785 211 q 699 65 740 102 q 602 7 659 28 q 475 -18 545 -13 l 475 -112 l 402 -112 l 402 -20 q 354 -17 379 -20 q 303 -8 328 -14 q 253 4 277 -3 q 205 18 228 10 q 102 56 153 35 l 141 197 q 233 162 186 177 q 317 138 272 149 q 402 127 363 127 l 402 431 q 256 486 318 458 q 152 546 193 513 q 91 622 111 579 q 71 723 71 664 q 96 846 71 798 q 166 923 121 894 q 272 964 211 951 q 402 979 332 976 l 402 1069 z "},"%":{"ha":1169,"x_min":22,"x_max":1188,"o":"m 941 114 q 996 125 972 114 q 1034 159 1019 136 q 1057 219 1049 182 q 1065 309 1065 256 q 1036 461 1065 411 q 941 511 1006 511 q 847 461 876 511 q 819 309 819 410 q 826 219 819 256 q 849 159 833 182 q 887 125 864 136 q 941 114 910 114 m 943 7 q 860 20 897 7 q 797 56 824 33 q 751 107 770 78 q 721 170 732 137 q 704 238 709 203 q 699 306 699 273 q 762 541 699 463 q 943 620 825 620 q 1126 541 1065 620 q 1188 306 1188 463 q 1176 207 1188 259 q 1136 110 1164 155 q 1061 37 1108 66 q 943 7 1014 7 m 264 528 q 319 538 296 528 q 357 573 342 549 q 380 633 372 596 q 388 723 388 670 q 359 875 388 825 q 264 925 330 925 q 171 874 199 925 q 142 723 142 824 q 149 633 142 670 q 172 573 157 596 q 210 538 187 549 q 264 528 233 528 m 267 421 q 183 434 220 421 q 120 469 147 447 q 74 521 93 492 q 44 584 56 551 q 27 652 32 617 q 22 720 22 687 q 85 955 22 876 q 267 1034 149 1034 q 450 955 388 1034 q 511 720 511 876 q 499 621 511 673 q 459 524 488 568 q 384 450 431 479 q 267 421 337 421 m 770 1032 l 882 974 l 410 -21 l 298 32 l 770 1032 z "},"&":{"ha":1164,"x_min":100,"x_max":1149,"o":"m 271 302 q 330 162 271 211 q 519 113 390 113 q 636 121 587 113 q 719 142 685 130 q 772 171 752 155 q 800 199 791 186 l 445 493 q 373 468 405 484 q 318 429 340 452 q 283 375 295 406 q 271 302 271 343 m 519 -27 q 346 -9 424 -27 q 214 48 269 9 q 129 146 159 87 q 100 286 100 205 q 117 399 100 350 q 167 484 135 448 q 242 547 199 521 q 339 592 286 573 q 319 607 332 597 q 290 633 306 617 q 257 669 274 648 q 227 713 241 689 q 205 764 214 736 q 196 820 196 791 q 218 917 196 873 q 280 990 240 960 q 376 1036 320 1020 q 498 1053 431 1053 q 622 1036 567 1053 q 714 988 676 1019 q 773 915 753 958 q 793 823 793 873 q 738 657 793 723 q 573 553 682 591 l 853 324 q 858 411 857 363 q 859 502 859 458 q 858 552 859 530 q 858 585 858 574 l 1014 585 q 1013 545 1014 570 q 1010 490 1012 520 q 1005 428 1008 460 q 1000 365 1003 395 q 995 308 998 334 q 988 264 991 281 l 979 218 l 1149 77 l 1068 -22 l 913 109 q 771 7 867 41 q 519 -27 675 -27 m 648 810 q 609 899 648 869 q 501 928 570 928 q 357 812 357 928 q 366 767 357 789 q 390 724 374 745 q 426 685 405 703 q 470 653 446 667 q 524 671 493 660 q 582 702 554 683 q 628 747 609 720 q 648 810 648 773 z "},"'":{"ha":425,"x_min":100,"x_max":325,"o":"m 325 1086 l 318 1017 l 263 640 l 149 640 l 104 1017 l 100 1086 l 325 1086 z "},"(":{"ha":583,"x_min":145,"x_max":525,"o":"m 145 473 q 171 700 145 597 q 238 886 197 804 q 330 1029 279 968 q 431 1127 381 1089 l 525 1019 q 452 932 488 985 q 386 810 415 880 q 338 656 356 741 q 319 473 319 571 q 337 291 319 375 q 382 138 354 207 q 447 18 411 70 q 521 -66 484 -33 l 437 -176 q 372 -121 406 -154 q 305 -44 338 -87 q 243 54 273 -1 q 193 172 214 108 q 158 312 171 237 q 145 473 145 387 z "},")":{"ha":582,"x_min":67,"x_max":448,"o":"m 448 483 q 421 250 448 355 q 353 63 395 145 q 259 -79 311 -20 q 157 -176 208 -139 l 67 -66 q 141 20 104 -33 q 207 143 178 73 q 254 297 236 212 q 273 477 273 381 q 255 659 273 574 q 210 811 238 743 q 145 932 181 880 q 72 1018 109 984 l 155 1128 q 215 1077 183 1108 q 280 1003 248 1046 q 343 907 313 961 q 396 789 373 854 q 434 648 420 724 q 448 483 448 571 z "},"*":{"ha":669,"x_min":28,"x_max":607,"o":"m 412 1104 l 515 1044 l 414 869 l 607 869 l 607 770 l 415 770 l 520 597 l 416 536 l 320 707 l 224 537 l 121 597 l 226 770 l 28 770 l 28 869 l 228 869 l 126 1045 l 229 1103 l 319 932 l 412 1104 z "},"+":{"ha":724,"x_min":96,"x_max":652,"o":"m 448 332 l 448 93 l 299 93 l 299 332 l 96 332 l 96 472 l 299 472 l 299 711 l 448 711 l 448 472 l 652 472 l 652 332 l 448 332 z "},",":{"ha":434,"x_min":102,"x_max":336,"o":"m 102 244 l 336 244 l 336 33 q 320 -55 336 -18 q 276 -119 304 -92 q 212 -163 249 -145 q 135 -193 176 -181 l 102 -121 q 152 -100 132 -111 q 185 -75 172 -89 q 203 -42 197 -60 q 208 0 208 -24 l 102 0 l 102 244 z "},"-":{"ha":716,"x_min":104,"x_max":611,"o":"m 104 372 l 104 517 l 611 517 l 611 372 l 104 372 z "},".":{"ha":471,"x_min":121,"x_max":355,"o":"m 121 244 l 355 244 l 355 0 l 121 0 l 121 244 z "},"/":{"ha":673,"x_min":95,"x_max":662,"o":"m 507 1169 l 662 1117 l 249 -112 l 95 -61 l 507 1169 z "},":":{"ha":463,"x_min":127,"x_max":365,"o":"m 127 246 l 365 246 l 365 0 l 127 0 l 127 246 m 127 701 l 365 701 l 365 454 l 127 454 l 127 701 z "},";":{"ha":456,"x_min":124,"x_max":359,"o":"m 124 701 l 359 701 l 359 454 l 124 454 l 124 701 m 125 244 l 359 244 l 359 33 q 343 -55 359 -18 q 299 -119 327 -92 q 235 -163 272 -145 q 158 -193 199 -181 l 126 -121 q 176 -100 155 -111 q 209 -75 196 -89 q 227 -42 221 -60 q 232 0 232 -24 l 125 0 l 125 244 z "},"<":{"ha":841,"x_min":128,"x_max":679,"o":"m 160 503 l 644 857 l 678 704 l 301 432 l 679 160 l 644 7 l 128 391 l 160 503 z "},"=":{"ha":735,"x_min":111,"x_max":624,"o":"m 111 189 l 111 315 l 624 315 l 624 189 l 111 189 m 111 397 l 111 523 l 624 523 l 624 397 l 111 397 z "},">":{"ha":833,"x_min":176,"x_max":726,"o":"m 211 7 l 176 163 l 551 432 l 176 701 l 211 857 l 690 507 l 726 391 l 211 7 z "},"?":{"ha":785,"x_min":52,"x_max":706,"o":"m 177 117 q 230 165 195 146 q 311 185 265 185 q 358 129 340 167 q 377 43 377 90 q 355 17 369 29 q 325 -4 342 5 q 287 -19 307 -14 q 243 -24 266 -24 q 196 33 214 -5 q 177 117 177 71 m 523 800 q 509 863 523 838 q 471 902 496 888 q 413 923 447 917 q 336 928 378 928 q 284 924 311 928 q 231 915 257 920 q 181 902 205 909 q 140 888 158 895 q 118 880 123 882 l 102 874 l 52 1012 q 98 1032 69 1021 q 165 1054 127 1044 q 249 1071 203 1064 q 347 1078 295 1078 q 488 1063 422 1078 q 602 1016 553 1048 q 678 933 650 984 q 706 812 706 883 q 685 707 706 758 q 622 611 665 656 q 513 529 578 566 q 358 464 448 491 l 358 247 l 185 247 l 185 553 q 320 601 258 577 q 427 654 382 625 q 497 718 472 682 q 523 800 523 753 z "},"@":{"ha":1337,"x_min":91,"x_max":1261,"o":"m 669 -99 q 420 -60 528 -99 q 239 49 312 -20 q 128 213 165 118 q 91 420 91 308 q 111 586 91 507 q 169 732 131 665 q 261 855 207 800 q 384 948 315 909 q 533 1008 452 987 q 705 1029 614 1029 q 848 1015 779 1029 q 980 973 918 1001 q 1094 903 1042 945 q 1183 807 1145 862 q 1241 685 1220 753 q 1261 536 1261 616 q 1249 422 1261 475 q 1215 326 1236 369 q 1165 251 1194 283 q 1104 199 1137 219 q 1033 171 1074 179 q 945 162 993 162 q 900 170 918 162 q 871 192 882 178 q 855 227 860 207 q 850 273 850 248 q 851 321 850 297 q 852 370 851 345 q 820 287 840 326 q 769 219 800 248 q 698 174 739 191 q 601 157 656 157 q 527 166 562 157 q 463 194 492 175 q 408 244 433 214 q 367 317 384 274 q 347 430 347 368 q 377 571 347 505 q 458 685 407 636 q 577 762 509 734 q 720 789 645 789 q 752 788 734 789 q 789 785 770 787 q 828 780 808 783 q 863 773 847 777 q 938 735 913 762 q 970 669 962 708 q 970 635 970 652 q 969 603 970 619 l 941 270 q 1071 338 1028 277 q 1114 522 1114 398 q 1081 695 1114 624 q 992 812 1048 767 q 860 878 935 857 q 698 898 784 898 q 514 864 597 898 q 370 768 430 830 q 276 617 310 705 q 243 420 243 529 q 272 252 243 325 q 358 129 302 179 q 497 54 415 79 q 686 28 580 28 q 766 35 731 28 q 827 50 801 41 q 869 68 852 59 q 895 81 886 77 q 920 89 907 85 q 943 98 932 92 l 994 -6 q 858 -74 943 -50 q 669 -99 772 -99 m 728 686 q 632 668 676 686 q 555 616 588 650 q 504 531 523 581 q 486 416 486 481 q 517 310 486 350 q 609 270 549 270 q 709 299 666 270 q 781 380 751 328 q 826 507 810 433 q 848 673 843 581 q 829 676 842 673 q 799 681 816 678 q 764 685 783 683 q 728 686 745 686 z "},"A":{"ha":1019,"x_min":31,"x_max":988,"o":"m 629 1086 l 988 0 l 791 0 l 711 252 l 308 252 l 228 0 l 31 0 l 388 1086 l 629 1086 m 334 346 l 686 346 l 512 890 l 334 346 z "},"B":{"ha":968,"x_min":105,"x_max":911,"o":"m 374 1086 q 586 1071 500 1086 q 730 1028 672 1056 q 785 994 760 1014 q 827 948 810 974 q 854 890 845 922 q 864 819 864 859 q 847 718 864 760 q 800 648 830 676 q 727 605 769 621 q 634 583 685 589 q 743 558 692 575 q 831 510 793 542 q 890 429 868 479 q 911 304 911 378 q 895 188 911 237 q 845 106 878 140 q 766 51 813 72 q 660 19 720 31 q 528 4 600 7 q 373 0 456 0 l 105 0 l 105 1086 l 374 1086 m 418 130 q 558 138 500 130 q 653 167 616 146 q 706 224 689 188 q 722 317 722 260 q 706 411 722 374 q 654 471 689 449 q 565 503 619 494 q 437 512 511 512 l 300 512 l 300 130 l 418 130 m 300 634 l 436 634 q 556 644 507 634 q 636 675 606 654 q 680 729 667 696 q 694 807 694 762 q 679 874 694 846 q 630 921 664 903 q 541 948 596 939 q 407 956 486 956 l 300 956 l 300 634 z "},"C":{"ha":889,"x_min":71,"x_max":854,"o":"m 267 533 q 284 356 267 433 q 337 227 302 279 q 425 147 372 174 q 552 120 479 120 q 634 128 595 120 q 705 148 673 136 q 763 173 738 159 q 801 195 787 186 l 854 58 q 817 36 845 50 q 747 8 789 22 q 652 -14 705 -5 q 540 -24 599 -24 q 337 14 425 -24 q 190 124 250 52 q 101 300 131 196 q 71 536 71 404 q 82 685 71 613 q 119 820 94 757 q 183 936 144 884 q 273 1026 221 989 q 393 1085 326 1064 q 543 1106 460 1106 q 640 1100 593 1106 q 728 1083 688 1093 q 798 1062 768 1074 q 845 1038 829 1050 l 795 898 q 754 920 779 909 q 700 940 730 931 q 632 956 669 949 q 554 962 595 962 q 425 933 479 962 q 336 849 371 904 q 284 714 300 794 q 267 533 267 635 z "},"D":{"ha":1048,"x_min":106,"x_max":977,"o":"m 779 542 q 764 718 779 640 q 712 848 749 795 q 615 928 676 901 q 463 956 554 956 l 300 956 l 300 130 l 455 130 q 604 158 543 130 q 705 239 666 186 q 761 368 743 292 q 779 542 779 445 m 977 543 q 950 322 977 422 q 863 151 923 222 q 705 40 802 79 q 467 0 608 0 l 106 0 l 106 1086 l 460 1086 q 847 954 718 1086 q 977 543 977 821 z "},"E":{"ha":859,"x_min":105,"x_max":816,"o":"m 105 0 l 105 1086 l 808 1086 l 808 956 l 300 956 l 300 627 l 743 627 l 743 509 l 300 509 l 300 128 l 816 128 l 816 0 l 105 0 z "},"F":{"ha":816,"x_min":105,"x_max":795,"o":"m 300 0 l 105 0 l 105 1086 l 795 1086 l 795 956 l 300 956 l 300 622 l 744 622 l 744 504 l 300 504 l 300 0 z "},"G":{"ha":1048,"x_min":71,"x_max":954,"o":"m 781 460 l 517 460 l 517 582 l 954 582 l 954 0 l 842 0 l 806 116 q 772 60 795 85 q 712 15 748 34 q 629 -14 676 -3 q 523 -24 581 -24 q 330 15 414 -24 q 189 126 246 54 q 101 302 131 198 q 71 535 71 406 q 104 781 71 674 q 201 959 138 887 q 358 1069 265 1031 q 568 1106 450 1106 q 670 1099 623 1106 q 757 1080 717 1092 q 830 1051 798 1067 q 888 1017 863 1035 l 829 885 q 775 914 804 900 q 712 938 745 928 q 642 955 678 949 q 567 962 606 962 q 345 856 422 962 q 268 536 268 751 q 283 366 268 442 q 330 234 298 289 q 415 150 363 180 q 541 121 467 121 q 625 127 585 121 q 695 149 664 134 q 749 186 727 163 q 781 241 771 209 l 781 460 z "},"H":{"ha":1077,"x_min":105,"x_max":971,"o":"m 777 505 l 300 505 l 300 0 l 105 0 l 105 1086 l 300 1086 l 300 623 l 777 623 l 777 1086 l 971 1086 l 971 0 l 777 0 l 777 505 z "},"I":{"ha":566,"x_min":60,"x_max":509,"o":"m 189 97 l 189 987 l 60 987 l 60 1086 l 509 1086 l 509 987 l 379 987 l 379 97 l 509 97 l 509 0 l 60 0 l 60 97 l 189 97 z "},"J":{"ha":548,"x_min":27,"x_max":443,"o":"m 27 66 q 140 95 96 77 q 207 145 183 114 q 240 224 231 177 q 248 339 248 271 l 248 1086 l 443 1086 l 443 351 q 426 182 443 256 q 366 56 408 108 q 254 -25 324 4 q 77 -61 183 -55 l 27 66 z "},"K":{"ha":987,"x_min":105,"x_max":970,"o":"m 300 0 l 105 0 l 105 1086 l 300 1086 l 300 602 l 404 602 l 723 1086 l 928 1086 l 558 547 l 970 0 l 751 0 l 399 488 l 300 488 l 300 0 z "},"L":{"ha":821,"x_min":105,"x_max":791,"o":"m 105 0 l 105 1086 l 300 1086 l 300 130 l 791 130 l 791 0 l 105 0 z "},"M":{"ha":1339,"x_min":105,"x_max":1234,"o":"m 278 873 l 278 0 l 105 0 l 105 1086 l 369 1086 l 667 213 l 970 1086 l 1234 1086 l 1234 0 l 1061 0 l 1061 873 l 764 0 l 577 0 l 278 873 z "},"N":{"ha":1114,"x_min":105,"x_max":1008,"o":"m 790 0 l 286 851 l 286 0 l 105 0 l 105 1086 l 332 1086 l 828 244 l 828 1086 l 1008 1086 l 1008 0 l 790 0 z "},"O":{"ha":1082,"x_min":71,"x_max":1012,"o":"m 1012 549 q 987 322 1012 427 q 908 141 963 218 q 762 20 852 64 q 541 -24 672 -24 q 384 -4 453 -24 q 262 54 315 16 q 174 144 210 91 q 114 261 137 197 q 81 400 92 326 q 71 557 71 475 q 100 787 71 685 q 189 960 130 889 q 336 1068 248 1030 q 541 1105 424 1105 q 746 1068 658 1105 q 894 958 835 1030 q 982 783 953 886 q 1012 549 1012 680 m 267 538 q 282 364 267 441 q 331 233 298 287 q 415 150 363 178 q 541 121 467 121 q 664 148 612 121 q 749 229 715 176 q 799 360 783 282 q 814 538 814 437 q 799 719 814 640 q 750 852 783 798 q 666 934 717 906 q 543 962 614 962 q 418 935 470 962 q 332 853 366 907 q 283 720 298 799 q 267 538 267 641 z "},"P":{"ha":937,"x_min":105,"x_max":897,"o":"m 897 745 q 864 588 897 652 q 767 485 831 524 q 605 427 703 445 q 379 410 508 410 l 300 410 l 300 0 l 105 0 l 105 1086 l 400 1086 q 530 1081 467 1086 q 648 1060 593 1075 q 748 1020 703 1045 q 826 958 793 996 q 878 867 859 920 q 897 745 896 814 m 372 535 q 515 546 454 535 q 618 579 577 556 q 680 641 659 603 q 701 734 701 679 q 679 849 701 806 q 617 917 657 892 q 522 948 578 941 q 398 956 466 956 l 300 956 l 300 535 l 372 535 z "},"Q":{"ha":1088,"x_min":71,"x_max":1017,"o":"m 1017 537 q 995 332 1017 425 q 929 167 974 238 q 817 50 885 96 q 655 -14 749 3 l 884 -181 l 783 -291 l 457 -18 q 328 18 385 -8 q 228 84 271 45 q 155 175 185 123 q 106 286 125 227 q 79 410 87 345 q 71 545 71 476 q 82 697 71 625 q 119 832 94 770 q 181 945 144 895 q 271 1031 219 996 q 390 1087 323 1067 q 538 1106 456 1106 q 746 1069 656 1106 q 896 960 836 1032 q 986 782 956 888 q 1017 537 1017 675 m 544 962 q 412 930 465 962 q 327 842 359 898 q 281 709 295 786 q 268 541 268 631 q 281 375 268 452 q 326 241 294 298 q 411 153 358 185 q 544 121 464 121 q 644 138 601 121 q 717 185 686 155 q 768 256 748 215 q 799 343 787 296 q 815 440 811 390 q 820 541 820 491 q 815 646 820 594 q 798 745 810 698 q 766 831 786 791 q 715 900 745 871 q 642 945 684 929 q 544 962 600 962 z "},"R":{"ha":982,"x_min":105,"x_max":903,"o":"m 416 606 q 547 618 492 606 q 635 653 601 629 q 686 711 670 676 q 703 793 703 746 q 679 882 703 850 q 615 931 656 915 q 519 952 574 948 q 401 956 464 956 l 300 956 l 300 606 l 416 606 m 596 545 q 727 517 670 536 q 824 465 785 498 q 883 383 863 432 q 903 268 903 334 l 903 0 l 709 0 l 709 281 q 687 390 709 350 q 625 451 665 431 q 528 478 585 472 q 402 484 471 484 l 300 484 l 300 0 l 105 0 l 105 1086 l 410 1086 q 634 1070 541 1086 q 786 1020 727 1054 q 872 935 845 987 q 899 813 899 884 q 877 693 899 743 q 813 611 854 643 q 718 563 773 578 q 596 545 662 547 z "},"S":{"ha":891,"x_min":56,"x_max":837,"o":"m 837 298 q 814 171 837 229 q 744 68 792 112 q 621 1 696 25 q 440 -24 545 -24 q 305 -10 368 -24 q 193 21 241 4 q 88 66 136 41 l 121 208 q 136 199 121 206 q 175 183 150 193 q 232 163 199 174 q 301 144 264 153 q 377 129 338 135 q 453 123 416 123 q 534 131 498 123 q 596 157 570 139 q 635 203 621 175 q 649 273 649 232 q 616 374 649 334 q 515 440 583 414 l 282 531 q 193 576 234 550 q 121 636 151 602 q 74 713 91 670 q 56 811 56 757 q 87 945 56 889 q 170 1036 118 1000 q 291 1089 222 1072 q 435 1106 359 1106 q 558 1095 500 1106 q 661 1070 615 1084 q 739 1040 707 1055 q 785 1017 770 1025 l 745 883 q 704 904 733 890 q 636 930 675 917 q 551 952 597 943 q 458 962 505 962 q 370 955 410 962 q 302 933 330 949 q 257 891 273 918 q 241 825 241 865 q 247 790 241 807 q 264 758 252 773 q 297 729 276 743 q 349 703 317 715 l 580 616 q 683 566 635 595 q 764 498 730 537 q 818 409 798 459 q 837 298 837 359 z "},"T":{"ha":827,"x_min":18,"x_max":806,"o":"m 511 956 l 511 0 l 316 0 l 316 956 l 18 956 l 18 1086 l 806 1086 l 806 956 l 511 956 z "},"U":{"ha":1072,"x_min":94,"x_max":974,"o":"m 534 121 q 662 144 614 121 q 736 214 710 168 q 771 331 762 261 q 779 492 779 400 l 779 1086 l 974 1086 l 974 495 q 950 272 974 369 q 873 110 926 176 q 738 10 821 44 q 537 -24 654 -24 q 332 10 416 -24 q 195 110 248 44 q 118 272 142 176 q 94 495 94 369 l 94 1086 l 289 1086 l 289 492 q 299 331 289 400 q 336 214 309 261 q 411 144 363 168 q 534 121 459 121 z "},"V":{"ha":952,"x_min":31,"x_max":920,"o":"m 477 237 l 737 1086 l 920 1086 l 581 0 l 371 0 l 31 1086 l 214 1086 l 477 237 z "},"W":{"ha":1368,"x_min":29,"x_max":1337,"o":"m 798 1086 l 970 202 l 1149 1086 l 1337 1086 l 1101 -2 l 852 -2 l 684 921 l 502 0 l 264 0 l 29 1086 l 217 1086 l 395 202 l 568 1086 l 798 1086 z "},"X":{"ha":926,"x_min":17,"x_max":909,"o":"m 708 1086 l 908 1086 l 572 543 l 909 0 l 699 0 l 463 385 l 227 0 l 17 0 l 354 543 l 18 1086 l 218 1086 l 463 686 l 708 1086 z "},"Y":{"ha":878,"x_min":-5,"x_max":883,"o":"m 688 1086 l 883 1086 l 531 345 l 531 0 l 345 0 l 345 345 l -5 1086 l 190 1086 l 439 545 l 688 1086 z "},"Z":{"ha":847,"x_min":56,"x_max":794,"o":"m 793 954 l 267 130 l 794 130 l 794 0 l 56 0 l 56 141 l 583 956 l 56 956 l 56 1086 l 793 1086 l 793 954 z "},"[":{"ha":762,"x_min":171,"x_max":658,"o":"m 658 1086 l 658 956 l 353 956 l 353 130 l 658 130 l 658 0 l 171 0 l 171 1086 l 658 1086 z "},"\\":{"ha":762,"x_min":98,"x_max":674,"o":"m 674 -52 l 508 -110 l 98 1120 l 263 1175 l 674 -52 z "},"]":{"ha":782,"x_min":134,"x_max":621,"o":"m 621 1086 l 621 0 l 134 0 l 134 130 l 439 130 l 439 956 l 134 956 l 134 1086 l 621 1086 z "},"^":{"ha":913,"x_min":207,"x_max":706,"o":"m 517 755 l 706 370 l 567 343 l 456 605 l 345 343 l 207 370 l 396 755 l 517 755 z "},"_":{"ha":823,"x_min":66,"x_max":733,"o":"m 66 -72 l 66 68 l 733 68 l 733 -72 l 66 -72 z "},"`":{"ha":565,"x_min":44,"x_max":358,"o":"m 44 450 l 235 530 l 358 107 l 280 72 l 44 450 z "},"a":{"ha":838,"x_min":60,"x_max":747,"o":"m 417 693 q 284 674 350 693 q 162 621 218 655 l 110 739 q 180 774 145 759 q 253 800 215 790 q 332 816 290 810 q 421 821 373 821 q 582 799 519 821 q 682 729 645 776 q 733 612 719 683 q 747 447 747 542 l 747 0 l 606 0 l 579 113 q 475 15 534 45 q 334 -16 415 -16 q 220 1 271 -16 q 133 50 169 17 q 79 130 98 82 q 60 242 60 178 q 84 354 60 307 q 152 434 109 402 q 255 481 195 465 q 387 496 315 496 q 451 494 422 496 q 502 487 479 491 q 539 480 524 484 q 562 476 555 477 q 559 567 562 526 q 543 635 556 607 q 500 678 529 663 q 417 693 471 693 m 382 113 q 476 135 433 113 q 562 200 520 157 l 562 381 q 543 383 556 381 q 514 386 530 385 q 480 389 497 388 q 450 391 463 391 q 363 385 401 391 q 299 363 326 378 q 260 322 273 348 q 247 256 247 296 q 283 146 247 179 q 382 113 319 113 z "},"b":{"ha":890,"x_min":103,"x_max":829,"o":"m 481 113 q 606 186 563 113 q 649 412 649 258 q 639 543 649 490 q 609 630 629 597 q 559 678 589 663 q 492 693 530 693 q 391 672 441 693 q 290 605 341 650 l 290 196 q 381 133 334 152 q 481 113 428 113 m 505 -16 q 368 19 427 -16 q 272 118 308 54 l 236 0 l 103 0 l 103 1121 l 290 1149 l 290 720 q 341 764 313 745 q 397 796 368 783 q 455 815 426 808 q 512 821 484 821 q 650 794 591 821 q 749 714 709 767 q 809 585 789 662 q 829 409 829 508 q 806 217 829 297 q 740 85 783 136 q 637 9 697 33 q 505 -16 578 -16 z "},"c":{"ha":745,"x_min":60,"x_max":701,"o":"m 438 -16 q 266 18 338 -16 q 148 109 194 52 q 81 240 102 166 q 60 396 60 315 q 85 562 60 484 q 159 697 111 640 q 278 788 208 755 q 440 821 349 821 q 523 815 485 821 q 594 799 562 809 q 653 774 627 788 q 701 745 680 760 l 659 621 q 622 648 644 635 q 574 671 600 661 q 519 687 548 681 q 460 693 490 693 q 359 669 399 690 q 293 611 318 648 q 257 520 268 574 q 247 399 247 467 q 302 184 247 256 q 459 113 357 113 q 572 134 526 113 q 659 188 619 155 l 701 64 q 655 35 681 50 q 597 10 629 21 q 525 -8 564 -1 q 438 -16 486 -16 z "},"d":{"ha":890,"x_min":60,"x_max":791,"o":"m 243 403 q 255 270 243 325 q 290 180 267 215 q 344 129 312 145 q 415 113 376 113 q 519 134 469 113 q 604 197 568 154 l 604 605 q 505 669 554 645 q 402 693 456 693 q 326 672 356 693 q 277 614 295 652 q 251 522 258 576 q 243 403 243 469 m 368 821 q 500 795 441 821 q 604 713 559 768 l 604 1121 l 791 1150 l 791 0 l 657 0 l 621 119 q 579 65 605 90 q 523 22 554 40 q 456 -5 492 5 q 385 -16 421 -16 q 234 19 296 -16 q 134 114 172 54 q 77 254 95 174 q 60 424 60 334 q 81 577 60 505 q 142 703 102 649 q 239 789 182 758 q 368 821 296 821 z "},"e":{"ha":809,"x_min":60,"x_max":753,"o":"m 714 58 q 650 26 684 40 q 582 3 616 13 q 513 -11 547 -6 q 449 -16 479 -16 q 284 13 356 -16 q 162 93 212 41 q 86 220 112 146 q 60 387 60 294 q 83 561 60 481 q 154 698 107 640 q 269 789 200 756 q 427 821 338 821 q 567 796 507 821 q 669 724 628 770 q 732 611 711 677 q 753 465 753 545 q 752 415 753 439 q 750 368 751 391 l 250 368 q 265 254 250 302 q 308 174 280 205 q 375 128 335 143 q 464 113 414 113 q 575 131 527 113 q 670 185 623 149 l 714 58 m 596 479 q 553 638 596 585 q 435 693 511 692 q 355 674 389 692 q 299 625 321 656 q 264 554 276 595 q 250 467 252 513 l 596 467 l 596 479 z "},"f":{"ha":577,"x_min":18,"x_max":570,"o":"m 435 1015 q 384 1002 404 1015 q 354 962 365 989 q 340 896 344 936 q 337 802 337 855 l 553 802 l 553 715 l 337 715 l 337 0 l 150 0 l 150 715 l 18 715 l 18 802 l 150 802 q 165 959 150 892 q 210 1069 180 1025 q 288 1133 241 1112 q 399 1154 335 1154 q 494 1143 452 1154 q 570 1117 536 1133 l 548 985 q 493 1005 522 996 q 435 1015 464 1015 z "},"g":{"ha":865,"x_min":71,"x_max":849,"o":"m 393 -200 q 519 -194 468 -200 q 601 -174 570 -189 q 647 -134 633 -159 q 661 -70 661 -109 q 640 -3 661 -26 q 577 31 619 20 q 470 45 535 42 q 317 53 405 49 q 282 28 299 43 q 252 -7 265 12 q 230 -49 239 -26 q 222 -96 222 -72 q 235 -149 222 -129 q 271 -181 248 -170 q 326 -196 294 -192 q 393 -200 357 -200 m 446 414 q 496 430 473 419 q 537 459 519 441 q 565 506 555 478 q 575 572 575 534 q 538 667 575 639 q 425 694 501 694 q 362 688 391 694 q 313 668 333 682 q 281 628 292 653 q 270 564 270 602 q 277 513 270 537 q 297 468 284 488 q 327 431 310 447 q 364 405 345 415 l 446 414 m 682 686 q 720 630 707 655 q 732 577 732 604 q 719 484 732 528 q 675 404 706 439 q 594 342 645 368 q 469 307 544 317 l 244 275 l 256 183 l 448 176 q 615 157 545 172 q 731 112 685 142 q 800 36 777 82 q 822 -75 822 -9 q 793 -198 822 -148 q 709 -280 764 -249 q 574 -326 654 -312 q 393 -340 494 -340 q 152 -285 233 -340 q 71 -104 71 -229 q 81 -44 71 -72 q 111 6 92 -17 q 155 46 130 28 q 208 76 180 64 q 159 92 180 80 q 124 124 138 103 q 103 176 110 145 q 96 252 96 208 q 109 304 96 283 q 144 338 122 325 q 194 360 165 352 q 254 376 223 368 q 197 395 224 380 q 150 435 170 410 q 118 492 130 459 q 106 566 106 526 q 128 672 106 625 q 189 753 149 720 q 286 804 229 786 q 415 821 343 821 q 530 810 480 821 q 614 774 579 799 q 662 794 640 787 q 707 807 684 802 q 758 813 730 811 q 821 814 785 814 l 849 814 l 849 686 l 682 686 z "},"h":{"ha":907,"x_min":103,"x_max":814,"o":"m 290 705 q 345 759 317 736 q 402 795 373 781 q 464 815 432 809 q 532 821 496 821 q 668 795 614 821 q 755 721 722 768 q 801 608 787 673 q 814 464 814 542 l 814 0 l 627 0 l 627 472 q 596 638 627 583 q 492 693 564 693 q 421 685 452 693 q 365 665 389 677 q 321 637 340 652 q 290 610 302 623 l 290 0 l 103 0 l 103 1118 l 290 1152 l 290 705 z "},"i":{"ha":409,"x_min":101,"x_max":311,"o":"m 113 0 l 113 802 l 297 802 l 297 0 l 113 0 m 101 1057 q 109 1099 101 1079 q 132 1133 117 1118 q 165 1155 146 1147 q 205 1164 184 1164 q 247 1155 228 1164 q 281 1132 267 1147 q 303 1098 295 1118 q 311 1057 311 1078 q 303 1015 311 1034 q 280 981 294 995 q 246 958 265 966 q 205 950 227 950 q 163 959 182 950 q 131 982 144 967 q 109 1016 117 996 q 101 1057 101 1035 z "},"j":{"ha":433,"x_min":3,"x_max":336,"o":"m 130 1056 q 138 1098 130 1079 q 160 1132 146 1118 q 192 1154 174 1146 q 233 1162 211 1162 q 274 1154 255 1162 q 307 1131 293 1145 q 329 1097 321 1116 q 336 1056 336 1078 q 328 1013 336 1033 q 306 979 320 994 q 273 957 292 965 q 233 949 254 949 q 191 958 210 949 q 158 981 172 966 q 137 1015 144 996 q 130 1056 130 1034 m 3 -127 q 73 -71 46 -100 q 114 -2 100 -41 q 134 84 129 36 q 140 193 140 132 l 140 802 l 327 802 l 327 123 q 307 -12 327 50 q 250 -121 286 -73 q 165 -202 214 -170 q 58 -248 116 -235 l 3 -127 z "},"k":{"ha":886,"x_min":103,"x_max":857,"o":"m 290 0 l 103 0 l 103 1121 l 290 1150 l 290 469 l 633 802 l 842 802 l 476 446 l 857 0 l 644 0 l 361 361 l 290 298 l 290 0 z "},"l":{"ha":408,"x_min":110,"x_max":297,"o":"m 297 0 l 110 0 l 110 1121 l 297 1150 l 297 0 z "},"m":{"ha":1341,"x_min":103,"x_max":1249,"o":"m 290 0 l 103 0 l 103 802 l 237 802 l 273 669 q 372 783 311 745 q 517 821 434 821 q 655 786 601 821 q 735 685 709 750 q 847 786 780 750 q 1002 821 913 821 q 1109 800 1063 821 q 1186 740 1156 779 q 1233 646 1217 701 q 1249 524 1249 591 l 1249 0 l 1061 0 l 1061 533 q 1054 609 1061 578 q 1031 658 1046 640 q 997 684 1017 676 q 951 692 977 692 q 859 666 903 692 q 766 592 815 641 l 766 0 l 580 0 l 580 537 q 555 653 580 616 q 470 690 530 690 q 378 660 423 690 q 290 582 332 631 l 290 0 z "},"n":{"ha":896,"x_min":103,"x_max":803,"o":"m 275 686 q 320 739 293 714 q 381 782 348 764 q 453 811 415 800 q 530 821 491 821 q 654 800 603 821 q 739 739 706 779 q 788 637 772 698 q 803 498 803 577 l 803 0 l 616 0 l 616 507 q 586 647 616 602 q 484 693 555 693 q 426 684 456 693 q 370 660 396 674 q 322 629 343 646 q 290 597 301 612 l 290 0 l 103 0 l 103 802 l 243 802 l 275 686 z "},"o":{"ha":877,"x_min":58,"x_max":814,"o":"m 437 106 q 530 129 492 106 q 590 191 568 151 q 623 283 613 231 q 632 396 632 336 q 623 509 632 456 q 590 601 613 562 q 530 664 568 641 q 437 688 492 688 q 344 664 381 688 q 284 601 307 641 q 252 508 261 562 q 242 396 242 455 q 245 331 242 364 q 256 265 248 297 q 277 204 264 233 q 313 153 291 175 q 365 119 334 132 q 437 106 395 106 m 814 396 q 793 234 814 310 q 727 101 772 158 q 610 11 682 44 q 437 -22 538 -22 q 263 11 335 -22 q 145 101 191 44 q 79 234 100 158 q 58 396 58 310 q 79 559 58 483 q 146 693 100 636 q 263 783 192 750 q 436 817 335 817 q 609 783 537 817 q 726 693 680 750 q 793 559 772 636 q 814 396 814 483 z "},"p":{"ha":895,"x_min":103,"x_max":836,"o":"m 494 693 q 385 668 439 693 q 290 601 330 644 l 290 210 q 337 170 312 188 q 388 140 361 153 q 439 120 414 127 q 489 113 465 113 q 569 139 538 113 q 619 204 601 164 q 644 293 637 244 q 651 389 651 342 q 614 615 651 536 q 494 693 576 693 m 505 -16 q 385 15 441 -16 q 290 98 329 46 l 290 -307 l 103 -307 l 103 802 l 244 802 l 278 682 q 318 739 295 713 q 371 783 342 764 q 436 811 401 801 q 511 821 471 821 q 753 715 670 821 q 836 397 836 609 q 814 235 836 311 q 751 104 793 159 q 648 16 709 48 q 505 -16 586 -16 z "},"q":{"ha":890,"x_min":60,"x_max":791,"o":"m 410 113 q 461 121 434 113 q 514 141 488 129 q 563 170 540 154 q 604 204 587 186 l 604 592 q 511 668 563 643 q 410 693 460 693 q 326 669 359 693 q 275 604 294 644 q 250 510 257 563 q 243 398 243 456 q 251 287 243 339 q 277 197 258 235 q 328 136 296 158 q 410 113 360 113 m 387 821 q 514 785 455 821 q 610 680 572 749 l 639 802 l 791 802 l 791 -312 l 604 -312 l 604 98 q 507 16 562 47 q 384 -16 452 -16 q 238 18 299 -16 q 137 109 176 52 q 78 240 97 165 q 60 398 60 315 q 78 571 60 493 q 135 705 96 649 q 237 791 174 760 q 387 821 299 821 z "},"r":{"ha":572,"x_min":103,"x_max":546,"o":"m 281 672 q 324 730 301 705 q 373 772 347 755 q 432 798 400 789 q 503 806 464 806 q 546 804 524 806 l 546 649 q 516 655 536 653 q 472 656 496 656 q 377 632 423 656 q 290 573 330 608 l 290 0 l 103 0 l 103 802 l 256 802 l 281 672 z "},"s":{"ha":712,"x_min":58,"x_max":662,"o":"m 230 382 q 163 413 195 395 q 109 456 132 431 q 72 517 85 481 q 58 600 58 552 q 81 694 58 653 q 142 764 103 736 q 236 807 182 792 q 353 821 290 821 q 451 812 403 821 q 538 790 499 802 q 603 765 577 777 q 636 747 629 753 l 592 627 q 557 646 582 635 q 499 668 532 657 q 431 686 467 678 q 360 693 394 693 q 298 686 324 693 q 255 667 272 679 q 231 638 239 654 q 223 602 223 621 q 229 574 223 586 q 245 552 234 562 q 272 534 256 543 q 310 518 288 526 l 437 471 q 532 429 490 452 q 602 377 573 406 q 647 313 631 349 q 662 231 662 277 q 641 127 662 173 q 579 50 619 81 q 484 1 540 18 q 358 -16 428 -16 q 249 -6 300 -16 q 160 18 199 5 q 95 44 121 31 q 63 62 70 57 l 107 185 q 140 167 115 179 q 201 143 166 155 q 274 122 235 131 q 348 113 313 113 q 401 118 375 113 q 446 136 427 123 q 478 169 466 149 q 490 222 490 190 q 462 281 490 258 q 387 323 434 305 l 230 382 z "},"t":{"ha":608,"x_min":6,"x_max":586,"o":"m 361 -16 q 258 4 300 -16 q 191 63 216 23 q 153 163 165 102 q 142 307 142 224 l 142 715 l 6 715 l 6 802 l 154 802 l 154 1075 l 328 1120 l 328 802 l 555 802 l 555 715 l 328 715 l 328 246 q 345 145 328 178 q 407 113 362 113 q 464 127 433 113 q 534 165 496 142 l 586 50 q 545 27 568 39 q 494 6 522 16 q 432 -9 465 -3 q 361 -16 399 -16 z "},"u":{"ha":881,"x_min":91,"x_max":779,"o":"m 276 298 q 283 221 276 254 q 305 164 290 187 q 346 130 321 142 q 407 118 371 118 q 502 136 458 118 q 592 199 546 155 l 592 802 l 779 802 l 779 0 l 645 0 l 609 121 q 573 68 595 93 q 522 24 551 43 q 458 -5 493 5 q 382 -16 423 -16 q 165 62 239 -16 q 91 307 91 140 l 91 802 l 276 802 l 276 298 z "},"v":{"ha":793,"x_min":16,"x_max":779,"o":"m 291 0 l 16 802 l 209 802 l 398 172 l 584 802 l 779 802 l 503 0 l 291 0 z "},"w":{"ha":1109,"x_min":16,"x_max":1094,"o":"m 554 586 l 414 0 l 229 0 l 16 802 l 193 802 l 325 169 l 467 802 l 643 802 l 783 169 l 920 802 l 1094 802 l 881 0 l 694 0 l 554 586 z "},"x":{"ha":793,"x_min":25,"x_max":768,"o":"m 236 0 l 29 0 l 306 402 l 25 802 l 236 802 l 399 529 l 562 802 l 768 802 l 493 402 l 764 0 l 561 0 l 399 282 l 236 0 z "},"y":{"ha":794,"x_min":16,"x_max":779,"o":"m 16 802 l 203 802 l 420 215 l 589 802 l 779 802 l 492 -24 q 418 -172 460 -115 q 329 -262 375 -230 q 236 -307 282 -295 q 151 -319 190 -319 l 100 -194 q 191 -173 153 -187 q 256 -134 229 -159 q 303 -71 283 -109 q 338 22 322 -33 l 16 802 z "},"z":{"ha":715,"x_min":68,"x_max":646,"o":"m 83 674 l 83 802 l 642 802 l 642 665 l 262 127 l 646 127 l 646 0 l 68 0 l 68 138 l 458 674 l 83 674 z "},"{":{"ha":576,"x_min":83,"x_max":493,"o":"m 374 714 q 363 602 374 648 q 334 526 353 556 q 288 477 315 495 q 229 450 261 460 q 295 417 267 438 q 340 364 322 396 q 366 288 357 332 q 375 186 374 244 q 384 74 376 115 q 407 12 392 33 q 444 -15 422 -9 q 493 -21 465 -21 l 493 -144 q 385 -130 434 -144 q 298 -84 335 -116 q 237 0 260 -52 q 206 127 213 52 q 192 251 200 201 q 170 330 184 300 q 135 373 157 360 q 83 385 114 385 l 83 515 q 137 528 116 515 q 171 571 157 541 q 192 651 184 602 q 206 773 199 700 q 236 900 213 848 q 297 984 260 951 q 384 1030 334 1016 q 493 1045 433 1045 l 493 922 q 444 916 466 922 q 407 890 422 911 q 384 827 392 869 q 374 714 375 786 z "},"|":{"ha":496,"x_min":164,"x_max":332,"o":"m 164 1157 l 332 1157 l 332 -89 l 164 -89 l 164 1157 z "},"}":{"ha":578,"x_min":98,"x_max":509,"o":"m 217 715 q 208 829 216 787 q 183 891 199 871 q 146 917 168 912 q 98 922 125 922 l 98 1046 q 207 1031 157 1046 q 294 985 257 1017 q 355 901 332 953 q 385 774 378 849 q 390 723 388 748 q 396 673 393 698 q 409 598 400 629 q 432 550 418 568 q 465 524 446 532 q 509 515 484 515 l 509 386 q 456 373 477 386 q 421 331 435 361 q 399 251 407 300 q 385 128 391 201 q 355 2 378 54 q 294 -82 332 -50 q 208 -129 257 -115 q 98 -144 158 -144 l 98 -21 q 146 -16 125 -21 q 183 10 168 -11 q 207 72 199 31 q 216 186 216 114 q 225 288 217 244 q 252 364 234 332 q 297 417 269 396 q 363 451 324 439 q 302 479 329 461 q 256 528 275 497 q 228 604 237 558 q 217 715 218 650 z "},"~":{"ha":726,"x_min":93,"x_max":660,"o":"m 512 205 q 434 220 472 205 q 363 252 396 235 q 303 284 330 270 q 262 299 277 299 q 229 281 239 299 q 219 216 219 262 l 93 216 q 133 374 93 325 q 243 422 173 422 q 290 416 268 422 q 334 399 313 409 q 375 376 355 389 q 414 354 395 364 q 452 337 433 344 q 490 330 471 330 q 511 336 503 330 q 523 351 519 341 q 528 374 527 361 q 530 404 530 388 l 660 404 q 650 323 660 360 q 621 261 640 287 q 575 220 602 235 q 512 205 547 205 z "}," ":{"ha":404,"x_min":0,"x_max":0,"o":""},"¡":{"ha":545,"x_min":183,"x_max":386,"o":"m 383 -1 l 191 -1 l 218 772 l 346 772 l 383 -1 m 183 964 q 189 1017 183 996 q 209 1051 195 1038 q 242 1068 222 1063 q 291 1074 262 1074 q 339 1065 320 1074 q 368 1043 357 1057 q 382 1008 378 1028 q 386 964 386 988 q 363 891 386 912 q 291 869 340 869 q 243 874 265 869 q 201 889 221 880 q 188 924 193 905 q 183 964 183 943 z "},"¢":{"ha":769,"x_min":75,"x_max":717,"o":"m 262 401 q 303 212 262 282 q 425 126 343 142 l 425 680 q 347 647 378 672 q 297 585 315 622 q 270 500 278 547 q 262 401 262 453 m 425 -12 q 283 22 347 -8 q 172 104 218 52 q 101 232 126 157 q 75 401 75 307 q 102 571 75 496 q 176 700 129 646 q 287 783 222 753 q 425 817 351 812 l 425 931 l 517 931 l 517 813 q 621 789 570 808 q 717 745 672 771 l 675 621 q 606 659 648 642 q 517 680 564 675 l 517 123 q 563 130 539 123 q 607 145 586 136 q 646 162 629 153 q 674 178 664 172 l 713 53 q 683 38 704 48 q 634 18 662 28 q 576 0 607 7 q 517 -8 545 -8 l 517 -105 l 425 -105 l 425 -12 z "},"£":{"ha":802,"x_min":123,"x_max":732,"o":"m 137 124 q 167 169 150 140 q 199 236 184 198 q 224 316 214 273 q 235 404 235 359 l 123 404 l 123 489 l 217 489 q 194 515 208 498 q 169 555 181 532 q 148 607 157 578 q 140 670 140 636 q 162 774 140 729 q 226 849 184 819 q 327 895 268 880 q 459 910 386 910 q 550 902 509 910 q 626 882 592 894 q 687 856 661 870 q 732 831 713 842 l 672 708 q 630 730 652 719 q 581 750 607 741 q 527 765 555 760 q 468 770 498 770 q 394 761 423 770 q 346 735 364 751 q 321 696 328 719 q 314 649 314 674 q 318 607 314 626 q 330 569 321 587 q 351 532 338 551 q 381 491 363 513 l 667 491 l 667 404 l 387 404 q 376 307 387 352 q 350 227 365 262 q 320 166 335 191 q 296 129 304 141 l 711 129 l 711 0 l 137 0 l 137 124 z "},"¤":{"ha":951,"x_min":95,"x_max":865,"o":"m 227 507 q 179 667 179 579 q 231 835 179 756 l 95 971 l 182 1058 l 319 922 q 488 976 397 976 q 648 928 574 976 l 778 1058 l 865 971 l 734 840 q 777 686 777 771 q 723 517 777 596 l 865 376 l 778 288 l 635 431 q 469 378 558 378 q 315 420 383 378 l 182 288 l 95 376 l 227 507 m 484 865 q 410 849 445 865 q 348 806 375 833 q 305 744 321 779 q 289 671 289 709 q 304 599 289 632 q 345 541 319 566 q 404 501 370 515 q 475 487 437 487 q 547 503 512 487 q 608 546 582 519 q 651 608 635 573 q 667 682 667 644 q 652 752 667 719 q 612 811 637 786 q 553 851 587 836 q 484 865 520 865 z "},"¥":{"ha":879,"x_min":-1,"x_max":891,"o":"m 691 1086 l 891 1086 l 593 503 l 752 503 l 752 425 l 561 425 l 539 348 l 752 348 l 752 272 l 538 272 l 538 0 l 353 0 l 353 272 l 137 272 l 137 348 l 352 348 l 331 425 l 137 425 l 137 503 l 297 503 l -1 1086 l 197 1086 l 444 550 l 691 1086 z "},"¦":{"ha":480,"x_min":163,"x_max":334,"o":"m 163 1118 l 334 1118 l 334 623 l 163 623 l 163 1118 m 163 443 l 334 443 l 334 -52 l 163 -52 l 163 443 z "},"§":{"ha":796,"x_min":114,"x_max":693,"o":"m 399 429 q 457 433 431 429 q 504 447 484 437 q 535 474 524 457 q 546 515 546 490 q 509 585 546 564 q 399 605 472 605 q 332 599 359 605 q 287 582 304 593 q 262 554 270 570 q 255 517 255 538 q 290 451 255 472 q 399 429 325 429 m 610 872 q 577 894 599 881 q 526 920 555 907 q 465 941 498 932 q 398 950 431 950 q 327 944 354 950 q 283 927 299 938 q 262 901 268 916 q 256 868 256 886 q 267 839 256 852 q 301 813 277 826 q 363 785 325 800 q 459 751 402 770 q 569 703 524 727 q 641 651 614 679 q 680 590 668 623 q 692 515 692 557 q 680 452 692 479 q 647 405 667 425 q 600 373 627 385 q 543 353 572 360 q 615 315 586 336 q 661 267 644 293 q 686 210 678 241 q 693 144 693 179 q 668 46 693 87 q 602 -21 643 5 q 508 -60 561 -47 q 397 -72 454 -72 q 298 -59 347 -72 q 212 -30 250 -46 q 148 2 173 -14 q 117 22 122 17 l 170 144 q 205 119 180 133 q 259 92 229 104 q 321 71 289 79 q 379 62 353 62 q 500 86 459 62 q 541 163 541 110 q 534 203 541 187 q 512 232 526 220 q 477 252 498 243 q 429 271 456 261 l 319 308 q 227 345 266 326 q 163 389 189 364 q 126 445 138 413 q 114 522 114 477 q 121 575 114 549 q 147 624 129 602 q 194 663 165 646 q 267 688 223 680 q 195 722 224 703 q 148 764 165 741 q 122 818 130 788 q 114 884 114 847 q 134 963 114 927 q 190 1026 153 1000 q 278 1068 227 1053 q 393 1083 330 1083 q 481 1071 437 1083 q 564 1042 526 1059 q 629 1011 602 1026 q 662 989 655 996 l 610 872 z "},"¨":{"ha":758,"x_min":75,"x_max":687,"o":"m 75 213 q 83 254 75 235 q 105 288 91 273 q 139 311 119 302 q 180 319 158 319 q 222 311 203 319 q 256 288 242 302 q 279 254 271 273 q 287 213 287 235 q 279 171 287 191 q 256 137 271 152 q 222 114 242 123 q 180 106 203 106 q 138 114 157 106 q 105 137 119 123 q 83 171 91 152 q 75 213 75 191 m 475 213 q 483 254 475 235 q 505 288 491 273 q 539 311 519 302 q 581 319 558 319 q 623 311 603 319 q 656 288 642 302 q 679 254 671 273 q 687 213 687 235 q 679 171 687 191 q 656 137 671 152 q 623 114 642 123 q 581 106 603 106 q 537 114 557 106 q 504 137 518 123 q 483 171 490 152 q 475 213 475 191 z "},"©":{"ha":1438,"x_min":102,"x_max":1339,"o":"m 714 69 q 851 86 787 69 q 969 135 915 104 q 1065 211 1023 167 q 1138 309 1108 255 q 1183 425 1168 363 q 1199 554 1199 487 q 1180 695 1199 630 q 1126 815 1160 761 q 1046 912 1092 869 q 947 983 1000 954 q 836 1027 894 1012 q 721 1042 778 1042 q 605 1027 663 1042 q 494 983 547 1012 q 395 912 441 954 q 315 815 349 869 q 261 695 281 761 q 242 554 242 629 q 275 365 242 453 q 369 211 308 276 q 518 107 431 145 q 714 69 605 69 m 537 555 q 550 444 537 488 q 589 373 564 399 q 652 335 614 347 q 737 324 689 324 q 781 327 759 324 q 827 337 803 330 q 880 355 852 344 q 940 383 907 367 l 940 264 q 836 221 882 235 q 746 208 789 208 q 625 222 677 208 q 535 261 573 236 q 470 319 496 286 q 429 392 444 353 q 407 473 413 431 q 400 559 400 516 q 419 693 400 630 q 479 802 438 755 q 585 876 520 849 q 741 903 650 903 q 788 899 763 903 q 840 887 814 895 q 890 870 865 880 q 937 848 916 861 l 937 732 q 831 773 882 760 q 734 787 781 787 q 643 772 681 787 q 582 727 606 757 q 548 655 559 698 q 537 555 537 612 m 717 -54 q 559 -35 636 -54 q 414 22 482 -15 q 288 113 345 59 q 190 234 231 166 q 125 383 149 302 q 102 556 102 464 q 126 730 102 648 q 193 879 151 811 q 294 1000 235 947 q 420 1090 352 1053 q 566 1147 489 1127 q 721 1166 642 1166 q 874 1147 798 1166 q 1019 1090 950 1127 q 1146 1000 1088 1053 q 1247 878 1204 946 q 1315 729 1291 810 q 1339 556 1339 648 q 1315 384 1339 465 q 1250 235 1292 303 q 1151 114 1208 168 q 1023 23 1093 60 q 876 -35 954 -15 q 717 -54 798 -54 z "},"ª":{"ha":838,"x_min":140,"x_max":651,"o":"m 554 562 q 543 545 553 562 q 510 507 533 528 q 449 470 487 487 q 355 453 411 453 q 265 466 304 453 q 197 505 225 479 q 155 567 170 530 q 140 651 140 604 q 157 738 140 700 q 207 801 175 775 q 284 840 239 827 q 383 853 329 853 q 440 850 412 853 q 491 842 469 846 q 527 832 513 837 q 542 826 541 828 l 542 865 q 537 935 542 905 q 519 985 533 965 q 480 1016 505 1006 q 412 1026 454 1026 q 336 1019 372 1026 q 274 1002 300 1011 q 231 986 247 994 q 214 979 215 979 l 178 1053 q 197 1062 179 1053 q 245 1082 214 1071 q 317 1102 275 1093 q 406 1111 358 1111 q 522 1096 475 1111 q 598 1048 569 1081 q 639 963 627 1015 q 651 838 651 911 l 651 465 l 572 465 l 554 562 m 542 774 q 477 782 507 779 q 422 785 448 785 q 249 659 249 785 q 256 598 249 623 q 278 558 262 574 q 318 536 293 543 q 380 530 343 530 q 448 542 418 530 q 498 570 477 555 q 531 598 519 585 q 542 612 542 611 l 542 774 m 183 390 l 647 390 l 647 302 l 183 302 l 183 390 z "},"«":{"ha":1164,"x_min":85,"x_max":1059,"o":"m 747 397 l 1059 203 l 1059 16 l 572 321 l 572 469 l 1059 774 l 1059 587 l 747 397 m 260 397 l 572 203 l 572 16 l 85 321 l 85 469 l 572 774 l 572 587 l 260 397 z "},"¬":{"ha":979,"x_min":54,"x_max":861,"o":"m 54 549 l 54 692 l 861 692 l 861 195 l 734 195 l 734 549 l 54 549 z "},"­":{"ha":684,"x_min":106,"x_max":543,"o":"m 106 372 l 106 509 l 543 509 l 543 372 l 106 372 z "},"®":{"ha":929,"x_min":39,"x_max":910,"o":"m 39 802 q 54 911 39 858 q 96 1010 69 964 q 162 1095 123 1056 q 250 1161 201 1133 q 355 1203 298 1188 q 475 1219 412 1219 q 591 1204 535 1219 q 695 1163 646 1190 q 783 1099 743 1137 q 851 1015 823 1061 q 895 915 879 968 q 910 802 910 861 q 895 691 910 744 q 852 592 880 638 q 785 507 825 545 q 698 442 746 469 q 593 399 650 414 q 475 385 536 385 q 303 417 382 385 q 165 506 224 449 q 73 638 106 562 q 39 802 39 714 m 474 466 q 611 492 549 466 q 719 563 673 518 q 789 669 764 608 q 814 800 814 730 q 789 933 814 871 q 718 1039 764 994 q 610 1110 673 1084 q 474 1136 548 1136 q 337 1110 399 1136 q 230 1039 275 1084 q 160 932 185 994 q 135 800 135 871 q 160 667 135 728 q 229 562 184 606 q 336 491 274 517 q 474 466 399 466 m 509 867 q 544 880 532 870 q 555 907 555 889 q 548 930 555 921 q 526 945 541 939 q 486 953 511 951 q 424 956 460 956 l 424 835 q 447 834 435 835 q 470 834 458 834 q 499 841 490 834 q 509 867 509 847 m 568 572 l 448 768 l 422 768 l 422 585 l 340 585 l 340 1022 l 435 1022 q 514 1017 476 1022 q 579 998 551 1012 q 624 961 607 985 q 640 902 640 938 q 634 857 640 876 q 615 822 629 837 q 581 798 602 807 q 526 783 559 788 l 644 611 l 568 572 z "},"¯":{"ha":714,"x_min":185,"x_max":568,"o":"m 185 135 l 185 272 l 568 272 l 568 135 l 185 135 z "},"°":{"ha":551,"x_min":96,"x_max":448,"o":"m 128 661 q 139 604 128 630 q 170 559 151 578 q 216 529 189 540 q 274 518 243 518 q 331 529 304 518 q 376 559 357 540 q 406 604 395 578 q 417 661 417 630 q 406 718 417 691 q 376 763 395 744 q 331 793 357 782 q 274 804 304 804 q 216 793 243 804 q 170 763 189 782 q 139 717 151 743 q 128 661 128 691 m 273 830 q 342 817 310 830 q 397 782 374 804 q 435 727 421 759 q 448 659 448 696 q 434 591 448 622 q 395 538 419 560 q 338 504 370 516 q 270 492 306 492 q 203 505 235 492 q 148 542 172 518 q 110 596 124 565 q 96 663 96 627 q 111 729 96 699 q 150 782 125 760 q 206 817 174 804 q 273 830 238 830 z "},"±":{"ha":783,"x_min":132,"x_max":688,"o":"m 153 -19 l 153 108 l 667 108 l 667 -19 l 153 -19 m 484 465 l 484 224 l 335 224 l 335 465 l 132 465 l 132 604 l 335 604 l 335 842 l 484 842 l 484 604 l 688 604 l 688 465 l 484 465 z "},"²":{"ha":764,"x_min":172,"x_max":623,"o":"m 172 546 l 355 709 q 431 779 401 749 q 477 831 460 808 q 500 874 494 854 q 507 918 507 895 q 474 991 507 966 q 384 1017 441 1017 q 316 1012 351 1017 q 252 1000 281 1006 q 183 982 217 992 l 183 1076 q 240 1093 208 1086 q 306 1105 268 1100 q 391 1111 344 1111 q 503 1092 458 1111 q 575 1044 548 1073 q 612 982 602 1016 q 623 920 623 949 q 615 859 623 888 q 588 801 607 830 q 537 739 569 771 q 458 666 506 706 l 329 556 l 604 556 l 604 453 l 172 453 l 172 546 z "},"³":{"ha":819,"x_min":203,"x_max":690,"o":"m 238 505 q 276 488 255 497 q 320 472 296 479 q 372 460 345 465 q 428 456 399 456 q 488 465 460 456 q 535 489 515 473 q 566 528 555 505 q 577 578 577 551 q 534 680 577 642 q 399 727 492 717 l 399 819 q 460 826 431 819 q 513 847 490 833 q 550 885 536 862 q 564 938 564 907 q 527 1017 564 989 q 412 1045 490 1045 q 372 1042 393 1045 q 330 1034 351 1039 q 289 1021 309 1028 q 254 1006 270 1014 l 222 1093 q 239 1100 223 1093 q 281 1116 255 1107 q 342 1131 308 1124 q 416 1137 377 1137 q 469 1134 441 1137 q 526 1121 498 1130 q 580 1099 554 1113 q 625 1063 606 1084 q 657 1013 645 1042 q 669 945 669 983 q 650 865 669 898 q 605 812 631 833 q 550 783 578 792 q 503 774 522 774 q 540 765 519 771 q 582 748 561 758 q 622 721 602 737 q 656 683 642 705 q 681 632 671 661 q 690 566 690 604 q 666 476 690 514 q 604 414 642 438 q 519 378 566 389 q 426 366 472 366 q 309 379 364 366 q 203 419 254 392 l 238 505 z "},"´":{"ha":755,"x_min":309,"x_max":622,"o":"m 309 117 l 434 539 l 622 457 l 383 83 l 309 117 z "},"µ":{"ha":895,"x_min":125,"x_max":791,"o":"m 125 793 l 243 793 l 243 300 q 414 83 243 83 q 502 96 462 83 q 573 126 542 109 q 623 161 604 144 q 650 186 643 178 l 650 793 l 791 793 l 791 11 l 692 11 l 675 115 q 406 -14 559 -14 q 349 -4 375 -14 q 303 19 323 5 q 268 48 283 33 q 243 77 253 64 l 243 -197 l 125 -197 l 125 793 z "},"¶":{"ha":949,"x_min":71,"x_max":832,"o":"m 832 0 l 680 0 l 680 985 l 587 985 l 587 0 l 432 0 l 432 555 q 296 567 361 555 q 180 611 231 580 q 100 695 130 642 q 71 827 71 747 q 86 925 71 884 q 130 995 102 966 q 196 1041 158 1023 q 277 1069 234 1059 q 368 1082 321 1079 q 463 1086 416 1086 l 832 1086 l 832 0 z "},"·":{"ha":393,"x_min":80,"x_max":303,"o":"m 80 467 q 89 510 80 490 q 112 546 97 530 q 147 570 127 561 q 191 579 168 579 q 236 570 215 579 q 271 546 256 561 q 295 510 286 530 q 303 467 303 490 q 295 423 303 444 q 271 388 286 403 q 236 363 256 372 q 191 354 215 354 q 147 363 168 354 q 112 387 127 372 q 89 423 97 402 q 80 467 80 444 z "},"¸":{"ha":425,"x_min":202,"x_max":526,"o":"m 202 -309 q 247 -324 224 -317 q 287 -334 266 -330 q 323 -338 307 -338 q 360 -335 343 -338 q 388 -323 376 -332 q 407 -298 400 -315 q 413 -255 413 -281 q 370 -180 413 -202 q 237 -157 328 -157 l 243 34 l 326 34 l 322 -88 q 394 -97 357 -88 q 459 -125 430 -106 q 507 -177 489 -145 q 526 -255 526 -209 q 478 -383 526 -337 q 339 -429 431 -429 q 291 -425 313 -429 q 252 -415 269 -420 q 221 -404 234 -410 q 202 -397 209 -399 l 202 -309 z "},"¹":{"ha":502,"x_min":81,"x_max":336,"o":"m 222 884 l 106 836 l 81 912 l 241 977 l 336 959 l 336 324 l 222 324 l 222 884 z "},"º":{"ha":859,"x_min":145,"x_max":721,"o":"m 433 454 q 306 480 359 454 q 216 549 252 505 q 163 653 180 593 q 145 781 145 713 q 162 908 145 848 q 215 1013 180 968 q 305 1084 251 1058 q 433 1111 359 1111 q 561 1084 507 1111 q 651 1013 615 1058 q 704 908 686 968 q 721 781 721 848 q 704 654 721 713 q 651 550 686 595 q 561 480 615 506 q 433 454 507 454 m 433 541 q 516 558 481 541 q 572 609 550 576 q 604 685 593 641 q 614 783 614 730 q 604 879 614 834 q 572 956 593 923 q 516 1007 550 988 q 433 1025 481 1025 q 350 1007 384 1025 q 294 956 315 989 q 262 879 272 924 q 252 783 252 835 q 262 686 252 730 q 294 609 272 642 q 350 559 315 577 q 433 541 384 541 m 203 390 l 667 390 l 667 302 l 203 302 l 203 390 z "},"»":{"ha":1179,"x_min":116,"x_max":1090,"o":"m 116 774 l 604 469 l 604 321 l 116 16 l 116 203 l 435 397 l 116 587 l 116 774 m 602 774 l 1090 469 l 1090 321 l 602 16 l 602 203 l 922 397 l 602 587 l 602 774 z "},"¼":{"ha":1305,"x_min":66,"x_max":1223,"o":"m 993 154 l 993 445 l 796 154 l 993 154 m 1124 649 l 1124 155 l 1223 155 l 1223 45 l 1124 45 l 1124 -121 l 989 -129 l 989 45 l 654 45 l 635 154 l 1008 678 l 1124 649 m 834 1001 l 954 941 l 352 -79 l 235 -20 l 834 1001 m 207 872 l 106 829 l 66 926 l 247 998 l 353 975 l 353 336 l 207 336 l 207 872 z "},"½":{"ha":1431,"x_min":85,"x_max":1330,"o":"m 1179 427 q 1151 493 1179 471 q 1072 515 1124 515 q 1025 511 1051 515 q 971 499 998 506 q 920 484 945 492 q 879 469 896 475 l 854 584 q 903 603 878 593 q 957 620 928 612 q 1017 632 985 627 q 1084 637 1048 637 q 1188 622 1142 637 q 1265 581 1234 607 q 1313 519 1297 555 q 1330 441 1330 484 q 1322 379 1330 408 q 1296 322 1314 351 q 1249 261 1278 293 q 1175 192 1219 230 l 1070 101 l 1312 101 l 1312 -25 l 856 -25 l 856 82 q 949 163 903 123 q 1042 244 996 203 q 1098 293 1073 271 q 1141 337 1123 316 q 1169 381 1159 359 q 1179 427 1179 403 m 226 872 l 125 829 l 85 926 l 266 998 l 372 975 l 372 336 l 226 336 l 226 872 m 844 1001 l 964 941 l 362 -79 l 245 -20 l 844 1001 z "},"¾":{"ha":1474,"x_min":98,"x_max":1385,"o":"m 1160 154 l 1160 448 l 954 154 l 1160 154 m 1285 649 l 1285 154 l 1385 154 l 1385 45 l 1285 45 l 1285 -121 l 1158 -129 l 1158 45 l 816 45 l 797 138 l 1169 678 l 1285 649 m 991 1001 l 1115 941 l 513 -79 l 396 -20 l 991 1001 m 431 892 q 400 956 431 934 q 309 977 369 977 q 272 974 292 977 q 231 966 252 971 q 189 953 210 960 q 150 938 168 946 l 102 1045 q 129 1058 110 1050 q 174 1075 147 1067 q 234 1090 201 1084 q 304 1096 267 1096 q 401 1086 353 1096 q 487 1054 449 1077 q 547 991 524 1030 q 570 895 570 953 q 557 829 570 858 q 523 780 544 800 q 478 747 503 760 q 431 732 453 735 q 486 711 458 726 q 537 673 514 696 q 576 617 561 650 q 591 542 591 585 q 567 442 591 483 q 503 375 543 401 q 411 337 463 349 q 304 326 359 326 q 255 329 281 326 q 201 337 229 332 q 148 352 174 343 q 98 371 121 360 l 139 485 q 165 473 148 480 q 205 459 182 466 q 256 447 229 452 q 313 442 283 442 q 409 469 374 442 q 444 547 444 496 q 398 636 444 604 q 272 674 351 669 l 272 789 q 331 794 302 789 q 381 813 359 800 q 417 845 404 825 q 431 892 431 865 z "},"¿":{"ha":823,"x_min":85,"x_max":738,"o":"m 614 924 q 561 876 596 895 q 479 857 526 857 q 432 912 451 875 q 414 998 414 949 q 466 1046 431 1027 q 547 1066 502 1066 q 595 1009 576 1047 q 614 924 614 970 m 267 241 q 281 178 267 203 q 319 139 294 153 q 378 119 343 125 q 454 113 412 113 q 538 121 496 113 q 613 140 580 130 q 668 158 647 150 q 689 168 689 167 l 738 30 q 692 9 721 21 q 625 -12 663 -2 q 541 -30 587 -22 q 444 -37 495 -37 q 303 -22 368 -37 q 189 25 237 -7 q 113 108 140 58 q 85 229 85 158 q 105 334 85 283 q 169 430 126 385 q 277 512 212 475 q 433 577 343 549 l 433 795 l 606 795 l 606 489 q 477 443 538 466 q 369 391 416 419 q 295 326 323 362 q 267 241 267 290 z "},"À":{"ha":1019,"x_min":31,"x_max":988,"o":"m 629 1086 l 988 0 l 791 0 l 711 252 l 308 252 l 228 0 l 31 0 l 388 1086 l 629 1086 m 334 346 l 686 346 l 512 890 l 334 346 m 210 1535 l 400 1616 l 524 1193 l 446 1158 l 210 1535 z "},"Á":{"ha":1019,"x_min":31,"x_max":988,"o":"m 629 1086 l 988 0 l 791 0 l 711 252 l 308 252 l 228 0 l 31 0 l 388 1086 l 629 1086 m 334 346 l 686 346 l 512 890 l 334 346 m 426 1203 l 551 1625 l 739 1543 l 500 1168 l 426 1203 z "},"Â":{"ha":1019,"x_min":31,"x_max":988,"o":"m 629 1086 l 988 0 l 791 0 l 711 252 l 308 252 l 228 0 l 31 0 l 388 1086 l 629 1086 m 334 346 l 686 346 l 512 890 l 334 346 m 570 1587 l 760 1200 l 621 1174 l 509 1436 l 398 1174 l 260 1200 l 449 1587 l 570 1587 z "},"Ã":{"ha":1019,"x_min":31,"x_max":988,"o":"m 629 1086 l 988 0 l 791 0 l 711 252 l 308 252 l 228 0 l 31 0 l 388 1086 l 629 1086 m 334 346 l 686 346 l 512 890 l 334 346 m 648 1175 q 599 1181 624 1175 q 549 1198 574 1188 q 502 1220 525 1208 q 458 1241 479 1232 q 420 1258 437 1251 q 391 1265 404 1265 q 361 1248 373 1265 q 350 1185 350 1232 l 224 1185 q 373 1392 224 1392 q 449 1378 413 1392 q 518 1347 486 1364 q 578 1316 551 1330 q 629 1302 606 1302 q 653 1317 645 1302 q 661 1373 661 1333 l 791 1373 q 753 1226 791 1278 q 648 1175 716 1175 z "},"Ä":{"ha":1019,"x_min":31,"x_max":988,"o":"m 629 1086 l 988 0 l 791 0 l 711 252 l 308 252 l 228 0 l 31 0 l 388 1086 l 629 1086 m 334 346 l 686 346 l 512 890 l 334 346 m 193 1271 q 200 1312 193 1293 q 222 1346 208 1331 q 256 1369 237 1360 q 298 1377 275 1377 q 340 1369 320 1377 q 374 1346 359 1360 q 396 1312 388 1331 q 404 1271 404 1293 q 396 1229 404 1249 q 374 1195 388 1210 q 340 1172 359 1181 q 298 1164 320 1164 q 255 1172 275 1164 q 222 1195 236 1181 q 200 1229 208 1210 q 193 1271 193 1249 m 592 1271 q 600 1312 592 1293 q 623 1346 608 1331 q 656 1369 637 1360 q 698 1377 675 1377 q 740 1369 720 1377 q 774 1346 760 1360 q 796 1312 788 1331 q 804 1271 804 1293 q 796 1229 804 1249 q 774 1195 788 1210 q 740 1172 760 1181 q 698 1164 720 1164 q 655 1172 674 1164 q 622 1195 635 1181 q 600 1229 608 1210 q 592 1271 592 1249 z "},"Å":{"ha":1019,"x_min":31,"x_max":988,"o":"m 629 1086 l 988 0 l 791 0 l 711 252 l 308 252 l 228 0 l 31 0 l 388 1086 l 629 1086 m 334 346 l 686 346 l 512 890 l 334 346 m 401 1367 q 410 1322 401 1343 q 434 1287 418 1302 q 469 1263 449 1272 q 513 1255 489 1255 q 557 1263 536 1255 q 592 1287 577 1272 q 616 1322 608 1302 q 625 1367 625 1343 q 616 1411 625 1390 q 592 1447 608 1432 q 556 1471 577 1462 q 513 1479 536 1479 q 469 1470 489 1479 q 433 1446 448 1461 q 410 1410 418 1431 q 401 1367 401 1390 m 513 1567 q 595 1552 557 1567 q 662 1510 633 1537 q 707 1446 690 1482 q 723 1365 723 1409 q 706 1285 723 1322 q 659 1223 688 1249 q 591 1182 630 1196 q 510 1167 553 1167 q 429 1183 467 1167 q 363 1226 391 1198 q 319 1290 336 1253 q 303 1369 303 1326 q 320 1448 303 1411 q 366 1511 337 1484 q 433 1552 395 1537 q 513 1567 471 1567 z "},"Æ":{"ha":1344,"x_min":31,"x_max":1289,"o":"m 641 964 l 372 349 l 641 349 l 641 964 m 1276 958 l 823 958 l 823 630 l 1230 630 l 1230 518 l 823 518 l 823 128 l 1289 128 l 1289 0 l 642 0 l 642 248 l 335 248 l 228 0 l 31 0 l 528 1086 l 1276 1086 l 1276 958 z "},"Ç":{"ha":889,"x_min":71,"x_max":854,"o":"m 267 533 q 284 356 267 433 q 337 227 302 279 q 425 147 372 174 q 552 120 479 120 q 634 128 595 120 q 705 148 673 136 q 763 173 738 159 q 801 195 787 186 l 854 58 q 817 36 845 50 q 747 8 789 22 q 652 -14 705 -5 q 540 -24 599 -24 q 337 14 425 -24 q 190 124 250 52 q 101 300 131 196 q 71 536 71 404 q 82 685 71 613 q 119 820 94 757 q 183 936 144 884 q 273 1026 221 989 q 393 1085 326 1064 q 543 1106 460 1106 q 640 1100 593 1106 q 728 1083 688 1093 q 798 1062 768 1074 q 845 1038 829 1050 l 795 898 q 754 920 779 909 q 700 940 730 931 q 632 956 669 949 q 554 962 595 962 q 425 933 479 962 q 336 849 371 904 q 284 714 300 794 q 267 533 267 635 m 439 -322 q 484 -337 461 -330 q 523 -347 503 -342 q 559 -351 544 -351 q 596 -348 580 -351 q 625 -336 613 -345 q 643 -311 637 -328 q 650 -268 650 -294 q 607 -193 650 -215 q 473 -170 564 -170 l 480 21 l 563 21 l 559 -101 q 630 -110 594 -101 q 696 -138 667 -119 q 744 -190 726 -158 q 762 -268 762 -222 q 715 -396 762 -350 q 576 -441 668 -441 q 528 -437 550 -441 q 488 -428 506 -433 q 458 -417 471 -422 q 439 -410 446 -412 l 439 -322 z "},"È":{"ha":859,"x_min":105,"x_max":816,"o":"m 105 0 l 105 1086 l 808 1086 l 808 956 l 300 956 l 300 627 l 743 627 l 743 509 l 300 509 l 300 128 l 816 128 l 816 0 l 105 0 m 162 1537 l 353 1617 l 476 1194 l 398 1159 l 162 1537 z "},"É":{"ha":859,"x_min":105,"x_max":816,"o":"m 105 0 l 105 1086 l 808 1086 l 808 956 l 300 956 l 300 627 l 743 627 l 743 509 l 300 509 l 300 128 l 816 128 l 816 0 l 105 0 m 344 1204 l 469 1626 l 656 1544 l 418 1170 l 344 1204 z "},"Ê":{"ha":859,"x_min":105,"x_max":816,"o":"m 105 0 l 105 1086 l 808 1086 l 808 956 l 300 956 l 300 627 l 743 627 l 743 509 l 300 509 l 300 128 l 816 128 l 816 0 l 105 0 m 522 1587 l 711 1200 l 572 1174 l 461 1436 l 350 1174 l 212 1200 l 401 1587 l 522 1587 z "},"Ë":{"ha":859,"x_min":105,"x_max":816,"o":"m 105 0 l 105 1086 l 808 1086 l 808 956 l 300 956 l 300 627 l 743 627 l 743 509 l 300 509 l 300 128 l 816 128 l 816 0 l 105 0 m 145 1272 q 153 1313 145 1293 q 175 1347 161 1332 q 209 1370 189 1361 q 250 1378 228 1378 q 292 1370 273 1378 q 326 1347 312 1361 q 349 1313 340 1332 q 357 1272 357 1293 q 349 1230 357 1249 q 326 1196 340 1211 q 292 1173 312 1181 q 250 1164 273 1164 q 208 1173 227 1164 q 175 1196 189 1181 q 153 1230 161 1211 q 145 1272 145 1249 m 545 1272 q 553 1313 545 1293 q 575 1347 561 1332 q 609 1370 589 1361 q 650 1378 628 1378 q 692 1370 673 1378 q 726 1347 712 1361 q 749 1313 741 1332 q 757 1272 757 1293 q 749 1230 757 1249 q 726 1196 741 1211 q 692 1173 712 1181 q 650 1164 673 1164 q 607 1173 627 1164 q 574 1196 588 1181 q 552 1230 560 1211 q 545 1272 545 1249 z "},"Ì":{"ha":566,"x_min":-18,"x_max":509,"o":"m 189 97 l 189 987 l 60 987 l 60 1086 l 509 1086 l 509 987 l 379 987 l 379 97 l 509 97 l 509 0 l 60 0 l 60 97 l 189 97 m -18 1539 l 173 1620 l 296 1197 l 218 1162 l -18 1539 z "},"Í":{"ha":566,"x_min":60,"x_max":509,"o":"m 189 97 l 189 987 l 60 987 l 60 1086 l 509 1086 l 509 987 l 379 987 l 379 97 l 509 97 l 509 0 l 60 0 l 60 97 l 189 97 m 165 1207 l 290 1629 l 477 1547 l 239 1173 l 165 1207 z "},"Î":{"ha":566,"x_min":35,"x_max":535,"o":"m 189 97 l 189 987 l 60 987 l 60 1086 l 509 1086 l 509 987 l 379 987 l 379 97 l 509 97 l 509 0 l 60 0 l 60 97 l 189 97 m 346 1587 l 535 1200 l 396 1174 l 285 1436 l 174 1174 l 35 1200 l 224 1587 l 346 1587 z "},"Ï":{"ha":566,"x_min":-34,"x_max":578,"o":"m 189 97 l 189 987 l 60 987 l 60 1086 l 509 1086 l 509 987 l 379 987 l 379 97 l 509 97 l 509 0 l 60 0 l 60 97 l 189 97 m -34 1275 q -26 1316 -34 1297 q -4 1350 -18 1335 q 30 1373 10 1364 q 71 1381 49 1381 q 113 1373 94 1381 q 147 1350 133 1364 q 170 1316 161 1335 q 178 1275 178 1297 q 170 1233 178 1253 q 147 1199 161 1214 q 113 1176 133 1185 q 71 1168 94 1168 q 29 1176 48 1168 q -4 1199 9 1185 q -26 1233 -18 1214 q -34 1275 -34 1253 m 366 1275 q 374 1316 366 1297 q 396 1350 382 1335 q 430 1373 410 1364 q 471 1381 449 1381 q 513 1373 494 1381 q 547 1350 533 1364 q 570 1316 562 1335 q 578 1275 578 1297 q 570 1233 578 1253 q 547 1199 562 1214 q 513 1176 533 1185 q 471 1168 494 1168 q 428 1176 448 1168 q 395 1199 409 1185 q 373 1233 381 1214 q 366 1275 366 1253 z "},"Ð":{"ha":1047,"x_min":-2,"x_max":976,"o":"m 779 541 q 768 700 779 627 q 727 828 757 773 q 644 917 696 883 q 507 957 591 950 q 463 960 485 958 q 416 961 440 961 l 303 961 l 303 623 l 474 623 l 474 498 l 303 498 l 303 128 l 416 128 q 506 132 464 128 q 645 172 591 139 q 728 259 698 205 q 768 385 758 313 q 779 541 779 456 m 976 540 q 947 320 976 419 q 856 149 918 220 q 699 39 795 78 q 471 0 604 0 l 109 0 l 109 498 l -2 498 l -2 623 l 109 623 l 109 1086 l 471 1086 q 696 1050 601 1086 q 853 943 791 1013 q 946 772 916 873 q 976 540 976 670 z "},"Ñ":{"ha":1114,"x_min":105,"x_max":1008,"o":"m 790 0 l 286 851 l 286 0 l 105 0 l 105 1086 l 332 1086 l 828 244 l 828 1086 l 1008 1086 l 1008 0 l 790 0 m 686 1176 q 637 1183 662 1176 q 587 1199 612 1190 q 540 1221 563 1209 q 496 1243 517 1233 q 458 1259 475 1253 q 429 1266 441 1266 q 399 1250 411 1266 q 388 1187 388 1233 l 262 1187 q 411 1393 262 1393 q 487 1379 451 1393 q 556 1348 524 1365 q 616 1317 589 1331 q 667 1303 644 1303 q 691 1319 683 1303 q 699 1375 699 1334 l 829 1375 q 791 1228 829 1280 q 686 1176 754 1176 z "},"Ò":{"ha":1082,"x_min":71,"x_max":1012,"o":"m 1012 549 q 987 322 1012 427 q 908 141 963 218 q 762 20 852 64 q 541 -24 672 -24 q 384 -4 453 -24 q 262 54 315 16 q 174 144 210 91 q 114 261 137 197 q 81 400 92 326 q 71 557 71 475 q 100 787 71 685 q 189 960 130 889 q 336 1068 248 1030 q 541 1105 424 1105 q 746 1068 658 1105 q 894 958 835 1030 q 982 783 953 886 q 1012 549 1012 680 m 267 538 q 282 364 267 441 q 331 233 298 287 q 415 150 363 178 q 541 121 467 121 q 664 148 612 121 q 749 229 715 176 q 799 360 783 282 q 814 538 814 437 q 799 719 814 640 q 750 852 783 798 q 666 934 717 906 q 543 962 614 962 q 418 935 470 962 q 332 853 366 907 q 283 720 298 799 q 267 538 267 641 m 239 1544 l 429 1625 l 553 1202 l 475 1166 l 239 1544 z "},"Ó":{"ha":1082,"x_min":71,"x_max":1012,"o":"m 1012 549 q 987 322 1012 427 q 908 141 963 218 q 762 20 852 64 q 541 -24 672 -24 q 384 -4 453 -24 q 262 54 315 16 q 174 144 210 91 q 114 261 137 197 q 81 400 92 326 q 71 557 71 475 q 100 787 71 685 q 189 960 130 889 q 336 1068 248 1030 q 541 1105 424 1105 q 746 1068 658 1105 q 894 958 835 1030 q 982 783 953 886 q 1012 549 1012 680 m 267 538 q 282 364 267 441 q 331 233 298 287 q 415 150 363 178 q 541 121 467 121 q 664 148 612 121 q 749 229 715 176 q 799 360 783 282 q 814 538 814 437 q 799 719 814 640 q 750 852 783 798 q 666 934 717 906 q 543 962 614 962 q 418 935 470 962 q 332 853 366 907 q 283 720 298 799 q 267 538 267 641 m 421 1212 l 546 1634 l 734 1552 l 495 1177 l 421 1212 z "},"Ô":{"ha":1082,"x_min":71,"x_max":1012,"o":"m 1012 549 q 987 322 1012 427 q 908 141 963 218 q 762 20 852 64 q 541 -24 672 -24 q 384 -4 453 -24 q 262 54 315 16 q 174 144 210 91 q 114 261 137 197 q 81 400 92 326 q 71 557 71 475 q 100 787 71 685 q 189 960 130 889 q 336 1068 248 1030 q 541 1105 424 1105 q 746 1068 658 1105 q 894 958 835 1030 q 982 783 953 886 q 1012 549 1012 680 m 267 538 q 282 364 267 441 q 331 233 298 287 q 415 150 363 178 q 541 121 467 121 q 664 148 612 121 q 749 229 715 176 q 799 360 783 282 q 814 538 814 437 q 799 719 814 640 q 750 852 783 798 q 666 934 717 906 q 543 962 614 962 q 418 935 470 962 q 332 853 366 907 q 283 720 298 799 q 267 538 267 641 m 602 1587 l 791 1200 l 652 1174 l 541 1436 l 430 1174 l 292 1200 l 481 1587 l 602 1587 z "},"Õ":{"ha":1082,"x_min":71,"x_max":1012,"o":"m 1012 549 q 987 322 1012 427 q 908 141 963 218 q 762 20 852 64 q 541 -24 672 -24 q 384 -4 453 -24 q 262 54 315 16 q 174 144 210 91 q 114 261 137 197 q 81 400 92 326 q 71 557 71 475 q 100 787 71 685 q 189 960 130 889 q 336 1068 248 1030 q 541 1105 424 1105 q 746 1068 658 1105 q 894 958 835 1030 q 982 783 953 886 q 1012 549 1012 680 m 267 538 q 282 364 267 441 q 331 233 298 287 q 415 150 363 178 q 541 121 467 121 q 664 148 612 121 q 749 229 715 176 q 799 360 783 282 q 814 538 814 437 q 799 719 814 640 q 750 852 783 798 q 666 934 717 906 q 543 962 614 962 q 418 935 470 962 q 332 853 366 907 q 283 720 298 799 q 267 538 267 641 m 676 1183 q 627 1190 652 1183 q 577 1207 602 1197 q 530 1229 553 1217 q 486 1250 507 1240 q 448 1267 465 1260 q 419 1274 431 1274 q 389 1257 401 1274 q 378 1194 378 1240 l 252 1194 q 401 1400 252 1400 q 477 1387 441 1400 q 546 1356 513 1373 q 606 1325 578 1339 q 657 1311 634 1311 q 681 1326 673 1311 q 689 1382 689 1341 l 819 1382 q 781 1235 819 1287 q 676 1183 744 1183 z "},"Ö":{"ha":1082,"x_min":71,"x_max":1012,"o":"m 1012 549 q 987 322 1012 427 q 908 141 963 218 q 762 20 852 64 q 541 -24 672 -24 q 384 -4 453 -24 q 262 54 315 16 q 174 144 210 91 q 114 261 137 197 q 81 400 92 326 q 71 557 71 475 q 100 787 71 685 q 189 960 130 889 q 336 1068 248 1030 q 541 1105 424 1105 q 746 1068 658 1105 q 894 958 835 1030 q 982 783 953 886 q 1012 549 1012 680 m 267 538 q 282 364 267 441 q 331 233 298 287 q 415 150 363 178 q 541 121 467 121 q 664 148 612 121 q 749 229 715 176 q 799 360 783 282 q 814 538 814 437 q 799 719 814 640 q 750 852 783 798 q 666 934 717 906 q 543 962 614 962 q 418 935 470 962 q 332 853 366 907 q 283 720 298 799 q 267 538 267 641 m 222 1279 q 230 1320 222 1301 q 252 1354 237 1339 q 285 1377 266 1369 q 327 1385 304 1385 q 369 1377 349 1385 q 403 1354 389 1369 q 425 1320 417 1339 q 433 1279 433 1301 q 425 1237 433 1257 q 403 1203 417 1218 q 369 1180 389 1189 q 327 1172 349 1172 q 284 1180 304 1172 q 251 1203 265 1189 q 230 1237 237 1218 q 222 1279 222 1257 m 621 1279 q 629 1320 621 1301 q 652 1354 637 1339 q 685 1377 666 1369 q 727 1385 705 1385 q 769 1377 749 1385 q 803 1354 789 1369 q 825 1320 817 1339 q 833 1279 833 1301 q 825 1237 833 1257 q 803 1203 817 1218 q 769 1180 789 1189 q 727 1172 749 1172 q 684 1180 703 1172 q 651 1203 665 1189 q 629 1237 637 1218 q 621 1279 621 1257 z "},"×":{"ha":923,"x_min":167,"x_max":781,"o":"m 265 680 l 473 477 l 682 680 l 781 576 l 576 378 l 781 180 l 682 75 l 473 279 l 265 75 l 167 180 l 371 378 l 167 576 l 265 680 z "},"Ø":{"ha":1082,"x_min":71,"x_max":1011,"o":"m 300 31 q 204 105 247 60 q 132 213 161 150 q 86 357 102 275 q 71 541 71 439 q 88 730 71 647 q 137 877 105 814 q 211 983 168 939 q 306 1054 254 1027 q 416 1094 358 1082 q 536 1106 475 1106 q 647 1097 595 1106 q 745 1067 699 1087 l 797 1187 l 877 1157 l 821 1026 q 906 942 870 991 q 965 831 942 892 q 1000 696 989 769 q 1011 541 1011 623 q 985 313 1011 416 q 901 134 958 209 q 755 18 844 59 q 541 -24 666 -24 q 460 -19 500 -24 q 382 -2 420 -15 l 334 -113 l 253 -81 l 300 31 m 441 138 q 476 128 450 135 q 541 121 502 121 q 677 155 624 121 q 761 247 730 189 q 803 381 791 305 q 814 541 814 457 q 799 723 814 646 q 749 855 784 800 l 441 138 m 304 386 q 306 339 304 366 q 314 285 308 313 q 333 232 321 258 q 366 186 345 205 l 684 924 q 619 953 654 944 q 543 962 583 962 q 407 929 460 962 q 323 840 354 897 q 280 706 292 783 q 268 541 268 629 q 275 453 268 494 q 304 386 283 412 z "},"Ù":{"ha":1072,"x_min":94,"x_max":974,"o":"m 534 121 q 662 144 614 121 q 736 214 710 168 q 771 331 762 261 q 779 492 779 400 l 779 1086 l 974 1086 l 974 495 q 950 272 974 369 q 873 110 926 176 q 738 10 821 44 q 537 -24 654 -24 q 332 10 416 -24 q 195 110 248 44 q 118 272 142 176 q 94 495 94 369 l 94 1086 l 289 1086 l 289 492 q 299 331 289 400 q 336 214 309 261 q 411 144 363 168 q 534 121 459 121 m 233 1536 l 424 1617 l 547 1194 l 469 1158 l 233 1536 z "},"Ú":{"ha":1072,"x_min":94,"x_max":974,"o":"m 534 121 q 662 144 614 121 q 736 214 710 168 q 771 331 762 261 q 779 492 779 400 l 779 1086 l 974 1086 l 974 495 q 950 272 974 369 q 873 110 926 176 q 738 10 821 44 q 537 -24 654 -24 q 332 10 416 -24 q 195 110 248 44 q 118 272 142 176 q 94 495 94 369 l 94 1086 l 289 1086 l 289 492 q 299 331 289 400 q 336 214 309 261 q 411 144 363 168 q 534 121 459 121 m 416 1204 l 541 1626 l 728 1544 l 490 1169 l 416 1204 z "},"Û":{"ha":1072,"x_min":94,"x_max":974,"o":"m 534 121 q 662 144 614 121 q 736 214 710 168 q 771 331 762 261 q 779 492 779 400 l 779 1086 l 974 1086 l 974 495 q 950 272 974 369 q 873 110 926 176 q 738 10 821 44 q 537 -24 654 -24 q 332 10 416 -24 q 195 110 248 44 q 118 272 142 176 q 94 495 94 369 l 94 1086 l 289 1086 l 289 492 q 299 331 289 400 q 336 214 309 261 q 411 144 363 168 q 534 121 459 121 m 595 1587 l 784 1200 l 645 1174 l 534 1436 l 422 1174 l 284 1200 l 473 1587 l 595 1587 z "},"Ü":{"ha":1072,"x_min":94,"x_max":974,"o":"m 534 121 q 662 144 614 121 q 736 214 710 168 q 771 331 762 261 q 779 492 779 400 l 779 1086 l 974 1086 l 974 495 q 950 272 974 369 q 873 110 926 176 q 738 10 821 44 q 537 -24 654 -24 q 332 10 416 -24 q 195 110 248 44 q 118 272 142 176 q 94 495 94 369 l 94 1086 l 289 1086 l 289 492 q 299 331 289 400 q 336 214 309 261 q 411 144 363 168 q 534 121 459 121 m 217 1271 q 225 1312 217 1293 q 247 1346 233 1331 q 280 1369 261 1360 q 322 1377 300 1377 q 364 1369 345 1377 q 398 1346 384 1360 q 420 1312 412 1331 q 429 1271 429 1293 q 420 1229 429 1249 q 398 1195 412 1210 q 364 1172 384 1181 q 322 1164 345 1164 q 280 1172 299 1164 q 247 1195 260 1181 q 225 1229 233 1210 q 217 1271 217 1249 m 616 1271 q 625 1312 616 1293 q 647 1346 633 1331 q 681 1369 661 1360 q 722 1377 700 1377 q 764 1369 745 1377 q 798 1346 784 1360 q 821 1312 812 1331 q 829 1271 829 1293 q 821 1229 829 1249 q 798 1195 812 1210 q 764 1172 784 1181 q 722 1164 745 1164 q 679 1172 699 1164 q 646 1195 660 1181 q 624 1229 632 1210 q 616 1271 616 1249 z "},"Ý":{"ha":878,"x_min":-5,"x_max":883,"o":"m 688 1086 l 883 1086 l 531 345 l 531 0 l 345 0 l 345 345 l -5 1086 l 190 1086 l 439 545 l 688 1086 m 319 1204 l 444 1626 l 631 1544 l 393 1170 l 319 1204 z "},"Þ":{"ha":961,"x_min":105,"x_max":859,"o":"m 677 594 q 668 698 677 654 q 635 772 658 743 q 574 816 612 802 q 479 830 536 830 q 380 822 427 830 q 294 806 334 813 l 294 393 q 396 375 349 381 q 484 368 444 368 q 519 370 502 368 q 552 374 536 371 q 620 403 595 380 q 657 456 645 425 q 674 524 670 488 q 677 594 677 560 m 444 229 q 294 273 352 229 l 294 -77 l 105 -77 l 105 1086 l 287 1086 l 287 909 q 339 930 311 920 q 397 946 368 939 q 457 956 427 952 q 515 960 487 960 q 530 960 523 960 q 545 959 537 960 q 693 923 633 952 q 790 848 753 895 q 843 738 827 801 q 859 599 859 675 q 835 443 859 512 q 760 327 810 374 q 630 254 709 279 q 444 229 551 229 z "},"ß":{"ha":1025,"x_min":105,"x_max":970,"o":"m 401 503 q 401 519 401 511 q 401 541 401 528 q 401 574 401 554 q 401 623 401 593 q 530 629 477 623 q 617 653 583 635 q 666 708 650 672 q 681 803 681 743 q 670 870 681 842 q 635 917 659 898 q 574 945 612 936 q 482 954 536 954 q 391 938 427 954 q 336 887 356 921 q 308 800 315 852 q 300 675 300 747 l 300 0 l 105 0 l 105 678 q 125 850 105 774 q 190 979 145 926 q 307 1059 235 1031 q 482 1086 378 1086 q 659 1063 588 1086 q 773 1000 730 1039 q 834 909 816 960 q 852 803 852 858 q 840 719 852 758 q 803 649 828 680 q 740 598 779 618 q 650 572 702 578 q 783 542 724 564 q 884 480 842 519 q 948 387 926 441 q 970 259 970 332 q 947 134 970 189 q 884 38 924 79 q 790 -32 844 -3 q 673 -78 736 -60 q 541 -104 610 -96 q 402 -113 471 -113 l 402 39 q 553 55 484 43 q 672 92 622 66 q 751 161 723 117 q 780 273 780 204 q 759 370 780 328 q 693 443 739 413 q 576 488 648 472 q 401 503 504 503 z "},"à":{"ha":838,"x_min":60,"x_max":747,"o":"m 417 693 q 284 674 350 693 q 162 621 218 655 l 110 739 q 180 774 145 759 q 253 800 215 790 q 332 816 290 810 q 421 821 373 821 q 582 799 519 821 q 682 729 645 776 q 733 612 719 683 q 747 447 747 542 l 747 0 l 606 0 l 579 113 q 475 15 534 45 q 334 -16 415 -16 q 220 1 271 -16 q 133 50 169 17 q 79 130 98 82 q 60 242 60 178 q 84 354 60 307 q 152 434 109 402 q 255 481 195 465 q 387 496 315 496 q 451 494 422 496 q 502 487 479 491 q 539 480 524 484 q 562 476 555 477 q 559 567 562 526 q 543 635 556 607 q 500 678 529 663 q 417 693 471 693 m 382 113 q 476 135 433 113 q 562 200 520 157 l 562 381 q 543 383 556 381 q 514 386 530 385 q 480 389 497 388 q 450 391 463 391 q 363 385 401 391 q 299 363 326 378 q 260 322 273 348 q 247 256 247 296 q 283 146 247 179 q 382 113 319 113 m 119 1250 l 310 1331 l 433 907 l 355 872 l 119 1250 z "},"á":{"ha":838,"x_min":60,"x_max":747,"o":"m 417 693 q 284 674 350 693 q 162 621 218 655 l 110 739 q 180 774 145 759 q 253 800 215 790 q 332 816 290 810 q 421 821 373 821 q 582 799 519 821 q 682 729 645 776 q 733 612 719 683 q 747 447 747 542 l 747 0 l 606 0 l 579 113 q 475 15 534 45 q 334 -16 415 -16 q 220 1 271 -16 q 133 50 169 17 q 79 130 98 82 q 60 242 60 178 q 84 354 60 307 q 152 434 109 402 q 255 481 195 465 q 387 496 315 496 q 451 494 422 496 q 502 487 479 491 q 539 480 524 484 q 562 476 555 477 q 559 567 562 526 q 543 635 556 607 q 500 678 529 663 q 417 693 471 693 m 382 113 q 476 135 433 113 q 562 200 520 157 l 562 381 q 543 383 556 381 q 514 386 530 385 q 480 389 497 388 q 450 391 463 391 q 363 385 401 391 q 299 363 326 378 q 260 322 273 348 q 247 256 247 296 q 283 146 247 179 q 382 113 319 113 m 303 918 l 428 1339 l 616 1257 l 377 883 l 303 918 z "},"â":{"ha":838,"x_min":60,"x_max":747,"o":"m 417 693 q 284 674 350 693 q 162 621 218 655 l 110 739 q 180 774 145 759 q 253 800 215 790 q 332 816 290 810 q 421 821 373 821 q 582 799 519 821 q 682 729 645 776 q 733 612 719 683 q 747 447 747 542 l 747 0 l 606 0 l 579 113 q 475 15 534 45 q 334 -16 415 -16 q 220 1 271 -16 q 133 50 169 17 q 79 130 98 82 q 60 242 60 178 q 84 354 60 307 q 152 434 109 402 q 255 481 195 465 q 387 496 315 496 q 451 494 422 496 q 502 487 479 491 q 539 480 524 484 q 562 476 555 477 q 559 567 562 526 q 543 635 556 607 q 500 678 529 663 q 417 693 471 693 m 382 113 q 476 135 433 113 q 562 200 520 157 l 562 381 q 543 383 556 381 q 514 386 530 385 q 480 389 497 388 q 450 391 463 391 q 363 385 401 391 q 299 363 326 378 q 260 322 273 348 q 247 256 247 296 q 283 146 247 179 q 382 113 319 113 m 465 1292 l 654 905 l 515 879 l 404 1141 l 293 879 l 155 905 l 344 1292 l 465 1292 z "},"ã":{"ha":838,"x_min":60,"x_max":747,"o":"m 417 693 q 284 674 350 693 q 162 621 218 655 l 110 739 q 180 774 145 759 q 253 800 215 790 q 332 816 290 810 q 421 821 373 821 q 582 799 519 821 q 682 729 645 776 q 733 612 719 683 q 747 447 747 542 l 747 0 l 606 0 l 579 113 q 475 15 534 45 q 334 -16 415 -16 q 220 1 271 -16 q 133 50 169 17 q 79 130 98 82 q 60 242 60 178 q 84 354 60 307 q 152 434 109 402 q 255 481 195 465 q 387 496 315 496 q 451 494 422 496 q 502 487 479 491 q 539 480 524 484 q 562 476 555 477 q 559 567 562 526 q 543 635 556 607 q 500 678 529 663 q 417 693 471 693 m 382 113 q 476 135 433 113 q 562 200 520 157 l 562 381 q 543 383 556 381 q 514 386 530 385 q 480 389 497 388 q 450 391 463 391 q 363 385 401 391 q 299 363 326 378 q 260 322 273 348 q 247 256 247 296 q 283 146 247 179 q 382 113 319 113 m 558 889 q 509 896 534 889 q 459 912 484 903 q 412 934 435 922 q 368 956 389 946 q 330 972 347 966 q 301 979 313 979 q 271 963 283 979 q 260 900 260 946 l 134 900 q 283 1106 134 1106 q 359 1092 323 1106 q 428 1061 395 1078 q 488 1030 460 1044 q 539 1017 516 1017 q 563 1032 555 1017 q 571 1088 571 1047 l 701 1088 q 663 941 701 993 q 558 889 626 889 z "},"ä":{"ha":838,"x_min":60,"x_max":747,"o":"m 417 693 q 284 674 350 693 q 162 621 218 655 l 110 739 q 180 774 145 759 q 253 800 215 790 q 332 816 290 810 q 421 821 373 821 q 582 799 519 821 q 682 729 645 776 q 733 612 719 683 q 747 447 747 542 l 747 0 l 606 0 l 579 113 q 475 15 534 45 q 334 -16 415 -16 q 220 1 271 -16 q 133 50 169 17 q 79 130 98 82 q 60 242 60 178 q 84 354 60 307 q 152 434 109 402 q 255 481 195 465 q 387 496 315 496 q 451 494 422 496 q 502 487 479 491 q 539 480 524 484 q 562 476 555 477 q 559 567 562 526 q 543 635 556 607 q 500 678 529 663 q 417 693 471 693 m 382 113 q 476 135 433 113 q 562 200 520 157 l 562 381 q 543 383 556 381 q 514 386 530 385 q 480 389 497 388 q 450 391 463 391 q 363 385 401 391 q 299 363 326 378 q 260 322 273 348 q 247 256 247 296 q 283 146 247 179 q 382 113 319 113 m 102 985 q 110 1026 102 1007 q 132 1060 118 1046 q 166 1083 146 1075 q 208 1092 185 1092 q 250 1083 230 1092 q 283 1060 269 1075 q 306 1026 298 1046 q 314 985 314 1007 q 306 944 314 963 q 283 910 298 924 q 250 887 269 895 q 208 878 230 878 q 165 887 184 878 q 132 910 146 895 q 110 944 118 924 q 102 985 102 963 m 502 985 q 510 1026 502 1007 q 532 1060 518 1046 q 566 1083 547 1075 q 608 1092 585 1092 q 650 1083 630 1092 q 684 1060 669 1075 q 706 1026 698 1046 q 714 985 714 1007 q 706 944 714 963 q 684 910 698 924 q 650 887 669 895 q 608 878 630 878 q 565 887 584 878 q 531 910 545 895 q 510 944 517 924 q 502 985 502 963 z "},"å":{"ha":838,"x_min":60,"x_max":747,"o":"m 417 693 q 284 674 350 693 q 162 621 218 655 l 110 739 q 180 774 145 759 q 253 800 215 790 q 332 816 290 810 q 421 821 373 821 q 582 799 519 821 q 682 729 645 776 q 733 612 719 683 q 747 447 747 542 l 747 0 l 606 0 l 579 113 q 475 15 534 45 q 334 -16 415 -16 q 220 1 271 -16 q 133 50 169 17 q 79 130 98 82 q 60 242 60 178 q 84 354 60 307 q 152 434 109 402 q 255 481 195 465 q 387 496 315 496 q 451 494 422 496 q 502 487 479 491 q 539 480 524 484 q 562 476 555 477 q 559 567 562 526 q 543 635 556 607 q 500 678 529 663 q 417 693 471 693 m 382 113 q 476 135 433 113 q 562 200 520 157 l 562 381 q 543 383 556 381 q 514 386 530 385 q 480 389 497 388 q 450 391 463 391 q 363 385 401 391 q 299 363 326 378 q 260 322 273 348 q 247 256 247 296 q 283 146 247 179 q 382 113 319 113 m 313 1081 q 322 1037 313 1057 q 346 1002 330 1017 q 381 978 361 987 q 425 969 401 969 q 469 978 448 969 q 504 1002 489 987 q 528 1037 519 1017 q 537 1081 537 1057 q 528 1125 537 1105 q 504 1161 519 1146 q 468 1185 489 1177 q 425 1194 448 1194 q 380 1185 401 1194 q 345 1161 360 1176 q 322 1125 330 1145 q 313 1081 313 1104 m 425 1282 q 507 1266 469 1282 q 574 1224 545 1251 q 618 1160 602 1197 q 635 1080 635 1123 q 617 1000 635 1036 q 571 937 600 964 q 503 896 542 911 q 422 882 465 882 q 341 897 379 882 q 275 940 303 913 q 231 1004 248 968 q 215 1083 215 1041 q 232 1162 215 1126 q 278 1225 249 1198 q 345 1267 307 1252 q 425 1282 382 1282 z "},"æ":{"ha":1289,"x_min":64,"x_max":1232,"o":"m 1076 467 q 1063 573 1076 530 q 1029 642 1050 616 q 978 679 1007 668 q 916 690 949 690 q 851 678 883 690 q 794 640 819 666 q 753 571 769 613 q 736 467 737 528 l 1076 467 m 1194 61 q 1152 39 1181 52 q 1087 14 1124 26 q 1009 -5 1050 3 q 930 -14 968 -14 q 758 22 828 -14 q 640 136 687 57 q 583 71 616 99 q 511 24 550 43 q 427 -4 471 5 q 336 -14 382 -14 q 134 51 204 -14 q 64 245 64 117 q 89 359 64 311 q 155 437 113 406 q 256 481 197 467 q 383 496 314 496 q 431 494 407 496 q 478 490 456 493 q 522 484 501 488 q 557 476 542 481 q 554 568 557 529 q 536 632 551 606 q 494 669 522 657 q 416 682 466 682 q 331 673 374 682 q 250 653 287 665 q 186 631 212 642 q 153 615 160 620 l 113 736 q 156 759 123 745 q 231 786 188 773 q 323 808 274 799 q 417 818 372 818 q 577 788 516 818 q 666 691 637 758 q 770 787 703 755 q 918 818 837 818 q 1052 792 994 818 q 1151 719 1110 766 q 1212 607 1191 672 q 1232 462 1232 541 q 1232 416 1232 439 q 1230 368 1231 392 l 736 368 q 748 267 737 312 q 783 189 759 221 q 846 138 807 156 q 940 121 884 121 q 1007 127 975 121 q 1067 144 1040 134 q 1117 166 1095 155 q 1149 188 1138 178 l 1194 61 m 243 255 q 278 150 243 183 q 382 116 313 116 q 470 138 427 116 q 557 200 513 159 l 557 381 q 495 388 524 386 q 441 391 467 391 q 346 382 384 391 q 286 356 309 373 q 253 314 262 339 q 243 255 243 288 z "},"ç":{"ha":745,"x_min":60,"x_max":701,"o":"m 438 -16 q 266 18 338 -16 q 148 109 194 52 q 81 240 102 166 q 60 396 60 315 q 85 562 60 484 q 159 697 111 640 q 278 788 208 755 q 440 821 349 821 q 523 815 485 821 q 594 799 562 809 q 653 774 627 788 q 701 745 680 760 l 659 621 q 622 648 644 635 q 574 671 600 661 q 519 687 548 681 q 460 693 490 693 q 359 669 399 690 q 293 611 318 648 q 257 520 268 574 q 247 399 247 467 q 302 184 247 256 q 459 113 357 113 q 572 134 526 113 q 659 188 619 155 l 701 64 q 655 35 681 50 q 597 10 629 21 q 525 -8 564 -1 q 438 -16 486 -16 m 348 -309 q 393 -324 370 -317 q 432 -334 412 -330 q 469 -338 453 -338 q 506 -335 489 -338 q 534 -323 522 -332 q 552 -298 546 -315 q 559 -255 559 -281 q 516 -180 559 -202 q 382 -157 473 -157 l 389 34 l 472 34 l 468 -88 q 539 -97 503 -88 q 605 -125 576 -106 q 653 -177 635 -145 q 671 -255 671 -209 q 624 -383 671 -337 q 485 -429 577 -429 q 437 -425 459 -429 q 397 -415 415 -420 q 367 -404 380 -410 q 348 -397 355 -399 l 348 -309 z "},"è":{"ha":809,"x_min":60,"x_max":753,"o":"m 714 58 q 650 26 684 40 q 582 3 616 13 q 513 -11 547 -6 q 449 -16 479 -16 q 284 13 356 -16 q 162 93 212 41 q 86 220 112 146 q 60 387 60 294 q 83 561 60 481 q 154 698 107 640 q 269 789 200 756 q 427 821 338 821 q 567 796 507 821 q 669 724 628 770 q 732 611 711 677 q 753 465 753 545 q 752 415 753 439 q 750 368 751 391 l 250 368 q 265 254 250 302 q 308 174 280 205 q 375 128 335 143 q 464 113 414 113 q 575 131 527 113 q 670 185 623 149 l 714 58 m 596 479 q 553 638 596 585 q 435 693 511 692 q 355 674 389 692 q 299 625 321 656 q 264 554 276 595 q 250 467 252 513 l 596 467 l 596 479 m 124 1257 l 315 1338 l 438 915 l 360 880 l 124 1257 z "},"é":{"ha":809,"x_min":60,"x_max":753,"o":"m 714 58 q 650 26 684 40 q 582 3 616 13 q 513 -11 547 -6 q 449 -16 479 -16 q 284 13 356 -16 q 162 93 212 41 q 86 220 112 146 q 60 387 60 294 q 83 561 60 481 q 154 698 107 640 q 269 789 200 756 q 427 821 338 821 q 567 796 507 821 q 669 724 628 770 q 732 611 711 677 q 753 465 753 545 q 752 415 753 439 q 750 368 751 391 l 250 368 q 265 254 250 302 q 308 174 280 205 q 375 128 335 143 q 464 113 414 113 q 575 131 527 113 q 670 185 623 149 l 714 58 m 596 479 q 553 638 596 585 q 435 693 511 692 q 355 674 389 692 q 299 625 321 656 q 264 554 276 595 q 250 467 252 513 l 596 467 l 596 479 m 308 925 l 433 1347 l 621 1265 l 382 890 l 308 925 z "},"ê":{"ha":809,"x_min":60,"x_max":753,"o":"m 714 58 q 650 26 684 40 q 582 3 616 13 q 513 -11 547 -6 q 449 -16 479 -16 q 284 13 356 -16 q 162 93 212 41 q 86 220 112 146 q 60 387 60 294 q 83 561 60 481 q 154 698 107 640 q 269 789 200 756 q 427 821 338 821 q 567 796 507 821 q 669 724 628 770 q 732 611 711 677 q 753 465 753 545 q 752 415 753 439 q 750 368 751 391 l 250 368 q 265 254 250 302 q 308 174 280 205 q 375 128 335 143 q 464 113 414 113 q 575 131 527 113 q 670 185 623 149 l 714 58 m 596 479 q 553 638 596 585 q 435 693 511 692 q 355 674 389 692 q 299 625 321 656 q 264 554 276 595 q 250 467 252 513 l 596 467 l 596 479 m 468 1292 l 657 905 l 518 879 l 407 1141 l 296 879 l 157 905 l 347 1292 l 468 1292 z "},"ë":{"ha":809,"x_min":60,"x_max":753,"o":"m 714 58 q 650 26 684 40 q 582 3 616 13 q 513 -11 547 -6 q 449 -16 479 -16 q 284 13 356 -16 q 162 93 212 41 q 86 220 112 146 q 60 387 60 294 q 83 561 60 481 q 154 698 107 640 q 269 789 200 756 q 427 821 338 821 q 567 796 507 821 q 669 724 628 770 q 732 611 711 677 q 753 465 753 545 q 752 415 753 439 q 750 368 751 391 l 250 368 q 265 254 250 302 q 308 174 280 205 q 375 128 335 143 q 464 113 414 113 q 575 131 527 113 q 670 185 623 149 l 714 58 m 596 479 q 553 638 596 585 q 435 693 511 692 q 355 674 389 692 q 299 625 321 656 q 264 554 276 595 q 250 467 252 513 l 596 467 l 596 479 m 108 993 q 116 1034 108 1015 q 138 1068 123 1053 q 171 1091 152 1082 q 213 1099 191 1099 q 255 1091 235 1099 q 289 1068 275 1082 q 311 1034 303 1053 q 319 993 319 1015 q 311 951 319 970 q 289 917 303 932 q 255 894 275 903 q 213 886 235 886 q 171 894 190 886 q 137 917 151 903 q 116 951 123 932 q 108 993 108 970 m 507 993 q 515 1034 507 1015 q 538 1068 524 1053 q 571 1091 552 1082 q 613 1099 591 1099 q 655 1091 635 1099 q 689 1068 675 1082 q 711 1034 703 1053 q 720 993 720 1015 q 711 951 720 970 q 689 917 703 932 q 655 894 675 903 q 613 886 635 886 q 570 894 589 886 q 537 917 551 903 q 515 951 523 932 q 507 993 507 970 z "},"ì":{"ha":437,"x_min":-36,"x_max":319,"o":"m -36 1299 l 155 1380 l 278 956 l 201 922 l -36 1299 m 135 0 l 135 802 l 319 802 l 319 0 l 135 0 z "},"í":{"ha":437,"x_min":95,"x_max":408,"o":"m 95 943 l 220 1364 l 408 1282 l 169 908 l 95 943 m 135 0 l 135 802 l 319 802 l 319 0 l 135 0 z "},"î":{"ha":437,"x_min":-30,"x_max":469,"o":"m 281 1329 l 469 943 l 330 916 l 220 1178 l 109 916 l -30 943 l 159 1329 l 281 1329 m 135 0 l 135 802 l 319 802 l 319 0 l 135 0 z "},"ï":{"ha":437,"x_min":-98,"x_max":513,"o":"m -98 1012 q -91 1054 -98 1034 q -68 1087 -83 1073 q -35 1111 -54 1102 q 7 1119 -16 1119 q 49 1111 29 1119 q 83 1087 68 1102 q 105 1054 97 1073 q 113 1012 113 1034 q 105 970 113 989 q 83 937 97 951 q 49 914 68 922 q 7 905 29 905 q -36 914 -16 905 q -69 937 -55 922 q -91 971 -83 951 q -98 1012 -98 990 m 301 1012 q 309 1054 301 1034 q 332 1087 317 1073 q 365 1111 346 1102 q 407 1119 385 1119 q 449 1111 429 1119 q 483 1087 469 1102 q 505 1054 497 1073 q 513 1012 513 1034 q 505 970 513 989 q 483 937 497 951 q 449 914 469 922 q 407 905 429 905 q 365 914 384 905 q 331 937 345 922 q 309 971 317 951 q 301 1012 301 990 m 135 0 l 135 802 l 319 802 l 319 0 l 135 0 z "},"ð":{"ha":860,"x_min":60,"x_max":791,"o":"m 791 448 q 694 100 791 212 q 411 -12 597 -12 q 253 21 319 -12 q 144 112 186 55 q 80 245 101 170 q 60 407 60 321 q 80 569 60 494 q 141 700 101 644 q 239 786 181 755 q 372 818 298 818 q 445 810 410 818 q 509 788 479 802 q 563 755 539 774 q 604 713 587 736 q 556 820 591 762 q 472 935 522 878 l 311 886 l 281 968 l 404 1006 q 339 1061 371 1036 q 275 1106 308 1086 l 356 1203 q 404 1174 380 1188 q 450 1141 427 1159 q 498 1102 473 1124 q 552 1052 524 1080 l 752 1114 l 781 1031 l 618 981 q 688 875 656 931 q 742 754 720 819 q 778 613 765 688 q 791 448 791 537 m 243 404 q 253 287 243 340 q 283 197 262 235 q 337 139 304 160 q 415 119 369 119 q 492 135 458 119 q 548 183 525 152 q 585 258 571 214 q 603 358 598 302 q 605 439 604 398 q 606 525 606 481 q 577 603 597 572 q 529 653 556 635 q 471 680 502 672 q 413 688 441 688 q 288 620 332 688 q 243 404 243 551 z "},"ñ":{"ha":896,"x_min":103,"x_max":803,"o":"m 275 686 q 320 739 293 714 q 381 782 348 764 q 453 811 415 800 q 530 821 491 821 q 654 800 603 821 q 739 739 706 779 q 788 637 772 698 q 803 498 803 577 l 803 0 l 616 0 l 616 507 q 586 647 616 602 q 484 693 555 693 q 426 684 456 693 q 370 660 396 674 q 322 629 343 646 q 290 597 301 612 l 290 0 l 103 0 l 103 802 l 243 802 l 275 686 m 585 897 q 535 903 560 897 q 486 920 510 910 q 438 942 461 930 q 394 963 415 954 q 357 980 374 973 q 328 987 340 987 q 298 970 309 987 q 286 907 286 954 l 161 907 q 309 1114 161 1114 q 386 1100 349 1114 q 454 1069 422 1086 q 515 1038 487 1052 q 566 1024 543 1024 q 589 1039 581 1024 q 597 1095 597 1055 l 727 1095 q 690 948 727 1000 q 585 897 652 897 z "},"ò":{"ha":877,"x_min":60,"x_max":817,"o":"m 439 106 q 532 129 494 106 q 592 191 570 151 q 625 283 615 231 q 634 396 634 336 q 625 509 634 456 q 592 601 615 562 q 532 664 570 641 q 439 688 494 688 q 346 664 383 688 q 286 601 309 641 q 254 508 263 562 q 244 396 244 455 q 247 331 244 364 q 258 265 250 297 q 279 204 266 233 q 315 153 293 175 q 367 119 336 132 q 439 106 397 106 m 817 396 q 795 234 817 310 q 729 101 774 158 q 612 11 684 44 q 439 -22 541 -22 q 265 11 337 -22 q 148 101 193 44 q 81 234 102 158 q 60 396 60 310 q 81 559 60 483 q 148 693 102 636 q 266 783 194 750 q 438 817 337 817 q 611 783 539 817 q 728 693 682 750 q 795 559 774 636 q 817 396 817 483 m 140 1257 l 330 1338 l 454 915 l 376 880 l 140 1257 z "},"ó":{"ha":877,"x_min":60,"x_max":817,"o":"m 439 106 q 532 129 494 106 q 592 191 570 151 q 625 283 615 231 q 634 396 634 336 q 625 509 634 456 q 592 601 615 562 q 532 664 570 641 q 439 688 494 688 q 346 664 383 688 q 286 601 309 641 q 254 508 263 562 q 244 396 244 455 q 247 331 244 364 q 258 265 250 297 q 279 204 266 233 q 315 153 293 175 q 367 119 336 132 q 439 106 397 106 m 817 396 q 795 234 817 310 q 729 101 774 158 q 612 11 684 44 q 439 -22 541 -22 q 265 11 337 -22 q 148 101 193 44 q 81 234 102 158 q 60 396 60 310 q 81 559 60 483 q 148 693 102 636 q 266 783 194 750 q 438 817 337 817 q 611 783 539 817 q 728 693 682 750 q 795 559 774 636 q 817 396 817 483 m 322 925 l 447 1347 l 635 1265 l 396 890 l 322 925 z "},"ô":{"ha":877,"x_min":58,"x_max":814,"o":"m 437 106 q 530 129 492 106 q 590 191 568 151 q 623 283 613 231 q 632 396 632 336 q 623 509 632 456 q 590 601 613 562 q 530 664 568 641 q 437 688 492 688 q 344 664 381 688 q 284 601 307 641 q 252 508 261 562 q 242 396 242 455 q 245 331 242 364 q 256 265 248 297 q 277 204 264 233 q 313 153 291 175 q 365 119 334 132 q 437 106 395 106 m 814 396 q 793 234 814 310 q 727 101 772 158 q 610 11 682 44 q 437 -22 538 -22 q 263 11 335 -22 q 145 101 191 44 q 79 234 100 158 q 58 396 58 310 q 79 559 58 483 q 146 693 100 636 q 263 783 192 750 q 436 817 335 817 q 609 783 537 817 q 726 693 680 750 q 793 559 772 636 q 814 396 814 483 m 498 1292 l 687 905 l 548 879 l 437 1141 l 326 879 l 187 905 l 376 1292 l 498 1292 z "},"õ":{"ha":877,"x_min":60,"x_max":817,"o":"m 439 106 q 532 129 494 106 q 592 191 570 151 q 625 283 615 231 q 634 396 634 336 q 625 509 634 456 q 592 601 615 562 q 532 664 570 641 q 439 688 494 688 q 346 664 383 688 q 286 601 309 641 q 254 508 263 562 q 244 396 244 455 q 247 331 244 364 q 258 265 250 297 q 279 204 266 233 q 315 153 293 175 q 367 119 336 132 q 439 106 397 106 m 817 396 q 795 234 817 310 q 729 101 774 158 q 612 11 684 44 q 439 -22 541 -22 q 265 11 337 -22 q 148 101 193 44 q 81 234 102 158 q 60 396 60 310 q 81 559 60 483 q 148 693 102 636 q 266 783 194 750 q 438 817 337 817 q 611 783 539 817 q 728 693 682 750 q 795 559 774 636 q 817 396 817 483 m 579 897 q 530 903 555 897 q 480 920 505 910 q 433 942 456 930 q 389 963 410 954 q 351 980 368 973 q 322 987 334 987 q 292 970 304 987 q 281 907 281 954 l 155 907 q 304 1114 155 1114 q 380 1100 344 1114 q 449 1069 416 1086 q 509 1038 481 1052 q 560 1024 537 1024 q 584 1039 576 1024 q 592 1095 592 1055 l 722 1095 q 684 948 722 1000 q 579 897 647 897 z "},"ö":{"ha":877,"x_min":60,"x_max":817,"o":"m 439 106 q 532 129 494 106 q 592 191 570 151 q 625 283 615 231 q 634 396 634 336 q 625 509 634 456 q 592 601 615 562 q 532 664 570 641 q 439 688 494 688 q 346 664 383 688 q 286 601 309 641 q 254 508 263 562 q 244 396 244 455 q 247 331 244 364 q 258 265 250 297 q 279 204 266 233 q 315 153 293 175 q 367 119 336 132 q 439 106 397 106 m 817 396 q 795 234 817 310 q 729 101 774 158 q 612 11 684 44 q 439 -22 541 -22 q 265 11 337 -22 q 148 101 193 44 q 81 234 102 158 q 60 396 60 310 q 81 559 60 483 q 148 693 102 636 q 266 783 194 750 q 438 817 337 817 q 611 783 539 817 q 728 693 682 750 q 795 559 774 636 q 817 396 817 483 m 123 993 q 131 1034 123 1015 q 153 1068 139 1053 q 187 1091 168 1082 q 229 1099 206 1099 q 271 1091 251 1099 q 304 1068 290 1082 q 327 1034 319 1053 q 335 993 335 1015 q 327 951 335 970 q 304 917 319 932 q 271 894 290 903 q 229 886 251 886 q 186 894 205 886 q 153 917 167 903 q 131 951 139 932 q 123 993 123 970 m 523 993 q 531 1034 523 1015 q 553 1068 539 1053 q 587 1091 568 1082 q 629 1099 606 1099 q 671 1091 651 1099 q 705 1068 690 1082 q 727 1034 719 1053 q 735 993 735 1015 q 727 951 735 970 q 705 917 719 932 q 671 894 690 903 q 629 886 651 886 q 586 894 605 886 q 552 917 566 903 q 531 951 538 932 q 523 993 523 970 z "},"÷":{"ha":778,"x_min":109,"x_max":690,"o":"m 296 682 q 303 724 296 705 q 325 758 311 743 q 357 781 338 772 q 399 789 376 789 q 441 781 422 789 q 473 758 460 772 q 495 724 487 744 q 503 682 503 705 q 495 641 503 660 q 474 607 488 621 q 441 584 460 592 q 399 576 422 576 q 357 584 376 576 q 325 607 338 593 q 303 641 311 622 q 296 682 296 661 m 296 208 q 303 250 296 231 q 325 284 311 269 q 358 307 339 298 q 400 315 377 315 q 441 307 422 315 q 474 284 460 298 q 495 250 488 270 q 503 208 503 231 q 495 166 503 186 q 474 133 488 147 q 441 110 460 118 q 400 102 422 102 q 358 110 377 102 q 325 133 338 119 q 303 167 311 148 q 296 208 296 186 m 109 379 l 109 515 l 690 515 l 690 379 l 109 379 z "},"ø":{"ha":877,"x_min":60,"x_max":817,"o":"m 500 690 q 438 699 475 699 q 350 681 389 699 q 284 627 311 663 q 241 536 256 591 q 227 408 227 481 q 235 309 227 353 q 255 233 243 265 q 283 180 268 201 q 315 149 299 159 l 500 690 m 296 -129 l 229 -106 l 271 18 q 112 162 165 64 q 60 400 60 260 q 83 567 60 490 q 155 699 107 644 q 273 786 202 755 q 438 818 344 818 q 489 815 465 818 q 538 807 514 812 l 583 939 l 646 916 l 602 787 q 697 725 656 763 q 764 638 737 687 q 803 529 790 589 q 817 400 817 469 q 793 234 817 310 q 722 104 769 159 q 604 18 675 49 q 438 -12 532 -12 q 338 -2 384 -12 l 296 -129 m 438 105 q 533 127 493 105 q 601 188 574 149 q 640 281 627 227 q 653 401 653 336 q 644 501 653 458 q 622 574 635 543 q 592 624 608 604 q 559 655 575 644 l 377 112 q 438 105 398 105 z "},"ù":{"ha":881,"x_min":91,"x_max":779,"o":"m 276 298 q 283 221 276 254 q 305 164 290 187 q 346 130 321 142 q 407 118 371 118 q 502 136 458 118 q 592 199 546 155 l 592 802 l 779 802 l 779 0 l 645 0 l 609 121 q 573 68 595 93 q 522 24 551 43 q 458 -5 493 5 q 382 -16 423 -16 q 165 62 239 -16 q 91 307 91 140 l 91 802 l 276 802 l 276 298 m 138 1257 l 328 1338 l 452 915 l 374 880 l 138 1257 z "},"ú":{"ha":881,"x_min":91,"x_max":779,"o":"m 276 298 q 283 221 276 254 q 305 164 290 187 q 346 130 321 142 q 407 118 371 118 q 502 136 458 118 q 592 199 546 155 l 592 802 l 779 802 l 779 0 l 645 0 l 609 121 q 573 68 595 93 q 522 24 551 43 q 458 -5 493 5 q 382 -16 423 -16 q 165 62 239 -16 q 91 307 91 140 l 91 802 l 276 802 l 276 298 m 320 925 l 445 1347 l 633 1265 l 394 890 l 320 925 z "},"û":{"ha":881,"x_min":91,"x_max":779,"o":"m 276 298 q 283 221 276 254 q 305 164 290 187 q 346 130 321 142 q 407 118 371 118 q 502 136 458 118 q 592 199 546 155 l 592 802 l 779 802 l 779 0 l 645 0 l 609 121 q 573 68 595 93 q 522 24 551 43 q 458 -5 493 5 q 382 -16 423 -16 q 165 62 239 -16 q 91 307 91 140 l 91 802 l 276 802 l 276 298 m 496 1292 l 686 905 l 547 879 l 435 1141 l 324 879 l 186 905 l 375 1292 l 496 1292 z "},"ü":{"ha":881,"x_min":91,"x_max":779,"o":"m 276 298 q 283 221 276 254 q 305 164 290 187 q 346 130 321 142 q 407 118 371 118 q 502 136 458 118 q 592 199 546 155 l 592 802 l 779 802 l 779 0 l 645 0 l 609 121 q 573 68 595 93 q 522 24 551 43 q 458 -5 493 5 q 382 -16 423 -16 q 165 62 239 -16 q 91 307 91 140 l 91 802 l 276 802 l 276 298 m 121 993 q 129 1034 121 1015 q 151 1068 137 1053 q 185 1091 165 1082 q 227 1099 204 1099 q 269 1091 249 1099 q 302 1068 288 1082 q 325 1034 317 1053 q 333 993 333 1015 q 325 951 333 970 q 302 917 317 932 q 269 894 288 903 q 227 886 249 886 q 184 894 203 886 q 151 917 165 903 q 129 951 137 932 q 121 993 121 970 m 521 993 q 529 1034 521 1015 q 551 1068 537 1053 q 585 1091 566 1082 q 627 1099 604 1099 q 669 1091 649 1099 q 703 1068 688 1082 q 725 1034 717 1053 q 733 993 733 1015 q 725 951 733 970 q 703 917 717 932 q 669 894 688 903 q 627 886 649 886 q 584 894 603 886 q 550 917 564 903 q 529 951 536 932 q 521 993 521 970 z "},"ý":{"ha":794,"x_min":16,"x_max":779,"o":"m 16 802 l 203 802 l 420 215 l 589 802 l 779 802 l 492 -24 q 418 -172 460 -115 q 329 -262 375 -230 q 236 -307 282 -295 q 151 -319 190 -319 l 100 -194 q 191 -173 153 -187 q 256 -134 229 -159 q 303 -71 283 -109 q 338 22 322 -33 l 16 802 m 292 925 l 417 1347 l 605 1265 l 366 890 l 292 925 z "},"þ":{"ha":895,"x_min":103,"x_max":835,"o":"m 650 390 q 642 501 650 448 q 615 595 634 554 q 563 660 595 635 q 481 684 530 684 q 414 675 444 684 q 359 653 383 666 q 318 627 336 640 q 290 604 301 613 l 290 192 q 332 161 309 175 q 382 138 356 148 q 438 123 409 128 q 495 118 467 118 q 553 130 528 118 q 594 163 577 142 q 622 211 612 184 q 639 269 633 239 q 647 330 645 299 q 650 390 650 361 m 505 -12 q 288 78 357 -12 l 288 -307 l 103 -307 l 103 1082 l 286 1082 l 286 704 q 328 750 304 729 q 381 785 352 770 q 443 807 410 799 q 510 814 475 814 q 657 781 595 814 q 758 690 718 747 q 816 556 798 633 q 835 395 835 480 q 813 233 835 307 q 750 103 792 158 q 647 18 709 49 q 505 -12 585 -12 z "},"ÿ":{"ha":794,"x_min":16,"x_max":779,"o":"m 16 802 l 203 802 l 420 215 l 589 802 l 779 802 l 492 -24 q 418 -172 460 -115 q 329 -262 375 -230 q 236 -307 282 -295 q 151 -319 190 -319 l 100 -194 q 191 -173 153 -187 q 256 -134 229 -159 q 303 -71 283 -109 q 338 22 322 -33 l 16 802 m 92 993 q 100 1034 92 1015 q 122 1068 108 1053 q 156 1091 136 1082 q 197 1099 175 1099 q 239 1091 220 1099 q 273 1068 259 1082 q 296 1034 288 1053 q 304 993 304 1015 q 296 951 304 970 q 273 917 288 932 q 239 894 259 903 q 197 886 220 886 q 155 894 174 886 q 122 917 136 903 q 100 951 108 932 q 92 993 92 970 m 492 993 q 500 1034 492 1015 q 522 1068 508 1053 q 556 1091 536 1082 q 597 1099 575 1099 q 640 1091 620 1099 q 673 1068 659 1082 q 696 1034 688 1053 q 704 993 704 1015 q 696 951 704 970 q 673 917 688 932 q 640 894 659 903 q 597 886 620 886 q 554 894 574 886 q 521 917 535 903 q 499 951 507 932 q 492 993 492 970 z "},"Ā":{"ha":1019,"x_min":31,"x_max":988,"o":"m 629 1086 l 988 0 l 791 0 l 711 252 l 308 252 l 228 0 l 31 0 l 388 1086 l 629 1086 m 334 346 l 686 346 l 512 890 l 334 346 m 321 1230 l 321 1367 l 704 1367 l 704 1230 l 321 1230 z "},"ā":{"ha":838,"x_min":60,"x_max":747,"o":"m 417 693 q 284 674 350 693 q 162 621 218 655 l 110 739 q 180 774 145 759 q 253 800 215 790 q 332 816 290 810 q 421 821 373 821 q 582 799 519 821 q 682 729 645 776 q 733 612 719 683 q 747 447 747 542 l 747 0 l 606 0 l 579 113 q 475 15 534 45 q 334 -16 415 -16 q 220 1 271 -16 q 133 50 169 17 q 79 130 98 82 q 60 242 60 178 q 84 354 60 307 q 152 434 109 402 q 255 481 195 465 q 387 496 315 496 q 451 494 422 496 q 502 487 479 491 q 539 480 524 484 q 562 476 555 477 q 559 567 562 526 q 543 635 556 607 q 500 678 529 663 q 417 693 471 693 m 382 113 q 476 135 433 113 q 562 200 520 157 l 562 381 q 543 383 556 381 q 514 386 530 385 q 480 389 497 388 q 450 391 463 391 q 363 385 401 391 q 299 363 326 378 q 260 322 273 348 q 247 256 247 296 q 283 146 247 179 q 382 113 319 113 m 253 935 l 253 1072 l 635 1072 l 635 935 l 253 935 z "},"Ă":{"ha":1019,"x_min":31,"x_max":988,"o":"m 629 1086 l 988 0 l 791 0 l 711 252 l 308 252 l 228 0 l 31 0 l 388 1086 l 629 1086 m 334 346 l 686 346 l 512 890 l 334 346 m 717 1387 q 667 1240 717 1290 q 510 1190 616 1190 q 353 1241 404 1190 q 302 1387 302 1292 l 415 1387 q 438 1306 415 1332 q 510 1280 461 1280 q 582 1306 559 1280 q 604 1387 604 1332 l 717 1387 z "},"ă":{"ha":838,"x_min":60,"x_max":747,"o":"m 417 693 q 284 674 350 693 q 162 621 218 655 l 110 739 q 180 774 145 759 q 253 800 215 790 q 332 816 290 810 q 421 821 373 821 q 582 799 519 821 q 682 729 645 776 q 733 612 719 683 q 747 447 747 542 l 747 0 l 606 0 l 579 113 q 475 15 534 45 q 334 -16 415 -16 q 220 1 271 -16 q 133 50 169 17 q 79 130 98 82 q 60 242 60 178 q 84 354 60 307 q 152 434 109 402 q 255 481 195 465 q 387 496 315 496 q 451 494 422 496 q 502 487 479 491 q 539 480 524 484 q 562 476 555 477 q 559 567 562 526 q 543 635 556 607 q 500 678 529 663 q 417 693 471 693 m 382 113 q 476 135 433 113 q 562 200 520 157 l 562 381 q 543 383 556 381 q 514 386 530 385 q 480 389 497 388 q 450 391 463 391 q 363 385 401 391 q 299 363 326 378 q 260 322 273 348 q 247 256 247 296 q 283 146 247 179 q 382 113 319 113 m 611 1092 q 561 945 611 995 q 404 895 511 895 q 247 946 298 895 q 197 1092 197 997 l 309 1092 q 332 1011 309 1037 q 404 985 355 985 q 476 1011 453 985 q 498 1092 498 1037 l 611 1092 z "},"Ą":{"ha":1019,"x_min":31,"x_max":988,"o":"m 629 1086 l 988 0 l 791 0 l 711 252 l 308 252 l 228 0 l 31 0 l 388 1086 l 629 1086 m 334 346 l 686 346 l 512 890 l 334 346 m 911 -376 q 856 -398 884 -389 q 800 -413 831 -406 q 737 -420 769 -420 q 682 -412 709 -420 q 633 -385 654 -404 q 600 -332 612 -366 q 587 -248 587 -299 q 596 -202 587 -225 q 619 -156 605 -178 q 652 -112 633 -133 q 689 -71 670 -90 q 791 14 734 -27 l 876 14 q 788 -91 827 -41 q 756 -135 772 -113 q 727 -178 740 -157 q 707 -217 715 -199 q 700 -248 700 -235 q 706 -287 700 -272 q 722 -312 712 -302 q 746 -325 732 -321 q 776 -329 760 -329 q 822 -323 798 -329 q 866 -309 846 -317 q 911 -289 889 -300 l 911 -376 z "},"ą":{"ha":838,"x_min":60,"x_max":747,"o":"m 417 693 q 284 674 350 693 q 162 621 218 655 l 110 739 q 180 774 145 759 q 253 800 215 790 q 332 816 290 810 q 421 821 373 821 q 582 799 519 821 q 682 729 645 776 q 733 612 719 683 q 747 447 747 542 l 747 0 l 606 0 l 579 113 q 475 15 534 45 q 334 -16 415 -16 q 220 1 271 -16 q 133 50 169 17 q 79 130 98 82 q 60 242 60 178 q 84 354 60 307 q 152 434 109 402 q 255 481 195 465 q 387 496 315 496 q 451 494 422 496 q 502 487 479 491 q 539 480 524 484 q 562 476 555 477 q 559 567 562 526 q 543 635 556 607 q 500 678 529 663 q 417 693 471 693 m 382 113 q 476 135 433 113 q 562 200 520 157 l 562 381 q 543 383 556 381 q 514 386 530 385 q 480 389 497 388 q 450 391 463 391 q 363 385 401 391 q 299 363 326 378 q 260 322 273 348 q 247 256 247 296 q 283 146 247 179 q 382 113 319 113 m 732 -376 q 677 -398 705 -389 q 621 -413 652 -406 q 558 -420 590 -420 q 503 -412 530 -420 q 454 -385 475 -404 q 421 -332 433 -366 q 408 -248 408 -299 q 417 -202 408 -225 q 440 -156 426 -178 q 473 -112 454 -133 q 510 -71 491 -90 q 612 14 555 -27 l 697 14 q 609 -91 648 -41 q 577 -135 593 -113 q 548 -178 561 -157 q 528 -217 536 -199 q 521 -248 521 -235 q 527 -287 521 -272 q 543 -312 533 -302 q 567 -325 553 -321 q 597 -329 581 -329 q 643 -323 619 -329 q 687 -309 667 -317 q 732 -289 710 -300 l 732 -376 z "},"Ć":{"ha":889,"x_min":71,"x_max":854,"o":"m 267 533 q 284 356 267 433 q 337 227 302 279 q 425 147 372 174 q 552 120 479 120 q 634 128 595 120 q 705 148 673 136 q 763 173 738 159 q 801 195 787 186 l 854 58 q 817 36 845 50 q 747 8 789 22 q 652 -14 705 -5 q 540 -24 599 -24 q 337 14 425 -24 q 190 124 250 52 q 101 300 131 196 q 71 536 71 404 q 82 685 71 613 q 119 820 94 757 q 183 936 144 884 q 273 1026 221 989 q 393 1085 326 1064 q 543 1106 460 1106 q 640 1100 593 1106 q 728 1083 688 1093 q 798 1062 768 1074 q 845 1038 829 1050 l 795 898 q 754 920 779 909 q 700 940 730 931 q 632 956 669 949 q 554 962 595 962 q 425 933 479 962 q 336 849 371 904 q 284 714 300 794 q 267 533 267 635 m 397 1213 l 522 1634 l 709 1552 l 471 1178 l 397 1213 z "},"ć":{"ha":745,"x_min":60,"x_max":701,"o":"m 438 -16 q 266 18 338 -16 q 148 109 194 52 q 81 240 102 166 q 60 396 60 315 q 85 562 60 484 q 159 697 111 640 q 278 788 208 755 q 440 821 349 821 q 523 815 485 821 q 594 799 562 809 q 653 774 627 788 q 701 745 680 760 l 659 621 q 622 648 644 635 q 574 671 600 661 q 519 687 548 681 q 460 693 490 693 q 359 669 399 690 q 293 611 318 648 q 257 520 268 574 q 247 399 247 467 q 302 184 247 256 q 459 113 357 113 q 572 134 526 113 q 659 188 619 155 l 701 64 q 655 35 681 50 q 597 10 629 21 q 525 -8 564 -1 q 438 -16 486 -16 m 315 918 l 439 1339 l 627 1257 l 389 883 l 315 918 z "},"Ĉ":{"ha":889,"x_min":71,"x_max":854,"o":"m 267 533 q 284 356 267 433 q 337 227 302 279 q 425 147 372 174 q 552 120 479 120 q 634 128 595 120 q 705 148 673 136 q 763 173 738 159 q 801 195 787 186 l 854 58 q 817 36 845 50 q 747 8 789 22 q 652 -14 705 -5 q 540 -24 599 -24 q 337 14 425 -24 q 190 124 250 52 q 101 300 131 196 q 71 536 71 404 q 82 685 71 613 q 119 820 94 757 q 183 936 144 884 q 273 1026 221 989 q 393 1085 326 1064 q 543 1106 460 1106 q 640 1100 593 1106 q 728 1083 688 1093 q 798 1062 768 1074 q 845 1038 829 1050 l 795 898 q 754 920 779 909 q 700 940 730 931 q 632 956 669 949 q 554 962 595 962 q 425 933 479 962 q 336 849 371 904 q 284 714 300 794 q 267 533 267 635 m 524 1587 l 713 1200 l 574 1174 l 463 1436 l 352 1174 l 214 1200 l 403 1587 l 524 1587 z "},"ĉ":{"ha":745,"x_min":60,"x_max":701,"o":"m 438 -16 q 266 18 338 -16 q 148 109 194 52 q 81 240 102 166 q 60 396 60 315 q 85 562 60 484 q 159 697 111 640 q 278 788 208 755 q 440 821 349 821 q 523 815 485 821 q 594 799 562 809 q 653 774 627 788 q 701 745 680 760 l 659 621 q 622 648 644 635 q 574 671 600 661 q 519 687 548 681 q 460 693 490 693 q 359 669 399 690 q 293 611 318 648 q 257 520 268 574 q 247 399 247 467 q 302 184 247 256 q 459 113 357 113 q 572 134 526 113 q 659 188 619 155 l 701 64 q 655 35 681 50 q 597 10 629 21 q 525 -8 564 -1 q 438 -16 486 -16 m 442 1292 l 631 905 l 492 879 l 381 1141 l 270 879 l 132 905 l 321 1292 l 442 1292 z "},"Ċ":{"ha":889,"x_min":71,"x_max":854,"o":"m 267 533 q 284 356 267 433 q 337 227 302 279 q 425 147 372 174 q 552 120 479 120 q 634 128 595 120 q 705 148 673 136 q 763 173 738 159 q 801 195 787 186 l 854 58 q 817 36 845 50 q 747 8 789 22 q 652 -14 705 -5 q 540 -24 599 -24 q 337 14 425 -24 q 190 124 250 52 q 101 300 131 196 q 71 536 71 404 q 82 685 71 613 q 119 820 94 757 q 183 936 144 884 q 273 1026 221 989 q 393 1085 326 1064 q 543 1106 460 1106 q 640 1100 593 1106 q 728 1083 688 1093 q 798 1062 768 1074 q 845 1038 829 1050 l 795 898 q 754 920 779 909 q 700 940 730 931 q 632 956 669 949 q 554 962 595 962 q 425 933 479 962 q 336 849 371 904 q 284 714 300 794 q 267 533 267 635 m 342 1436 l 577 1436 l 577 1192 l 342 1192 l 342 1436 z "},"ċ":{"ha":745,"x_min":60,"x_max":701,"o":"m 438 -16 q 266 18 338 -16 q 148 109 194 52 q 81 240 102 166 q 60 396 60 315 q 85 562 60 484 q 159 697 111 640 q 278 788 208 755 q 440 821 349 821 q 523 815 485 821 q 594 799 562 809 q 653 774 627 788 q 701 745 680 760 l 659 621 q 622 648 644 635 q 574 671 600 661 q 519 687 548 681 q 460 693 490 693 q 359 669 399 690 q 293 611 318 648 q 257 520 268 574 q 247 399 247 467 q 302 184 247 256 q 459 113 357 113 q 572 134 526 113 q 659 188 619 155 l 701 64 q 655 35 681 50 q 597 10 629 21 q 525 -8 564 -1 q 438 -16 486 -16 m 260 1141 l 495 1141 l 495 897 l 260 897 l 260 1141 z "},"Č":{"ha":889,"x_min":71,"x_max":854,"o":"m 267 533 q 284 356 267 433 q 337 227 302 279 q 425 147 372 174 q 552 120 479 120 q 634 128 595 120 q 705 148 673 136 q 763 173 738 159 q 801 195 787 186 l 854 58 q 817 36 845 50 q 747 8 789 22 q 652 -14 705 -5 q 540 -24 599 -24 q 337 14 425 -24 q 190 124 250 52 q 101 300 131 196 q 71 536 71 404 q 82 685 71 613 q 119 820 94 757 q 183 936 144 884 q 273 1026 221 989 q 393 1085 326 1064 q 543 1106 460 1106 q 640 1100 593 1106 q 728 1083 688 1093 q 798 1062 768 1074 q 845 1038 829 1050 l 795 898 q 754 920 779 909 q 700 940 730 931 q 632 956 669 949 q 554 962 595 962 q 425 933 479 962 q 336 849 371 904 q 284 714 300 794 q 267 533 267 635 m 403 1181 l 214 1568 l 353 1594 l 464 1332 l 575 1594 l 713 1568 l 524 1181 l 403 1181 z "},"č":{"ha":745,"x_min":60,"x_max":701,"o":"m 438 -16 q 266 18 338 -16 q 148 109 194 52 q 81 240 102 166 q 60 396 60 315 q 85 562 60 484 q 159 697 111 640 q 278 788 208 755 q 440 821 349 821 q 523 815 485 821 q 594 799 562 809 q 653 774 627 788 q 701 745 680 760 l 659 621 q 622 648 644 635 q 574 671 600 661 q 519 687 548 681 q 460 693 490 693 q 359 669 399 690 q 293 611 318 648 q 257 520 268 574 q 247 399 247 467 q 302 184 247 256 q 459 113 357 113 q 572 134 526 113 q 659 188 619 155 l 701 64 q 655 35 681 50 q 597 10 629 21 q 525 -8 564 -1 q 438 -16 486 -16 m 321 886 l 132 1273 l 271 1299 l 382 1037 l 493 1299 l 631 1273 l 442 886 l 321 886 z "},"Ď":{"ha":1048,"x_min":106,"x_max":977,"o":"m 779 542 q 764 718 779 640 q 712 848 749 795 q 615 928 676 901 q 463 956 554 956 l 300 956 l 300 130 l 455 130 q 604 158 543 130 q 705 239 666 186 q 761 368 743 292 q 779 542 779 445 m 977 543 q 950 322 977 422 q 863 151 923 222 q 705 40 802 79 q 467 0 608 0 l 106 0 l 106 1086 l 460 1086 q 847 954 718 1086 q 977 543 977 821 m 481 1181 l 292 1568 l 431 1594 l 542 1332 l 653 1594 l 791 1568 l 602 1181 l 481 1181 z "},"ď":{"ha":1251,"x_min":60,"x_max":1183,"o":"m 243 403 q 255 270 243 325 q 290 180 267 215 q 344 129 312 145 q 415 113 376 113 q 519 134 469 113 q 604 197 568 154 l 604 605 q 505 669 554 645 q 402 693 456 693 q 326 672 356 693 q 277 614 295 652 q 251 522 258 576 q 243 403 243 469 m 368 821 q 500 795 441 821 q 604 713 559 768 l 604 1121 l 791 1150 l 791 0 l 657 0 l 621 119 q 579 65 605 90 q 523 22 554 40 q 456 -5 492 5 q 385 -16 421 -16 q 234 19 296 -16 q 134 114 172 54 q 77 254 95 174 q 60 424 60 334 q 81 577 60 505 q 142 703 102 649 q 239 789 182 758 q 368 821 296 821 m 948 1086 l 1183 1086 l 1183 876 q 1167 788 1183 825 q 1123 724 1151 751 q 1059 679 1096 697 q 981 649 1023 661 l 949 721 q 998 742 978 731 q 1031 768 1019 753 q 1049 800 1044 782 q 1055 842 1055 818 l 948 842 l 948 1086 z "},"Đ":{"ha":1048,"x_min":2,"x_max":977,"o":"m 779 542 q 764 718 779 640 q 712 848 749 795 q 615 928 676 901 q 463 956 554 956 l 300 956 l 300 130 l 455 130 q 604 158 543 130 q 705 239 666 186 q 761 368 743 292 q 779 542 779 445 m 977 543 q 950 322 977 422 q 863 151 923 222 q 705 40 802 79 q 467 0 608 0 l 106 0 l 106 1086 l 460 1086 q 847 954 718 1086 q 977 543 977 821 m 2 509 l 2 646 l 385 646 l 385 509 l 2 509 z "},"đ":{"ha":890,"x_min":60,"x_max":889,"o":"m 243 403 q 255 270 243 325 q 290 180 267 215 q 344 129 312 145 q 415 113 376 113 q 519 134 469 113 q 604 197 568 154 l 604 605 q 505 669 554 645 q 402 693 456 693 q 326 672 356 693 q 277 614 295 652 q 251 522 258 576 q 243 403 243 469 m 368 821 q 500 795 441 821 q 604 713 559 768 l 604 1121 l 791 1150 l 791 0 l 657 0 l 621 119 q 579 65 605 90 q 523 22 554 40 q 456 -5 492 5 q 385 -16 421 -16 q 234 19 296 -16 q 134 114 172 54 q 77 254 95 174 q 60 424 60 334 q 81 577 60 505 q 142 703 102 649 q 239 789 182 758 q 368 821 296 821 m 382 889 l 382 1034 l 889 1034 l 889 889 l 382 889 z "},"Ē":{"ha":859,"x_min":105,"x_max":816,"o":"m 105 0 l 105 1086 l 808 1086 l 808 956 l 300 956 l 300 627 l 743 627 l 743 509 l 300 509 l 300 128 l 816 128 l 816 0 l 105 0 m 273 1230 l 273 1367 l 655 1367 l 655 1230 l 273 1230 z "},"ē":{"ha":809,"x_min":60,"x_max":753,"o":"m 714 58 q 650 26 684 40 q 582 3 616 13 q 513 -11 547 -6 q 449 -16 479 -16 q 284 13 356 -16 q 162 93 212 41 q 86 220 112 146 q 60 387 60 294 q 83 561 60 481 q 154 698 107 640 q 269 789 200 756 q 427 821 338 821 q 567 796 507 821 q 669 724 628 770 q 732 611 711 677 q 753 465 753 545 q 752 415 753 439 q 750 368 751 391 l 250 368 q 265 254 250 302 q 308 174 280 205 q 375 128 335 143 q 464 113 414 113 q 575 131 527 113 q 670 185 623 149 l 714 58 m 596 479 q 553 638 596 585 q 435 693 511 692 q 355 674 389 692 q 299 625 321 656 q 264 554 276 595 q 250 467 252 513 l 596 467 l 596 479 m 218 935 l 218 1072 l 601 1072 l 601 935 l 218 935 z "},"Ė":{"ha":859,"x_min":105,"x_max":816,"o":"m 105 0 l 105 1086 l 808 1086 l 808 956 l 300 956 l 300 627 l 743 627 l 743 509 l 300 509 l 300 128 l 816 128 l 816 0 l 105 0 m 340 1436 l 575 1436 l 575 1192 l 340 1192 l 340 1436 z "},"ė":{"ha":809,"x_min":60,"x_max":753,"o":"m 714 58 q 650 26 684 40 q 582 3 616 13 q 513 -11 547 -6 q 449 -16 479 -16 q 284 13 356 -16 q 162 93 212 41 q 86 220 112 146 q 60 387 60 294 q 83 561 60 481 q 154 698 107 640 q 269 789 200 756 q 427 821 338 821 q 567 796 507 821 q 669 724 628 770 q 732 611 711 677 q 753 465 753 545 q 752 415 753 439 q 750 368 751 391 l 250 368 q 265 254 250 302 q 308 174 280 205 q 375 128 335 143 q 464 113 414 113 q 575 131 527 113 q 670 185 623 149 l 714 58 m 596 479 q 553 638 596 585 q 435 693 511 692 q 355 674 389 692 q 299 625 321 656 q 264 554 276 595 q 250 467 252 513 l 596 467 l 596 479 m 286 1141 l 521 1141 l 521 897 l 286 897 l 286 1141 z "},"Ę":{"ha":859,"x_min":105,"x_max":816,"o":"m 105 0 l 105 1086 l 808 1086 l 808 956 l 300 956 l 300 627 l 743 627 l 743 509 l 300 509 l 300 128 l 816 128 l 816 0 l 105 0 m 652 -376 q 597 -398 626 -389 q 542 -413 573 -406 q 479 -420 511 -420 q 423 -412 450 -420 q 375 -385 396 -404 q 341 -332 354 -366 q 329 -248 329 -299 q 338 -202 329 -225 q 361 -156 347 -178 q 393 -112 375 -133 q 431 -71 412 -90 q 532 14 475 -27 l 618 14 q 530 -91 568 -41 q 497 -135 513 -113 q 469 -178 481 -157 q 449 -217 456 -199 q 441 -248 441 -235 q 448 -287 441 -272 q 464 -312 454 -302 q 488 -325 474 -321 q 517 -329 502 -329 q 564 -323 540 -329 q 608 -309 588 -317 q 652 -289 631 -300 l 652 -376 z "},"ę":{"ha":809,"x_min":60,"x_max":753,"o":"m 714 58 q 650 26 684 40 q 582 3 616 13 q 513 -11 547 -6 q 449 -16 479 -16 q 284 13 356 -16 q 162 93 212 41 q 86 220 112 146 q 60 387 60 294 q 83 561 60 481 q 154 698 107 640 q 269 789 200 756 q 427 821 338 821 q 567 796 507 821 q 669 724 628 770 q 732 611 711 677 q 753 465 753 545 q 752 415 753 439 q 750 368 751 391 l 250 368 q 265 254 250 302 q 308 174 280 205 q 375 128 335 143 q 464 113 414 113 q 575 131 527 113 q 670 185 623 149 l 714 58 m 596 479 q 553 638 596 585 q 435 693 511 692 q 355 674 389 692 q 299 625 321 656 q 264 554 276 595 q 250 467 252 513 l 596 467 l 596 479 m 627 -376 q 572 -398 601 -389 q 517 -413 548 -406 q 454 -420 486 -420 q 398 -412 425 -420 q 350 -385 371 -404 q 316 -332 329 -366 q 304 -248 304 -299 q 313 -202 304 -225 q 336 -156 321 -178 q 368 -112 350 -133 q 406 -71 387 -90 q 507 14 450 -27 l 593 14 q 505 -91 543 -41 q 472 -135 488 -113 q 444 -178 456 -157 q 424 -217 431 -199 q 416 -248 416 -235 q 422 -287 416 -272 q 439 -312 429 -302 q 463 -325 449 -321 q 492 -329 477 -329 q 539 -323 515 -329 q 583 -309 563 -317 q 627 -289 606 -300 l 627 -376 z "},"Ě":{"ha":859,"x_min":105,"x_max":816,"o":"m 105 0 l 105 1086 l 808 1086 l 808 956 l 300 956 l 300 627 l 743 627 l 743 509 l 300 509 l 300 128 l 816 128 l 816 0 l 105 0 m 401 1181 l 212 1568 l 351 1594 l 462 1332 l 573 1594 l 711 1568 l 522 1181 l 401 1181 z "},"ě":{"ha":809,"x_min":60,"x_max":753,"o":"m 714 58 q 650 26 684 40 q 582 3 616 13 q 513 -11 547 -6 q 449 -16 479 -16 q 284 13 356 -16 q 162 93 212 41 q 86 220 112 146 q 60 387 60 294 q 83 561 60 481 q 154 698 107 640 q 269 789 200 756 q 427 821 338 821 q 567 796 507 821 q 669 724 628 770 q 732 611 711 677 q 753 465 753 545 q 752 415 753 439 q 750 368 751 391 l 250 368 q 265 254 250 302 q 308 174 280 205 q 375 128 335 143 q 464 113 414 113 q 575 131 527 113 q 670 185 623 149 l 714 58 m 596 479 q 553 638 596 585 q 435 693 511 692 q 355 674 389 692 q 299 625 321 656 q 264 554 276 595 q 250 467 252 513 l 596 467 l 596 479 m 347 886 l 157 1273 l 296 1299 l 408 1037 l 519 1299 l 657 1273 l 468 886 l 347 886 z "},"Ĝ":{"ha":1048,"x_min":71,"x_max":954,"o":"m 781 460 l 517 460 l 517 582 l 954 582 l 954 0 l 842 0 l 806 116 q 772 60 795 85 q 712 15 748 34 q 629 -14 676 -3 q 523 -24 581 -24 q 330 15 414 -24 q 189 126 246 54 q 101 302 131 198 q 71 535 71 406 q 104 781 71 674 q 201 959 138 887 q 358 1069 265 1031 q 568 1106 450 1106 q 670 1099 623 1106 q 757 1080 717 1092 q 830 1051 798 1067 q 888 1017 863 1035 l 829 885 q 775 914 804 900 q 712 938 745 928 q 642 955 678 949 q 567 962 606 962 q 345 856 422 962 q 268 536 268 751 q 283 366 268 442 q 330 234 298 289 q 415 150 363 180 q 541 121 467 121 q 625 127 585 121 q 695 149 664 134 q 749 186 727 163 q 781 241 771 209 l 781 460 m 573 1587 l 762 1200 l 623 1174 l 512 1436 l 401 1174 l 262 1200 l 452 1587 l 573 1587 z "},"ĝ":{"ha":865,"x_min":71,"x_max":849,"o":"m 393 -200 q 519 -194 468 -200 q 601 -174 570 -189 q 647 -134 633 -159 q 661 -70 661 -109 q 640 -3 661 -26 q 577 31 619 20 q 470 45 535 42 q 317 53 405 49 q 282 28 299 43 q 252 -7 265 12 q 230 -49 239 -26 q 222 -96 222 -72 q 235 -149 222 -129 q 271 -181 248 -170 q 326 -196 294 -192 q 393 -200 357 -200 m 446 414 q 496 430 473 419 q 537 459 519 441 q 565 506 555 478 q 575 572 575 534 q 538 667 575 639 q 425 694 501 694 q 362 688 391 694 q 313 668 333 682 q 281 628 292 653 q 270 564 270 602 q 277 513 270 537 q 297 468 284 488 q 327 431 310 447 q 364 405 345 415 l 446 414 m 682 686 q 720 630 707 655 q 732 577 732 604 q 719 484 732 528 q 675 404 706 439 q 594 342 645 368 q 469 307 544 317 l 244 275 l 256 183 l 448 176 q 615 157 545 172 q 731 112 685 142 q 800 36 777 82 q 822 -75 822 -9 q 793 -198 822 -148 q 709 -280 764 -249 q 574 -326 654 -312 q 393 -340 494 -340 q 152 -285 233 -340 q 71 -104 71 -229 q 81 -44 71 -72 q 111 6 92 -17 q 155 46 130 28 q 208 76 180 64 q 159 92 180 80 q 124 124 138 103 q 103 176 110 145 q 96 252 96 208 q 109 304 96 283 q 144 338 122 325 q 194 360 165 352 q 254 376 223 368 q 197 395 224 380 q 150 435 170 410 q 118 492 130 459 q 106 566 106 526 q 128 672 106 625 q 189 753 149 720 q 286 804 229 786 q 415 821 343 821 q 530 810 480 821 q 614 774 579 799 q 662 794 640 787 q 707 807 684 802 q 758 813 730 811 q 821 814 785 814 l 849 814 l 849 686 l 682 686 m 522 1292 l 711 905 l 572 879 l 460 1141 l 349 879 l 211 905 l 400 1292 l 522 1292 z "},"Ğ":{"ha":1048,"x_min":71,"x_max":954,"o":"m 781 460 l 517 460 l 517 582 l 954 582 l 954 0 l 842 0 l 806 116 q 772 60 795 85 q 712 15 748 34 q 629 -14 676 -3 q 523 -24 581 -24 q 330 15 414 -24 q 189 126 246 54 q 101 302 131 198 q 71 535 71 406 q 104 781 71 674 q 201 959 138 887 q 358 1069 265 1031 q 568 1106 450 1106 q 670 1099 623 1106 q 757 1080 717 1092 q 830 1051 798 1067 q 888 1017 863 1035 l 829 885 q 775 914 804 900 q 712 938 745 928 q 642 955 678 949 q 567 962 606 962 q 345 856 422 962 q 268 536 268 751 q 283 366 268 442 q 330 234 298 289 q 415 150 363 180 q 541 121 467 121 q 625 127 585 121 q 695 149 664 134 q 749 186 727 163 q 781 241 771 209 l 781 460 m 720 1387 q 669 1240 720 1290 q 513 1190 619 1190 q 356 1241 406 1190 q 305 1387 305 1292 l 418 1387 q 441 1306 418 1332 q 513 1280 464 1280 q 584 1306 562 1280 q 607 1387 607 1332 l 720 1387 z "},"ğ":{"ha":865,"x_min":71,"x_max":849,"o":"m 393 -200 q 519 -194 468 -200 q 601 -174 570 -189 q 647 -134 633 -159 q 661 -70 661 -109 q 640 -3 661 -26 q 577 31 619 20 q 470 45 535 42 q 317 53 405 49 q 282 28 299 43 q 252 -7 265 12 q 230 -49 239 -26 q 222 -96 222 -72 q 235 -149 222 -129 q 271 -181 248 -170 q 326 -196 294 -192 q 393 -200 357 -200 m 446 414 q 496 430 473 419 q 537 459 519 441 q 565 506 555 478 q 575 572 575 534 q 538 667 575 639 q 425 694 501 694 q 362 688 391 694 q 313 668 333 682 q 281 628 292 653 q 270 564 270 602 q 277 513 270 537 q 297 468 284 488 q 327 431 310 447 q 364 405 345 415 l 446 414 m 682 686 q 720 630 707 655 q 732 577 732 604 q 719 484 732 528 q 675 404 706 439 q 594 342 645 368 q 469 307 544 317 l 244 275 l 256 183 l 448 176 q 615 157 545 172 q 731 112 685 142 q 800 36 777 82 q 822 -75 822 -9 q 793 -198 822 -148 q 709 -280 764 -249 q 574 -326 654 -312 q 393 -340 494 -340 q 152 -285 233 -340 q 71 -104 71 -229 q 81 -44 71 -72 q 111 6 92 -17 q 155 46 130 28 q 208 76 180 64 q 159 92 180 80 q 124 124 138 103 q 103 176 110 145 q 96 252 96 208 q 109 304 96 283 q 144 338 122 325 q 194 360 165 352 q 254 376 223 368 q 197 395 224 380 q 150 435 170 410 q 118 492 130 459 q 106 566 106 526 q 128 672 106 625 q 189 753 149 720 q 286 804 229 786 q 415 821 343 821 q 530 810 480 821 q 614 774 579 799 q 662 794 640 787 q 707 807 684 802 q 758 813 730 811 q 821 814 785 814 l 849 814 l 849 686 l 682 686 m 667 1092 q 617 945 667 995 q 460 895 567 895 q 303 946 354 895 q 253 1092 253 997 l 366 1092 q 389 1011 366 1037 q 460 985 412 985 q 532 1011 509 985 q 555 1092 555 1037 l 667 1092 z "},"Ġ":{"ha":1048,"x_min":71,"x_max":954,"o":"m 781 460 l 517 460 l 517 582 l 954 582 l 954 0 l 842 0 l 806 116 q 772 60 795 85 q 712 15 748 34 q 629 -14 676 -3 q 523 -24 581 -24 q 330 15 414 -24 q 189 126 246 54 q 101 302 131 198 q 71 535 71 406 q 104 781 71 674 q 201 959 138 887 q 358 1069 265 1031 q 568 1106 450 1106 q 670 1099 623 1106 q 757 1080 717 1092 q 830 1051 798 1067 q 888 1017 863 1035 l 829 885 q 775 914 804 900 q 712 938 745 928 q 642 955 678 949 q 567 962 606 962 q 345 856 422 962 q 268 536 268 751 q 283 366 268 442 q 330 234 298 289 q 415 150 363 180 q 541 121 467 121 q 625 127 585 121 q 695 149 664 134 q 749 186 727 163 q 781 241 771 209 l 781 460 m 392 1436 l 627 1436 l 627 1192 l 392 1192 l 392 1436 z "},"ġ":{"ha":865,"x_min":71,"x_max":849,"o":"m 393 -200 q 519 -194 468 -200 q 601 -174 570 -189 q 647 -134 633 -159 q 661 -70 661 -109 q 640 -3 661 -26 q 577 31 619 20 q 470 45 535 42 q 317 53 405 49 q 282 28 299 43 q 252 -7 265 12 q 230 -49 239 -26 q 222 -96 222 -72 q 235 -149 222 -129 q 271 -181 248 -170 q 326 -196 294 -192 q 393 -200 357 -200 m 446 414 q 496 430 473 419 q 537 459 519 441 q 565 506 555 478 q 575 572 575 534 q 538 667 575 639 q 425 694 501 694 q 362 688 391 694 q 313 668 333 682 q 281 628 292 653 q 270 564 270 602 q 277 513 270 537 q 297 468 284 488 q 327 431 310 447 q 364 405 345 415 l 446 414 m 682 686 q 720 630 707 655 q 732 577 732 604 q 719 484 732 528 q 675 404 706 439 q 594 342 645 368 q 469 307 544 317 l 244 275 l 256 183 l 448 176 q 615 157 545 172 q 731 112 685 142 q 800 36 777 82 q 822 -75 822 -9 q 793 -198 822 -148 q 709 -280 764 -249 q 574 -326 654 -312 q 393 -340 494 -340 q 152 -285 233 -340 q 71 -104 71 -229 q 81 -44 71 -72 q 111 6 92 -17 q 155 46 130 28 q 208 76 180 64 q 159 92 180 80 q 124 124 138 103 q 103 176 110 145 q 96 252 96 208 q 109 304 96 283 q 144 338 122 325 q 194 360 165 352 q 254 376 223 368 q 197 395 224 380 q 150 435 170 410 q 118 492 130 459 q 106 566 106 526 q 128 672 106 625 q 189 753 149 720 q 286 804 229 786 q 415 821 343 821 q 530 810 480 821 q 614 774 579 799 q 662 794 640 787 q 707 807 684 802 q 758 813 730 811 q 821 814 785 814 l 849 814 l 849 686 l 682 686 m 340 1141 l 574 1141 l 574 897 l 340 897 l 340 1141 z "},"Ģ":{"ha":1048,"x_min":71,"x_max":954,"o":"m 781 460 l 517 460 l 517 582 l 954 582 l 954 0 l 842 0 l 806 116 q 772 60 795 85 q 712 15 748 34 q 629 -14 676 -3 q 523 -24 581 -24 q 330 15 414 -24 q 189 126 246 54 q 101 302 131 198 q 71 535 71 406 q 104 781 71 674 q 201 959 138 887 q 358 1069 265 1031 q 568 1106 450 1106 q 670 1099 623 1106 q 757 1080 717 1092 q 830 1051 798 1067 q 888 1017 863 1035 l 829 885 q 775 914 804 900 q 712 938 745 928 q 642 955 678 949 q 567 962 606 962 q 345 856 422 962 q 268 536 268 751 q 283 366 268 442 q 330 234 298 289 q 415 150 363 180 q 541 121 467 121 q 625 127 585 121 q 695 149 664 134 q 749 186 727 163 q 781 241 771 209 l 781 460 m 385 -75 l 619 -75 l 619 -286 q 603 -374 619 -336 q 559 -437 587 -411 q 495 -482 532 -464 q 418 -512 458 -500 l 385 -440 q 435 -419 414 -430 q 468 -393 455 -408 q 486 -361 480 -379 q 491 -319 491 -343 l 385 -319 l 385 -75 z "},"ģ":{"ha":865,"x_min":71,"x_max":849,"o":"m 393 -200 q 519 -194 468 -200 q 601 -174 570 -189 q 647 -134 633 -159 q 661 -70 661 -109 q 640 -3 661 -26 q 577 31 619 20 q 470 45 535 42 q 317 53 405 49 q 282 28 299 43 q 252 -7 265 12 q 230 -49 239 -26 q 222 -96 222 -72 q 235 -149 222 -129 q 271 -181 248 -170 q 326 -196 294 -192 q 393 -200 357 -200 m 446 414 q 496 430 473 419 q 537 459 519 441 q 565 506 555 478 q 575 572 575 534 q 538 667 575 639 q 425 694 501 694 q 362 688 391 694 q 313 668 333 682 q 281 628 292 653 q 270 564 270 602 q 277 513 270 537 q 297 468 284 488 q 327 431 310 447 q 364 405 345 415 l 446 414 m 682 686 q 720 630 707 655 q 732 577 732 604 q 719 484 732 528 q 675 404 706 439 q 594 342 645 368 q 469 307 544 317 l 244 275 l 256 183 l 448 176 q 615 157 545 172 q 731 112 685 142 q 800 36 777 82 q 822 -75 822 -9 q 793 -198 822 -148 q 709 -280 764 -249 q 574 -326 654 -312 q 393 -340 494 -340 q 152 -285 233 -340 q 71 -104 71 -229 q 81 -44 71 -72 q 111 6 92 -17 q 155 46 130 28 q 208 76 180 64 q 159 92 180 80 q 124 124 138 103 q 103 176 110 145 q 96 252 96 208 q 109 304 96 283 q 144 338 122 325 q 194 360 165 352 q 254 376 223 368 q 197 395 224 380 q 150 435 170 410 q 118 492 130 459 q 106 566 106 526 q 128 672 106 625 q 189 753 149 720 q 286 804 229 786 q 415 821 343 821 q 530 810 480 821 q 614 774 579 799 q 662 794 640 787 q 707 807 684 802 q 758 813 730 811 q 821 814 785 814 l 849 814 l 849 686 l 682 686 m 550 956 l 315 956 l 315 1166 q 332 1254 315 1217 q 375 1318 348 1291 q 439 1363 403 1345 q 517 1393 476 1381 l 549 1321 q 499 1299 519 1310 q 467 1274 479 1288 q 449 1242 454 1260 q 444 1200 444 1224 l 550 1200 l 550 956 z "},"Ĥ":{"ha":1077,"x_min":105,"x_max":971,"o":"m 777 505 l 300 505 l 300 0 l 105 0 l 105 1086 l 300 1086 l 300 623 l 777 623 l 777 1086 l 971 1086 l 971 0 l 777 0 l 777 505 m 599 1587 l 788 1200 l 649 1174 l 538 1436 l 427 1174 l 288 1200 l 477 1587 l 599 1587 z "},"ĥ":{"ha":907,"x_min":103,"x_max":829,"o":"m 290 705 q 345 759 317 736 q 402 795 373 781 q 464 815 432 809 q 532 821 496 821 q 668 795 614 821 q 755 721 722 768 q 801 608 787 673 q 814 464 814 542 l 814 0 l 627 0 l 627 472 q 596 638 627 583 q 492 693 564 693 q 421 685 452 693 q 365 665 389 677 q 321 637 340 652 q 290 610 302 623 l 290 0 l 103 0 l 103 1118 l 290 1152 l 290 705 m 640 1227 l 829 840 l 690 814 l 578 1076 l 467 814 l 329 840 l 518 1227 l 640 1227 z "},"Ħ":{"ha":1077,"x_min":45,"x_max":1029,"o":"m 45 798 l 45 935 l 1029 935 l 1029 798 l 45 798 m 777 505 l 300 505 l 300 0 l 105 0 l 105 1086 l 300 1086 l 300 623 l 777 623 l 777 1086 l 971 1086 l 971 0 l 777 0 l 777 505 z "},"ħ":{"ha":907,"x_min":39,"x_max":814,"o":"m 290 705 q 345 759 317 736 q 402 795 373 781 q 464 815 432 809 q 532 821 496 821 q 668 795 614 821 q 755 721 722 768 q 801 608 787 673 q 814 464 814 542 l 814 0 l 627 0 l 627 472 q 596 638 627 583 q 492 693 564 693 q 421 685 452 693 q 365 665 389 677 q 321 637 340 652 q 290 610 302 623 l 290 0 l 103 0 l 103 1118 l 290 1152 l 290 705 m 39 935 l 39 1072 l 421 1072 l 421 935 l 39 935 z "},"Ĩ":{"ha":566,"x_min":2,"x_max":568,"o":"m 189 97 l 189 987 l 60 987 l 60 1086 l 509 1086 l 509 987 l 379 987 l 379 97 l 509 97 l 509 0 l 60 0 l 60 97 l 189 97 m 426 1184 q 376 1191 401 1184 q 327 1207 351 1198 q 279 1229 302 1217 q 236 1251 256 1241 q 198 1267 215 1261 q 169 1274 181 1274 q 139 1258 151 1274 q 127 1195 127 1241 l 2 1195 q 151 1401 2 1401 q 227 1387 191 1401 q 296 1356 263 1373 q 356 1325 328 1339 q 407 1312 384 1312 q 431 1327 422 1312 q 439 1383 439 1342 l 568 1383 q 531 1236 568 1288 q 426 1184 494 1184 z "},"ĩ":{"ha":366,"x_min":-99,"x_max":467,"o":"m 120 793 l 243 793 l 243 0 l 120 0 l 120 793 m 325 871 q 275 878 300 871 q 226 895 250 885 q 178 917 201 905 q 135 938 155 928 q 97 955 114 948 q 68 962 80 962 q 38 945 50 962 q 26 882 26 928 l -99 882 q 50 1088 -99 1088 q 126 1075 90 1088 q 195 1044 162 1061 q 255 1013 227 1027 q 306 999 283 999 q 330 1014 321 999 q 338 1070 338 1029 l 467 1070 q 430 923 467 975 q 325 871 393 871 z "},"Ī":{"ha":566,"x_min":60,"x_max":509,"o":"m 189 97 l 189 987 l 60 987 l 60 1086 l 509 1086 l 509 987 l 379 987 l 379 97 l 509 97 l 509 0 l 60 0 l 60 97 l 189 97 m 97 1230 l 97 1367 l 479 1367 l 479 1230 l 97 1230 z "},"ī":{"ha":366,"x_min":-7,"x_max":375,"o":"m 120 793 l 243 793 l 243 0 l 120 0 l 120 793 m -7 891 l -7 1028 l 375 1028 l 375 891 l -7 891 z "},"Į":{"ha":566,"x_min":60,"x_max":509,"o":"m 189 97 l 189 987 l 60 987 l 60 1086 l 509 1086 l 509 987 l 379 987 l 379 97 l 509 97 l 509 0 l 60 0 l 60 97 l 189 97 m 394 -376 q 339 -398 368 -389 q 283 -413 315 -406 q 220 -420 252 -420 q 165 -412 192 -420 q 117 -385 138 -404 q 83 -332 96 -366 q 71 -248 71 -299 q 79 -202 71 -225 q 102 -156 88 -178 q 135 -112 117 -133 q 172 -71 153 -90 q 274 14 217 -27 l 359 14 q 271 -91 310 -41 q 239 -135 255 -113 q 211 -178 223 -157 q 191 -217 198 -199 q 183 -248 183 -235 q 189 -287 183 -272 q 205 -312 195 -302 q 230 -325 216 -321 q 259 -329 243 -329 q 306 -323 281 -329 q 349 -309 330 -317 q 394 -289 372 -300 l 394 -376 z "},"į":{"ha":409,"x_min":-7,"x_max":317,"o":"m 113 0 l 113 802 l 297 802 l 297 0 l 113 0 m 101 1057 q 109 1099 101 1079 q 132 1133 117 1118 q 165 1155 146 1147 q 205 1164 184 1164 q 247 1155 228 1164 q 281 1132 267 1147 q 303 1098 295 1118 q 311 1057 311 1078 q 303 1015 311 1034 q 280 981 294 995 q 246 958 265 966 q 205 950 227 950 q 163 959 182 950 q 131 982 144 967 q 109 1016 117 996 q 101 1057 101 1035 m 317 -376 q 262 -398 290 -389 q 206 -413 237 -406 q 143 -420 175 -420 q 87 -412 115 -420 q 39 -385 60 -404 q 6 -332 18 -366 q -7 -248 -7 -299 q 2 -202 -7 -225 q 25 -156 11 -178 q 58 -112 39 -133 q 95 -71 76 -90 q 197 14 140 -27 l 282 14 q 194 -91 233 -41 q 162 -135 178 -113 q 133 -178 146 -157 q 113 -217 121 -199 q 106 -248 106 -235 q 112 -287 106 -272 q 128 -312 118 -302 q 152 -325 138 -321 q 182 -329 166 -329 q 228 -323 204 -329 q 272 -309 252 -317 q 317 -289 295 -300 l 317 -376 z "},"İ":{"ha":566,"x_min":60,"x_max":509,"o":"m 189 97 l 189 987 l 60 987 l 60 1086 l 509 1086 l 509 987 l 379 987 l 379 97 l 509 97 l 509 0 l 60 0 l 60 97 l 189 97 m 164 1436 l 399 1436 l 399 1192 l 164 1192 l 164 1436 z "},"ı":{"ha":366,"x_min":120,"x_max":243,"o":"m 120 793 l 243 793 l 243 0 l 120 0 l 120 793 z "},"Ĵ":{"ha":548,"x_min":27,"x_max":568,"o":"m 27 66 q 140 95 96 77 q 207 145 183 114 q 240 224 231 177 q 248 339 248 271 l 248 1086 l 443 1086 l 443 351 q 426 182 443 256 q 366 56 408 108 q 254 -25 324 4 q 77 -61 183 -55 l 27 66 m 378 1587 l 568 1200 l 429 1174 l 317 1436 l 206 1174 l 68 1200 l 257 1587 l 378 1587 z "},"ĵ":{"ha":433,"x_min":-4,"x_max":496,"o":"m 3 -127 q 73 -71 46 -100 q 114 -2 100 -41 q 134 84 129 36 q 140 193 140 132 l 140 802 l 327 802 l 327 123 q 307 -12 327 50 q 250 -121 286 -73 q 165 -202 214 -170 q 58 -248 116 -235 l 3 -127 m 307 1292 l 496 905 l 357 879 l 245 1141 l 134 879 l -4 905 l 185 1292 l 307 1292 z "},"Ķ":{"ha":987,"x_min":105,"x_max":970,"o":"m 300 0 l 105 0 l 105 1086 l 300 1086 l 300 602 l 404 602 l 723 1086 l 928 1086 l 558 547 l 970 0 l 751 0 l 399 488 l 300 488 l 300 0 m 410 -75 l 644 -75 l 644 -286 q 628 -374 644 -336 q 584 -437 612 -411 q 520 -482 557 -464 q 443 -512 484 -500 l 410 -440 q 460 -419 439 -430 q 493 -393 480 -408 q 511 -361 505 -379 q 516 -319 516 -343 l 410 -319 l 410 -75 z "},"ķ":{"ha":886,"x_min":103,"x_max":857,"o":"m 290 0 l 103 0 l 103 1121 l 290 1150 l 290 469 l 633 802 l 842 802 l 476 446 l 857 0 l 644 0 l 361 361 l 290 298 l 290 0 m 353 -75 l 587 -75 l 587 -286 q 571 -374 587 -336 q 527 -437 555 -411 q 463 -482 500 -464 q 386 -512 427 -500 l 353 -440 q 403 -419 382 -430 q 436 -393 423 -408 q 454 -361 448 -379 q 459 -319 459 -343 l 353 -319 l 353 -75 z "},"Ĺ":{"ha":821,"x_min":105,"x_max":791,"o":"m 105 0 l 105 1086 l 300 1086 l 300 130 l 791 130 l 791 0 l 105 0 m 382 1213 l 507 1634 l 694 1552 l 456 1178 l 382 1213 z "},"ĺ":{"ha":408,"x_min":110,"x_max":451,"o":"m 297 0 l 110 0 l 110 1121 l 297 1150 l 297 0 m 138 1215 l 263 1637 l 451 1555 l 212 1181 l 138 1215 z "},"Ļ":{"ha":821,"x_min":105,"x_max":791,"o":"m 105 0 l 105 1086 l 300 1086 l 300 130 l 791 130 l 791 0 l 105 0 m 320 -75 l 555 -75 l 555 -286 q 538 -374 555 -336 q 495 -437 522 -411 q 431 -482 467 -464 q 353 -512 394 -500 l 321 -440 q 370 -419 350 -430 q 403 -393 391 -408 q 421 -361 416 -379 q 427 -319 427 -343 l 320 -319 l 320 -75 z "},"ļ":{"ha":408,"x_min":76,"x_max":311,"o":"m 297 0 l 110 0 l 110 1121 l 297 1150 l 297 0 m 76 -75 l 311 -75 l 311 -286 q 294 -374 311 -336 q 251 -437 278 -411 q 186 -482 223 -464 q 109 -512 150 -500 l 77 -440 q 126 -419 106 -430 q 159 -393 146 -408 q 177 -361 172 -379 q 182 -319 182 -343 l 76 -319 l 76 -75 z "},"Ľ":{"ha":821,"x_min":105,"x_max":791,"o":"m 105 0 l 105 1086 l 300 1086 l 300 130 l 791 130 l 791 0 l 105 0 m 361 1088 l 596 1088 l 596 878 q 580 790 596 827 q 537 726 564 753 q 473 681 509 699 q 395 651 436 663 l 362 723 q 412 744 391 733 q 445 770 432 755 q 463 802 457 784 q 468 844 468 820 l 361 844 l 361 1088 z "},"ľ":{"ha":770,"x_min":110,"x_max":701,"o":"m 297 0 l 110 0 l 110 1121 l 297 1150 l 297 0 m 467 1086 l 701 1086 l 701 876 q 685 788 701 825 q 642 724 669 751 q 578 679 614 697 q 500 649 541 661 l 467 721 q 517 742 496 731 q 550 768 537 753 q 568 800 562 782 q 573 842 573 818 l 467 842 l 467 1086 z "},"Ł":{"ha":821,"x_min":0,"x_max":791,"o":"m 105 0 l 105 1086 l 300 1086 l 300 130 l 791 130 l 791 0 l 105 0 m 0 666 l 404 666 l 404 526 l 0 526 l 0 666 z "},"ł":{"ha":408,"x_min":3,"x_max":407,"o":"m 297 0 l 110 0 l 110 1121 l 297 1150 l 297 0 m 3 529 l 407 529 l 407 389 l 3 389 l 3 529 z "},"Ń":{"ha":1114,"x_min":105,"x_max":1008,"o":"m 790 0 l 286 851 l 286 0 l 105 0 l 105 1086 l 332 1086 l 828 244 l 828 1086 l 1008 1086 l 1008 0 l 790 0 m 490 1213 l 615 1634 l 803 1552 l 564 1178 l 490 1213 z "},"ń":{"ha":896,"x_min":103,"x_max":803,"o":"m 275 686 q 320 739 293 714 q 381 782 348 764 q 453 811 415 800 q 530 821 491 821 q 654 800 603 821 q 739 739 706 779 q 788 637 772 698 q 803 498 803 577 l 803 0 l 616 0 l 616 507 q 586 647 616 602 q 484 693 555 693 q 426 684 456 693 q 370 660 396 674 q 322 629 343 646 q 290 597 301 612 l 290 0 l 103 0 l 103 802 l 243 802 l 275 686 m 387 918 l 512 1339 l 700 1257 l 461 883 l 387 918 z "},"Ņ":{"ha":1114,"x_min":105,"x_max":1008,"o":"m 790 0 l 286 851 l 286 0 l 105 0 l 105 1086 l 332 1086 l 828 244 l 828 1086 l 1008 1086 l 1008 0 l 790 0 m 429 -75 l 663 -75 l 663 -286 q 647 -374 663 -336 q 603 -437 631 -411 q 539 -482 576 -464 q 462 -512 503 -500 l 429 -440 q 479 -419 458 -430 q 512 -393 499 -408 q 530 -361 524 -379 q 535 -319 535 -343 l 429 -319 l 429 -75 z "},"ņ":{"ha":896,"x_min":103,"x_max":803,"o":"m 275 686 q 320 739 293 714 q 381 782 348 764 q 453 811 415 800 q 530 821 491 821 q 654 800 603 821 q 739 739 706 779 q 788 637 772 698 q 803 498 803 577 l 803 0 l 616 0 l 616 507 q 586 647 616 602 q 484 693 555 693 q 426 684 456 693 q 370 660 396 674 q 322 629 343 646 q 290 597 301 612 l 290 0 l 103 0 l 103 802 l 243 802 l 275 686 m 326 -75 l 560 -75 l 560 -286 q 544 -374 560 -336 q 500 -437 528 -411 q 436 -482 473 -464 q 359 -512 399 -500 l 326 -440 q 376 -419 355 -430 q 409 -393 396 -408 q 427 -361 421 -379 q 432 -319 432 -343 l 326 -319 l 326 -75 z "},"Ň":{"ha":1114,"x_min":105,"x_max":1008,"o":"m 790 0 l 286 851 l 286 0 l 105 0 l 105 1086 l 332 1086 l 828 244 l 828 1086 l 1008 1086 l 1008 0 l 790 0 m 496 1181 l 307 1568 l 446 1594 l 557 1332 l 668 1594 l 806 1568 l 617 1181 l 496 1181 z "},"ň":{"ha":896,"x_min":103,"x_max":803,"o":"m 275 686 q 320 739 293 714 q 381 782 348 764 q 453 811 415 800 q 530 821 491 821 q 654 800 603 821 q 739 739 706 779 q 788 637 772 698 q 803 498 803 577 l 803 0 l 616 0 l 616 507 q 586 647 616 602 q 484 693 555 693 q 426 684 456 693 q 370 660 396 674 q 322 629 343 646 q 290 597 301 612 l 290 0 l 103 0 l 103 802 l 243 802 l 275 686 m 393 886 l 204 1273 l 343 1299 l 454 1037 l 566 1299 l 704 1273 l 515 886 l 393 886 z "},"Ŋ":{"ha":1114,"x_min":105,"x_max":1008,"o":"m 592 -296 q 705 -266 661 -285 q 772 -216 748 -248 q 804 -138 796 -184 q 812 -40 810 -104 l 286 851 l 286 0 l 105 0 l 105 1086 l 332 1086 l 828 244 l 828 1086 l 1008 1086 l 1008 -10 q 990 -180 1008 -106 q 931 -306 973 -254 q 819 -387 889 -357 q 642 -422 748 -416 l 592 -296 z "},"ŋ":{"ha":896,"x_min":103,"x_max":803,"o":"m 479 -154 q 549 -97 522 -127 q 591 -29 576 -67 q 611 57 606 9 q 616 166 616 104 l 616 507 q 586 648 616 602 q 484 693 555 693 q 426 684 456 693 q 370 660 396 674 q 322 629 343 646 q 290 597 301 612 l 290 0 l 103 0 l 103 802 l 243 802 l 275 686 q 320 739 293 714 q 381 782 348 764 q 453 811 415 800 q 530 821 491 821 q 654 800 603 821 q 739 739 706 779 q 788 637 772 698 q 803 498 803 577 l 803 96 q 783 -39 803 23 q 726 -149 762 -100 q 641 -229 690 -197 q 534 -275 591 -262 l 479 -154 z "},"Ō":{"ha":1082,"x_min":71,"x_max":1012,"o":"m 1012 549 q 987 322 1012 427 q 908 141 963 218 q 762 20 852 64 q 541 -24 672 -24 q 384 -4 453 -24 q 262 54 315 16 q 174 144 210 91 q 114 261 137 197 q 81 400 92 326 q 71 557 71 475 q 100 787 71 685 q 189 960 130 889 q 336 1068 248 1030 q 541 1105 424 1105 q 746 1068 658 1105 q 894 958 835 1030 q 982 783 953 886 q 1012 549 1012 680 m 267 538 q 282 364 267 441 q 331 233 298 287 q 415 150 363 178 q 541 121 467 121 q 664 148 612 121 q 749 229 715 176 q 799 360 783 282 q 814 538 814 437 q 799 719 814 640 q 750 852 783 798 q 666 934 717 906 q 543 962 614 962 q 418 935 470 962 q 332 853 366 907 q 283 720 298 799 q 267 538 267 641 m 353 1230 l 353 1367 l 736 1367 l 736 1230 l 353 1230 z "},"ō":{"ha":877,"x_min":58,"x_max":814,"o":"m 437 106 q 530 129 492 106 q 590 191 568 151 q 623 283 613 231 q 632 396 632 336 q 623 509 632 456 q 590 601 613 562 q 530 664 568 641 q 437 688 492 688 q 344 664 381 688 q 284 601 307 641 q 252 508 261 562 q 242 396 242 455 q 245 331 242 364 q 256 265 248 297 q 277 204 264 233 q 313 153 291 175 q 365 119 334 132 q 437 106 395 106 m 814 396 q 793 234 814 310 q 727 101 772 158 q 610 11 682 44 q 437 -22 538 -22 q 263 11 335 -22 q 145 101 191 44 q 79 234 100 158 q 58 396 58 310 q 79 559 58 483 q 146 693 100 636 q 263 783 192 750 q 436 817 335 817 q 609 783 537 817 q 726 693 680 750 q 793 559 772 636 q 814 396 814 483 m 248 935 l 248 1072 l 631 1072 l 631 935 l 248 935 z "},"Ő":{"ha":1082,"x_min":71,"x_max":1012,"o":"m 1012 549 q 987 322 1012 427 q 908 141 963 218 q 762 20 852 64 q 541 -24 672 -24 q 384 -4 453 -24 q 262 54 315 16 q 174 144 210 91 q 114 261 137 197 q 81 400 92 326 q 71 557 71 475 q 100 787 71 685 q 189 960 130 889 q 336 1068 248 1030 q 541 1105 424 1105 q 746 1068 658 1105 q 894 958 835 1030 q 982 783 953 886 q 1012 549 1012 680 m 267 538 q 282 364 267 441 q 331 233 298 287 q 415 150 363 178 q 541 121 467 121 q 664 148 612 121 q 749 229 715 176 q 799 360 783 282 q 814 538 814 437 q 799 719 814 640 q 750 852 783 798 q 666 934 717 906 q 543 962 614 962 q 418 935 470 962 q 332 853 366 907 q 283 720 298 799 q 267 538 267 641 m 378 1213 l 503 1634 l 691 1552 l 452 1178 l 378 1213 m 638 1213 l 790 1634 l 978 1552 l 712 1178 l 638 1213 z "},"ő":{"ha":877,"x_min":58,"x_max":873,"o":"m 437 106 q 530 129 492 106 q 590 191 568 151 q 623 283 613 231 q 632 396 632 336 q 623 509 632 456 q 590 601 613 562 q 530 664 568 641 q 437 688 492 688 q 344 664 381 688 q 284 601 307 641 q 252 508 261 562 q 242 396 242 455 q 245 331 242 364 q 256 265 248 297 q 277 204 264 233 q 313 153 291 175 q 365 119 334 132 q 437 106 395 106 m 814 396 q 793 234 814 310 q 727 101 772 158 q 610 11 682 44 q 437 -22 538 -22 q 263 11 335 -22 q 145 101 191 44 q 79 234 100 158 q 58 396 58 310 q 79 559 58 483 q 146 693 100 636 q 263 783 192 750 q 436 817 335 817 q 609 783 537 817 q 726 693 680 750 q 793 559 772 636 q 814 396 814 483 m 274 918 l 399 1339 l 587 1257 l 348 883 l 274 918 m 534 918 l 686 1339 l 873 1257 l 608 883 l 534 918 z "},"Œ":{"ha":1569,"x_min":71,"x_max":1526,"o":"m 816 0 l 816 1086 l 1518 1086 l 1518 956 l 1010 956 l 1010 627 l 1453 627 l 1453 509 l 1010 509 l 1010 128 l 1526 128 l 1526 0 l 816 0 m 1012 549 q 987 322 1012 427 q 908 141 963 218 q 762 20 852 64 q 541 -24 672 -24 q 384 -4 453 -24 q 262 54 315 16 q 174 144 210 91 q 114 261 137 197 q 81 400 92 326 q 71 557 71 475 q 100 787 71 685 q 189 960 130 889 q 336 1068 248 1030 q 541 1105 424 1105 q 746 1068 658 1105 q 894 958 835 1030 q 982 783 953 886 q 1012 549 1012 680 m 267 538 q 282 364 267 441 q 331 233 298 287 q 415 150 363 178 q 541 121 467 121 q 664 148 612 121 q 749 229 715 176 q 799 360 783 282 q 814 538 814 437 q 799 719 814 640 q 750 852 783 798 q 666 934 717 906 q 543 962 614 962 q 418 935 470 962 q 332 853 366 907 q 283 720 298 799 q 267 538 267 641 z "},"œ":{"ha":1385,"x_min":60,"x_max":1328,"o":"m 1172 467 q 1010 693 1172 691 q 933 675 967 692 q 877 629 900 659 q 840 558 853 600 q 825 467 827 517 l 1172 467 m 439 106 q 531 129 494 106 q 591 190 568 151 q 624 281 614 229 q 634 397 634 334 q 624 512 634 458 q 591 604 614 565 q 531 666 568 644 q 439 688 494 688 q 347 666 384 688 q 287 604 310 644 q 254 512 264 565 q 244 397 244 458 q 247 329 244 363 q 258 263 250 295 q 280 202 267 231 q 316 153 294 174 q 368 119 338 132 q 439 106 398 106 m 1289 58 q 1226 26 1259 40 q 1157 3 1192 13 q 1088 -11 1122 -6 q 1025 -16 1055 -16 q 842 23 913 -16 q 730 137 770 62 q 683 66 713 96 q 614 17 653 37 q 531 -13 576 -3 q 439 -22 486 -22 q 275 7 346 -22 q 156 92 204 37 q 84 224 109 147 q 60 395 60 301 q 80 556 60 479 q 146 690 101 632 q 263 782 191 748 q 439 817 336 817 q 532 807 488 817 q 613 778 576 798 q 679 726 650 758 q 726 648 707 694 q 778 726 750 693 q 839 780 806 759 q 913 811 873 801 q 1003 821 954 821 q 1142 797 1081 821 q 1244 725 1202 772 q 1306 613 1285 679 q 1328 465 1328 547 q 1327 415 1328 439 q 1325 368 1326 391 l 825 368 q 841 254 826 302 q 883 174 856 205 q 950 128 911 143 q 1040 113 990 113 q 1151 131 1102 113 q 1245 185 1199 149 l 1289 58 z "},"Ŕ":{"ha":982,"x_min":105,"x_max":903,"o":"m 416 606 q 547 618 492 606 q 635 653 601 629 q 686 711 670 676 q 703 793 703 746 q 679 882 703 850 q 615 931 656 915 q 519 952 574 948 q 401 956 464 956 l 300 956 l 300 606 l 416 606 m 596 545 q 727 517 670 536 q 824 465 785 498 q 883 383 863 432 q 903 268 903 334 l 903 0 l 709 0 l 709 281 q 687 390 709 350 q 625 451 665 431 q 528 478 585 472 q 402 484 471 484 l 300 484 l 300 0 l 105 0 l 105 1086 l 410 1086 q 634 1070 541 1086 q 786 1020 727 1054 q 872 935 845 987 q 899 813 899 884 q 877 693 899 743 q 813 611 854 643 q 718 563 773 578 q 596 545 662 547 m 438 1213 l 563 1634 l 751 1552 l 512 1178 l 438 1213 z "},"ŕ":{"ha":572,"x_min":103,"x_max":572,"o":"m 281 672 q 324 730 301 705 q 373 772 347 755 q 432 798 400 789 q 503 806 464 806 q 546 804 524 806 l 546 649 q 516 655 536 653 q 472 656 496 656 q 377 632 423 656 q 290 573 330 608 l 290 0 l 103 0 l 103 802 l 256 802 l 281 672 m 259 918 l 384 1339 l 572 1257 l 333 883 l 259 918 z "},"Ŗ":{"ha":982,"x_min":105,"x_max":903,"o":"m 416 606 q 547 618 492 606 q 635 653 601 629 q 686 711 670 676 q 703 793 703 746 q 679 882 703 850 q 615 931 656 915 q 519 952 574 948 q 401 956 464 956 l 300 956 l 300 606 l 416 606 m 596 545 q 727 517 670 536 q 824 465 785 498 q 883 383 863 432 q 903 268 903 334 l 903 0 l 709 0 l 709 281 q 687 390 709 350 q 625 451 665 431 q 528 478 585 472 q 402 484 471 484 l 300 484 l 300 0 l 105 0 l 105 1086 l 410 1086 q 634 1070 541 1086 q 786 1020 727 1054 q 872 935 845 987 q 899 813 899 884 q 877 693 899 743 q 813 611 854 643 q 718 563 773 578 q 596 545 662 547 m 376 -75 l 611 -75 l 611 -286 q 595 -374 611 -336 q 551 -437 578 -411 q 487 -482 524 -464 q 410 -512 450 -500 l 377 -440 q 427 -419 406 -430 q 459 -393 447 -408 q 477 -361 472 -379 q 483 -319 483 -343 l 376 -319 l 376 -75 z "},"ŗ":{"ha":572,"x_min":103,"x_max":546,"o":"m 281 672 q 324 730 301 705 q 373 772 347 755 q 432 798 400 789 q 503 806 464 806 q 546 804 524 806 l 546 649 q 516 655 536 653 q 472 656 496 656 q 377 632 423 656 q 290 573 330 608 l 290 0 l 103 0 l 103 802 l 256 802 l 281 672 m 197 -75 l 431 -75 l 431 -286 q 415 -374 431 -336 q 371 -437 399 -411 q 307 -482 344 -464 q 230 -512 271 -500 l 197 -440 q 247 -419 227 -430 q 280 -393 267 -408 q 298 -361 292 -379 q 303 -319 303 -343 l 197 -319 l 197 -75 z "},"Ř":{"ha":982,"x_min":105,"x_max":903,"o":"m 416 606 q 547 618 492 606 q 635 653 601 629 q 686 711 670 676 q 703 793 703 746 q 679 882 703 850 q 615 931 656 915 q 519 952 574 948 q 401 956 464 956 l 300 956 l 300 606 l 416 606 m 596 545 q 727 517 670 536 q 824 465 785 498 q 883 383 863 432 q 903 268 903 334 l 903 0 l 709 0 l 709 281 q 687 390 709 350 q 625 451 665 431 q 528 478 585 472 q 402 484 471 484 l 300 484 l 300 0 l 105 0 l 105 1086 l 410 1086 q 634 1070 541 1086 q 786 1020 727 1054 q 872 935 845 987 q 899 813 899 884 q 877 693 899 743 q 813 611 854 643 q 718 563 773 578 q 596 545 662 547 m 444 1181 l 254 1568 l 393 1594 l 505 1332 l 616 1594 l 754 1568 l 565 1181 l 444 1181 z "},"ř":{"ha":572,"x_min":75,"x_max":575,"o":"m 281 672 q 324 730 301 705 q 373 772 347 755 q 432 798 400 789 q 503 806 464 806 q 546 804 524 806 l 546 649 q 516 655 536 653 q 472 656 496 656 q 377 632 423 656 q 290 573 330 608 l 290 0 l 103 0 l 103 802 l 256 802 l 281 672 m 264 886 l 75 1273 l 214 1299 l 326 1037 l 437 1299 l 575 1273 l 386 886 l 264 886 z "},"Ś":{"ha":891,"x_min":56,"x_max":837,"o":"m 837 298 q 814 171 837 229 q 744 68 792 112 q 621 1 696 25 q 440 -24 545 -24 q 305 -10 368 -24 q 193 21 241 4 q 88 66 136 41 l 121 208 q 136 199 121 206 q 175 183 150 193 q 232 163 199 174 q 301 144 264 153 q 377 129 338 135 q 453 123 416 123 q 534 131 498 123 q 596 157 570 139 q 635 203 621 175 q 649 273 649 232 q 616 374 649 334 q 515 440 583 414 l 282 531 q 193 576 234 550 q 121 636 151 602 q 74 713 91 670 q 56 811 56 757 q 87 945 56 889 q 170 1036 118 1000 q 291 1089 222 1072 q 435 1106 359 1106 q 558 1095 500 1106 q 661 1070 615 1084 q 739 1040 707 1055 q 785 1017 770 1025 l 745 883 q 704 904 733 890 q 636 930 675 917 q 551 952 597 943 q 458 962 505 962 q 370 955 410 962 q 302 933 330 949 q 257 891 273 918 q 241 825 241 865 q 247 790 241 807 q 264 758 252 773 q 297 729 276 743 q 349 703 317 715 l 580 616 q 683 566 635 595 q 764 498 730 537 q 818 409 798 459 q 837 298 837 359 m 380 1213 l 505 1634 l 693 1552 l 454 1178 l 380 1213 z "},"ś":{"ha":712,"x_min":58,"x_max":662,"o":"m 230 382 q 163 413 195 395 q 109 456 132 431 q 72 517 85 481 q 58 600 58 552 q 81 694 58 653 q 142 764 103 736 q 236 807 182 792 q 353 821 290 821 q 451 812 403 821 q 538 790 499 802 q 603 765 577 777 q 636 747 629 753 l 592 627 q 557 646 582 635 q 499 668 532 657 q 431 686 467 678 q 360 693 394 693 q 298 686 324 693 q 255 667 272 679 q 231 638 239 654 q 223 602 223 621 q 229 574 223 586 q 245 552 234 562 q 272 534 256 543 q 310 518 288 526 l 437 471 q 532 429 490 452 q 602 377 573 406 q 647 313 631 349 q 662 231 662 277 q 641 127 662 173 q 579 50 619 81 q 484 1 540 18 q 358 -16 428 -16 q 249 -6 300 -16 q 160 18 199 5 q 95 44 121 31 q 63 62 70 57 l 107 185 q 140 167 115 179 q 201 143 166 155 q 274 122 235 131 q 348 113 313 113 q 401 118 375 113 q 446 136 427 123 q 478 169 466 149 q 490 222 490 190 q 462 281 490 258 q 387 323 434 305 l 230 382 m 295 918 l 420 1339 l 608 1257 l 369 883 l 295 918 z "},"Ŝ":{"ha":891,"x_min":56,"x_max":837,"o":"m 837 298 q 814 171 837 229 q 744 68 792 112 q 621 1 696 25 q 440 -24 545 -24 q 305 -10 368 -24 q 193 21 241 4 q 88 66 136 41 l 121 208 q 136 199 121 206 q 175 183 150 193 q 232 163 199 174 q 301 144 264 153 q 377 129 338 135 q 453 123 416 123 q 534 131 498 123 q 596 157 570 139 q 635 203 621 175 q 649 273 649 232 q 616 374 649 334 q 515 440 583 414 l 282 531 q 193 576 234 550 q 121 636 151 602 q 74 713 91 670 q 56 811 56 757 q 87 945 56 889 q 170 1036 118 1000 q 291 1089 222 1072 q 435 1106 359 1106 q 558 1095 500 1106 q 661 1070 615 1084 q 739 1040 707 1055 q 785 1017 770 1025 l 745 883 q 704 904 733 890 q 636 930 675 917 q 551 952 597 943 q 458 962 505 962 q 370 955 410 962 q 302 933 330 949 q 257 891 273 918 q 241 825 241 865 q 247 790 241 807 q 264 758 252 773 q 297 729 276 743 q 349 703 317 715 l 580 616 q 683 566 635 595 q 764 498 730 537 q 818 409 798 459 q 837 298 837 359 m 508 1587 l 697 1200 l 558 1174 l 447 1436 l 336 1174 l 197 1200 l 387 1587 l 508 1587 z "},"ŝ":{"ha":712,"x_min":58,"x_max":662,"o":"m 230 382 q 163 413 195 395 q 109 456 132 431 q 72 517 85 481 q 58 600 58 552 q 81 694 58 653 q 142 764 103 736 q 236 807 182 792 q 353 821 290 821 q 451 812 403 821 q 538 790 499 802 q 603 765 577 777 q 636 747 629 753 l 592 627 q 557 646 582 635 q 499 668 532 657 q 431 686 467 678 q 360 693 394 693 q 298 686 324 693 q 255 667 272 679 q 231 638 239 654 q 223 602 223 621 q 229 574 223 586 q 245 552 234 562 q 272 534 256 543 q 310 518 288 526 l 437 471 q 532 429 490 452 q 602 377 573 406 q 647 313 631 349 q 662 231 662 277 q 641 127 662 173 q 579 50 619 81 q 484 1 540 18 q 358 -16 428 -16 q 249 -6 300 -16 q 160 18 199 5 q 95 44 121 31 q 63 62 70 57 l 107 185 q 140 167 115 179 q 201 143 166 155 q 274 122 235 131 q 348 113 313 113 q 401 118 375 113 q 446 136 427 123 q 478 169 466 149 q 490 222 490 190 q 462 281 490 258 q 387 323 434 305 l 230 382 m 422 1292 l 611 905 l 472 879 l 361 1141 l 250 879 l 111 905 l 300 1292 l 422 1292 z "},"Ş":{"ha":891,"x_min":56,"x_max":837,"o":"m 837 298 q 814 171 837 229 q 744 68 792 112 q 621 1 696 25 q 440 -24 545 -24 q 305 -10 368 -24 q 193 21 241 4 q 88 66 136 41 l 121 208 q 136 199 121 206 q 175 183 150 193 q 232 163 199 174 q 301 144 264 153 q 377 129 338 135 q 453 123 416 123 q 534 131 498 123 q 596 157 570 139 q 635 203 621 175 q 649 273 649 232 q 616 374 649 334 q 515 440 583 414 l 282 531 q 193 576 234 550 q 121 636 151 602 q 74 713 91 670 q 56 811 56 757 q 87 945 56 889 q 170 1036 118 1000 q 291 1089 222 1072 q 435 1106 359 1106 q 558 1095 500 1106 q 661 1070 615 1084 q 739 1040 707 1055 q 785 1017 770 1025 l 745 883 q 704 904 733 890 q 636 930 675 917 q 551 952 597 943 q 458 962 505 962 q 370 955 410 962 q 302 933 330 949 q 257 891 273 918 q 241 825 241 865 q 247 790 241 807 q 264 758 252 773 q 297 729 276 743 q 349 703 317 715 l 580 616 q 683 566 635 595 q 764 498 730 537 q 818 409 798 459 q 837 298 837 359 m 414 -309 q 458 -324 436 -317 q 498 -334 477 -330 q 534 -338 519 -338 q 571 -335 555 -338 q 600 -323 588 -332 q 618 -298 612 -315 q 625 -255 625 -281 q 582 -180 625 -202 q 448 -157 539 -157 l 455 34 l 538 34 l 534 -88 q 605 -97 569 -88 q 671 -125 642 -106 q 719 -177 701 -145 q 737 -255 737 -209 q 690 -383 737 -337 q 551 -429 643 -429 q 503 -425 525 -429 q 463 -415 481 -420 q 433 -404 446 -410 q 414 -397 420 -399 l 414 -309 z "},"ş":{"ha":712,"x_min":58,"x_max":662,"o":"m 230 382 q 163 413 195 395 q 109 456 132 431 q 72 517 85 481 q 58 600 58 552 q 81 694 58 653 q 142 764 103 736 q 236 807 182 792 q 353 821 290 821 q 451 812 403 821 q 538 790 499 802 q 603 765 577 777 q 636 747 629 753 l 592 627 q 557 646 582 635 q 499 668 532 657 q 431 686 467 678 q 360 693 394 693 q 298 686 324 693 q 255 667 272 679 q 231 638 239 654 q 223 602 223 621 q 229 574 223 586 q 245 552 234 562 q 272 534 256 543 q 310 518 288 526 l 437 471 q 532 429 490 452 q 602 377 573 406 q 647 313 631 349 q 662 231 662 277 q 641 127 662 173 q 579 50 619 81 q 484 1 540 18 q 358 -16 428 -16 q 249 -6 300 -16 q 160 18 199 5 q 95 44 121 31 q 63 62 70 57 l 107 185 q 140 167 115 179 q 201 143 166 155 q 274 122 235 131 q 348 113 313 113 q 401 118 375 113 q 446 136 427 123 q 478 169 466 149 q 490 222 490 190 q 462 281 490 258 q 387 323 434 305 l 230 382 m 328 -309 q 372 -324 350 -317 q 412 -334 391 -330 q 448 -338 433 -338 q 485 -335 469 -338 q 514 -323 502 -332 q 532 -298 526 -315 q 538 -255 538 -281 q 496 -180 538 -202 q 362 -157 453 -157 l 369 34 l 452 34 l 448 -88 q 519 -97 483 -88 q 585 -125 555 -106 q 633 -177 614 -145 q 651 -255 651 -209 q 604 -383 651 -337 q 465 -429 557 -429 q 417 -425 439 -429 q 377 -415 395 -420 q 347 -404 359 -410 q 328 -397 334 -399 l 328 -309 z "},"Š":{"ha":891,"x_min":56,"x_max":837,"o":"m 837 298 q 814 171 837 229 q 744 68 792 112 q 621 1 696 25 q 440 -24 545 -24 q 305 -10 368 -24 q 193 21 241 4 q 88 66 136 41 l 121 208 q 136 199 121 206 q 175 183 150 193 q 232 163 199 174 q 301 144 264 153 q 377 129 338 135 q 453 123 416 123 q 534 131 498 123 q 596 157 570 139 q 635 203 621 175 q 649 273 649 232 q 616 374 649 334 q 515 440 583 414 l 282 531 q 193 576 234 550 q 121 636 151 602 q 74 713 91 670 q 56 811 56 757 q 87 945 56 889 q 170 1036 118 1000 q 291 1089 222 1072 q 435 1106 359 1106 q 558 1095 500 1106 q 661 1070 615 1084 q 739 1040 707 1055 q 785 1017 770 1025 l 745 883 q 704 904 733 890 q 636 930 675 917 q 551 952 597 943 q 458 962 505 962 q 370 955 410 962 q 302 933 330 949 q 257 891 273 918 q 241 825 241 865 q 247 790 241 807 q 264 758 252 773 q 297 729 276 743 q 349 703 317 715 l 580 616 q 683 566 635 595 q 764 498 730 537 q 818 409 798 459 q 837 298 837 359 m 392 1183 l 203 1570 l 342 1596 l 453 1334 l 564 1596 l 703 1570 l 513 1183 l 392 1183 z "},"š":{"ha":732,"x_min":68,"x_max":671,"o":"m 239 382 q 173 413 204 395 q 118 456 142 431 q 81 517 95 481 q 68 600 68 552 q 90 694 68 653 q 152 764 113 736 q 245 807 191 792 q 362 821 299 821 q 460 812 412 821 q 548 790 509 802 q 613 765 587 777 q 646 747 639 753 l 602 627 q 566 646 591 635 q 509 668 541 657 q 440 686 477 678 q 370 693 404 693 q 308 686 334 693 q 265 667 281 679 q 240 638 248 654 q 233 602 233 621 q 238 574 233 586 q 254 552 243 562 q 281 534 265 543 q 319 518 298 526 l 447 471 q 541 429 500 452 q 612 377 583 406 q 656 313 641 349 q 671 231 671 277 q 650 127 671 173 q 589 50 629 81 q 493 1 549 18 q 368 -16 437 -16 q 259 -6 309 -16 q 169 18 208 5 q 105 44 130 31 q 73 62 79 57 l 117 185 q 150 167 124 179 q 210 143 176 155 q 284 122 245 131 q 357 113 323 113 q 410 118 385 113 q 456 136 436 123 q 487 169 475 149 q 499 222 499 190 q 471 281 499 258 q 397 323 444 305 l 239 382 m 305 894 l 116 1280 l 255 1307 l 366 1044 l 477 1307 l 616 1280 l 427 894 l 305 894 z "},"Ţ":{"ha":827,"x_min":18,"x_max":806,"o":"m 511 956 l 511 0 l 316 0 l 316 956 l 18 956 l 18 1086 l 806 1086 l 806 956 l 511 956 m 284 -75 l 519 -75 l 519 -286 q 503 -374 519 -336 q 459 -437 486 -411 q 395 -482 431 -464 q 317 -512 358 -500 l 285 -440 q 334 -419 314 -430 q 367 -393 355 -408 q 385 -361 380 -379 q 391 -319 391 -343 l 284 -319 l 284 -75 z "},"ţ":{"ha":608,"x_min":6,"x_max":586,"o":"m 361 -16 q 258 4 300 -16 q 191 63 216 23 q 153 163 165 102 q 142 307 142 224 l 142 715 l 6 715 l 6 802 l 154 802 l 154 1075 l 328 1120 l 328 802 l 555 802 l 555 715 l 328 715 l 328 246 q 345 145 328 178 q 407 113 362 113 q 464 127 433 113 q 534 165 496 142 l 586 50 q 545 27 568 39 q 494 6 522 16 q 432 -9 465 -3 q 361 -16 399 -16 m 233 -75 l 468 -75 l 468 -286 q 452 -374 468 -336 q 408 -437 435 -411 q 344 -482 380 -464 q 267 -512 307 -500 l 234 -440 q 283 -419 263 -430 q 316 -393 304 -408 q 334 -361 329 -379 q 340 -319 340 -343 l 233 -319 l 233 -75 z "},"Ť":{"ha":827,"x_min":18,"x_max":806,"o":"m 511 956 l 511 0 l 316 0 l 316 956 l 18 956 l 18 1086 l 806 1086 l 806 956 l 511 956 m 352 1181 l 163 1568 l 302 1594 l 413 1332 l 524 1594 l 663 1568 l 473 1181 l 352 1181 z "},"ť":{"ha":969,"x_min":6,"x_max":901,"o":"m 361 -16 q 258 4 300 -16 q 191 63 216 23 q 153 163 165 102 q 142 307 142 224 l 142 715 l 6 715 l 6 802 l 154 802 l 154 1075 l 328 1120 l 328 802 l 555 802 l 555 715 l 328 715 l 328 246 q 345 145 328 178 q 407 113 362 113 q 464 127 433 113 q 534 165 496 142 l 586 50 q 545 27 568 39 q 494 6 522 16 q 432 -9 465 -3 q 361 -16 399 -16 m 666 1086 l 901 1086 l 901 876 q 885 788 901 825 q 841 724 869 751 q 777 679 814 697 q 699 649 741 661 l 667 721 q 716 742 696 731 q 749 768 736 753 q 767 800 762 782 q 772 842 772 818 l 666 842 l 666 1086 z "},"Ŧ":{"ha":827,"x_min":18,"x_max":806,"o":"m 511 956 l 511 0 l 316 0 l 316 956 l 18 956 l 18 1086 l 806 1086 l 806 956 l 511 956 m 224 496 l 224 633 l 606 633 l 606 496 l 224 496 z "},"ŧ":{"ha":608,"x_min":6,"x_max":586,"o":"m 361 -16 q 258 4 300 -16 q 191 63 216 23 q 153 163 165 102 q 142 307 142 224 l 142 715 l 6 715 l 6 802 l 154 802 l 154 1075 l 328 1120 l 328 802 l 555 802 l 555 715 l 328 715 l 328 246 q 345 145 328 178 q 407 113 362 113 q 464 127 433 113 q 534 165 496 142 l 586 50 q 545 27 568 39 q 494 6 522 16 q 432 -9 465 -3 q 361 -16 399 -16 m 54 456 l 54 593 l 436 593 l 436 456 l 54 456 z "},"Ũ":{"ha":1072,"x_min":94,"x_max":974,"o":"m 534 121 q 662 144 614 121 q 736 214 710 168 q 771 331 762 261 q 779 492 779 400 l 779 1086 l 974 1086 l 974 495 q 950 272 974 369 q 873 110 926 176 q 738 10 821 44 q 537 -24 654 -24 q 332 10 416 -24 q 195 110 248 44 q 118 272 142 176 q 94 495 94 369 l 94 1086 l 289 1086 l 289 492 q 299 331 289 400 q 336 214 309 261 q 411 144 363 168 q 534 121 459 121 m 675 1184 q 625 1191 650 1184 q 576 1207 600 1198 q 528 1229 551 1217 q 485 1251 505 1241 q 447 1267 464 1261 q 418 1274 430 1274 q 388 1258 399 1274 q 376 1195 376 1241 l 251 1195 q 399 1401 251 1401 q 476 1387 439 1401 q 545 1356 512 1373 q 605 1325 577 1339 q 656 1312 633 1312 q 680 1327 671 1312 q 688 1383 688 1342 l 817 1383 q 780 1236 817 1288 q 675 1184 743 1184 z "},"ũ":{"ha":881,"x_min":91,"x_max":779,"o":"m 276 298 q 283 221 276 254 q 305 164 290 187 q 346 130 321 142 q 407 118 371 118 q 502 136 458 118 q 592 199 546 155 l 592 802 l 779 802 l 779 0 l 645 0 l 609 121 q 573 68 595 93 q 522 24 551 43 q 458 -5 493 5 q 382 -16 423 -16 q 165 62 239 -16 q 91 307 91 140 l 91 802 l 276 802 l 276 298 m 576 889 q 527 896 552 889 q 477 912 502 903 q 430 934 453 922 q 386 956 407 946 q 349 972 366 966 q 319 979 332 979 q 290 963 301 979 q 278 900 278 946 l 153 900 q 301 1106 153 1106 q 377 1092 341 1106 q 446 1061 414 1078 q 507 1030 479 1044 q 557 1017 534 1017 q 581 1032 573 1017 q 589 1088 589 1047 l 719 1088 q 682 941 719 993 q 576 889 644 889 z "},"Ū":{"ha":1072,"x_min":94,"x_max":974,"o":"m 534 121 q 662 144 614 121 q 736 214 710 168 q 771 331 762 261 q 779 492 779 400 l 779 1086 l 974 1086 l 974 495 q 950 272 974 369 q 873 110 926 176 q 738 10 821 44 q 537 -24 654 -24 q 332 10 416 -24 q 195 110 248 44 q 118 272 142 176 q 94 495 94 369 l 94 1086 l 289 1086 l 289 492 q 299 331 289 400 q 336 214 309 261 q 411 144 363 168 q 534 121 459 121 m 346 1230 l 346 1367 l 728 1367 l 728 1230 l 346 1230 z "},"ū":{"ha":881,"x_min":91,"x_max":779,"o":"m 276 298 q 283 221 276 254 q 305 164 290 187 q 346 130 321 142 q 407 118 371 118 q 502 136 458 118 q 592 199 546 155 l 592 802 l 779 802 l 779 0 l 645 0 l 609 121 q 573 68 595 93 q 522 24 551 43 q 458 -5 493 5 q 382 -16 423 -16 q 165 62 239 -16 q 91 307 91 140 l 91 802 l 276 802 l 276 298 m 247 935 l 247 1072 l 629 1072 l 629 935 l 247 935 z "},"Ŭ":{"ha":1072,"x_min":94,"x_max":974,"o":"m 534 121 q 662 144 614 121 q 736 214 710 168 q 771 331 762 261 q 779 492 779 400 l 779 1086 l 974 1086 l 974 495 q 950 272 974 369 q 873 110 926 176 q 738 10 821 44 q 537 -24 654 -24 q 332 10 416 -24 q 195 110 248 44 q 118 272 142 176 q 94 495 94 369 l 94 1086 l 289 1086 l 289 492 q 299 331 289 400 q 336 214 309 261 q 411 144 363 168 q 534 121 459 121 m 741 1387 q 691 1240 741 1290 q 534 1190 641 1190 q 377 1241 428 1190 q 327 1387 327 1292 l 439 1387 q 463 1306 439 1332 q 534 1280 486 1280 q 606 1306 583 1280 q 629 1387 629 1332 l 741 1387 z "},"ŭ":{"ha":881,"x_min":91,"x_max":779,"o":"m 276 298 q 283 221 276 254 q 305 164 290 187 q 346 130 321 142 q 407 118 371 118 q 502 136 458 118 q 592 199 546 155 l 592 802 l 779 802 l 779 0 l 645 0 l 609 121 q 573 68 595 93 q 522 24 551 43 q 458 -5 493 5 q 382 -16 423 -16 q 165 62 239 -16 q 91 307 91 140 l 91 802 l 276 802 l 276 298 m 642 1092 q 592 945 642 995 q 435 895 542 895 q 278 946 329 895 q 228 1092 228 997 l 340 1092 q 363 1011 340 1037 q 435 985 387 985 q 507 1011 484 985 q 530 1092 530 1037 l 642 1092 z "},"Ů":{"ha":1072,"x_min":94,"x_max":974,"o":"m 534 121 q 662 144 614 121 q 736 214 710 168 q 771 331 762 261 q 779 492 779 400 l 779 1086 l 974 1086 l 974 495 q 950 272 974 369 q 873 110 926 176 q 738 10 821 44 q 537 -24 654 -24 q 332 10 416 -24 q 195 110 248 44 q 118 272 142 176 q 94 495 94 369 l 94 1086 l 289 1086 l 289 492 q 299 331 289 400 q 336 214 309 261 q 411 144 363 168 q 534 121 459 121 m 422 1376 q 431 1332 422 1352 q 455 1297 439 1312 q 490 1273 470 1282 q 534 1264 510 1264 q 578 1273 557 1264 q 613 1297 598 1282 q 637 1332 629 1312 q 646 1376 646 1352 q 637 1420 646 1400 q 613 1456 629 1441 q 577 1480 598 1472 q 534 1489 557 1489 q 490 1480 510 1489 q 454 1456 469 1471 q 431 1420 439 1440 q 422 1376 422 1399 m 534 1577 q 616 1561 578 1577 q 683 1519 654 1546 q 728 1455 711 1492 q 744 1375 744 1418 q 727 1295 744 1331 q 680 1232 709 1259 q 612 1191 651 1206 q 531 1177 574 1177 q 450 1192 488 1177 q 385 1235 412 1208 q 340 1299 357 1263 q 324 1378 324 1336 q 341 1457 324 1421 q 387 1520 358 1493 q 454 1562 416 1547 q 534 1577 492 1577 z "},"ů":{"ha":881,"x_min":91,"x_max":779,"o":"m 276 298 q 283 221 276 254 q 305 164 290 187 q 346 130 321 142 q 407 118 371 118 q 502 136 458 118 q 592 199 546 155 l 592 802 l 779 802 l 779 0 l 645 0 l 609 121 q 573 68 595 93 q 522 24 551 43 q 458 -5 493 5 q 382 -16 423 -16 q 165 62 239 -16 q 91 307 91 140 l 91 802 l 276 802 l 276 298 m 324 1081 q 333 1037 324 1057 q 356 1002 341 1017 q 392 978 372 987 q 435 969 412 969 q 479 978 459 969 q 515 1002 500 987 q 539 1037 530 1017 q 548 1081 548 1057 q 539 1125 548 1105 q 515 1161 530 1146 q 479 1185 500 1177 q 435 1194 458 1194 q 391 1185 412 1194 q 356 1161 371 1176 q 333 1125 341 1145 q 324 1081 324 1104 m 436 1282 q 518 1266 479 1282 q 585 1224 556 1251 q 629 1160 613 1197 q 646 1080 646 1123 q 628 1000 646 1036 q 582 937 611 964 q 514 896 553 911 q 433 882 475 882 q 352 897 390 882 q 286 940 314 913 q 242 1004 258 968 q 226 1083 226 1041 q 243 1162 226 1126 q 289 1225 260 1198 q 355 1267 317 1252 q 436 1282 393 1282 z "},"Ű":{"ha":1072,"x_min":94,"x_max":974,"o":"m 534 121 q 662 144 614 121 q 736 214 710 168 q 771 331 762 261 q 779 492 779 400 l 779 1086 l 974 1086 l 974 495 q 950 272 974 369 q 873 110 926 176 q 738 10 821 44 q 537 -24 654 -24 q 332 10 416 -24 q 195 110 248 44 q 118 272 142 176 q 94 495 94 369 l 94 1086 l 289 1086 l 289 492 q 299 331 289 400 q 336 214 309 261 q 411 144 363 168 q 534 121 459 121 m 371 1213 l 496 1634 l 684 1552 l 445 1178 l 371 1213 m 631 1213 l 783 1634 l 970 1552 l 705 1178 l 631 1213 z "},"ű":{"ha":881,"x_min":91,"x_max":872,"o":"m 276 298 q 283 221 276 254 q 305 164 290 187 q 346 130 321 142 q 407 118 371 118 q 502 136 458 118 q 592 199 546 155 l 592 802 l 779 802 l 779 0 l 645 0 l 609 121 q 573 68 595 93 q 522 24 551 43 q 458 -5 493 5 q 382 -16 423 -16 q 165 62 239 -16 q 91 307 91 140 l 91 802 l 276 802 l 276 298 m 273 918 l 397 1339 l 585 1257 l 347 883 l 273 918 m 532 918 l 684 1339 l 872 1257 l 606 883 l 532 918 z "},"Ų":{"ha":1072,"x_min":94,"x_max":974,"o":"m 534 121 q 662 144 614 121 q 736 214 710 168 q 771 331 762 261 q 779 492 779 400 l 779 1086 l 974 1086 l 974 495 q 950 272 974 369 q 873 110 926 176 q 738 10 821 44 q 537 -24 654 -24 q 332 10 416 -24 q 195 110 248 44 q 118 272 142 176 q 94 495 94 369 l 94 1086 l 289 1086 l 289 492 q 299 331 289 400 q 336 214 309 261 q 411 144 363 168 q 534 121 459 121 m 644 -376 q 589 -398 617 -389 q 533 -413 564 -406 q 470 -420 502 -420 q 414 -412 441 -420 q 366 -385 387 -404 q 333 -332 345 -366 q 320 -248 320 -299 q 329 -202 320 -225 q 352 -156 338 -178 q 385 -112 366 -133 q 422 -71 403 -90 q 524 14 467 -27 l 609 14 q 521 -91 559 -41 q 489 -135 505 -113 q 460 -178 473 -157 q 440 -217 448 -199 q 433 -248 433 -235 q 439 -287 433 -272 q 455 -312 445 -302 q 479 -325 465 -321 q 509 -329 493 -329 q 555 -323 531 -329 q 599 -309 579 -317 q 644 -289 622 -300 l 644 -376 z "},"ų":{"ha":881,"x_min":91,"x_max":779,"o":"m 276 298 q 283 221 276 254 q 305 164 290 187 q 346 130 321 142 q 407 118 371 118 q 502 136 458 118 q 592 199 546 155 l 592 802 l 779 802 l 779 0 l 645 0 l 609 121 q 573 68 595 93 q 522 24 551 43 q 458 -5 493 5 q 382 -16 423 -16 q 165 62 239 -16 q 91 307 91 140 l 91 802 l 276 802 l 276 298 m 779 -376 q 724 -398 752 -389 q 668 -413 699 -406 q 605 -420 637 -420 q 549 -412 576 -420 q 501 -385 522 -404 q 468 -332 480 -366 q 455 -248 455 -299 q 464 -202 455 -225 q 487 -156 473 -178 q 519 -112 501 -133 q 557 -71 538 -90 q 659 14 602 -27 l 744 14 q 656 -91 694 -41 q 624 -135 640 -113 q 595 -178 608 -157 q 575 -217 583 -199 q 568 -248 568 -235 q 574 -287 568 -272 q 590 -312 580 -302 q 614 -325 600 -321 q 644 -329 628 -329 q 690 -323 666 -329 q 734 -309 714 -317 q 779 -289 757 -300 l 779 -376 z "},"Ŵ":{"ha":1368,"x_min":29,"x_max":1337,"o":"m 798 1086 l 970 202 l 1149 1086 l 1337 1086 l 1101 -2 l 852 -2 l 684 921 l 502 0 l 264 0 l 29 1086 l 217 1086 l 395 202 l 568 1086 l 798 1086 m 744 1587 l 933 1200 l 794 1174 l 683 1436 l 572 1174 l 433 1200 l 623 1587 l 744 1587 z "},"ŵ":{"ha":1109,"x_min":16,"x_max":1094,"o":"m 554 586 l 414 0 l 229 0 l 16 802 l 193 802 l 325 169 l 467 802 l 643 802 l 783 169 l 920 802 l 1094 802 l 881 0 l 694 0 l 554 586 m 616 1292 l 805 905 l 666 879 l 555 1141 l 444 879 l 305 905 l 494 1292 l 616 1292 z "},"Ŷ":{"ha":878,"x_min":-5,"x_max":883,"o":"m 688 1086 l 883 1086 l 531 345 l 531 0 l 345 0 l 345 345 l -5 1086 l 190 1086 l 439 545 l 688 1086 m 500 1587 l 690 1200 l 551 1174 l 439 1436 l 328 1174 l 190 1200 l 379 1587 l 500 1587 z "},"ŷ":{"ha":794,"x_min":16,"x_max":779,"o":"m 16 802 l 203 802 l 420 215 l 589 802 l 779 802 l 492 -24 q 418 -172 460 -115 q 329 -262 375 -230 q 236 -307 282 -295 q 151 -319 190 -319 l 100 -194 q 191 -173 153 -187 q 256 -134 229 -159 q 303 -71 283 -109 q 338 22 322 -33 l 16 802 m 459 1292 l 648 905 l 509 879 l 398 1141 l 287 879 l 149 905 l 338 1292 l 459 1292 z "},"Ÿ":{"ha":878,"x_min":-5,"x_max":883,"o":"m 688 1086 l 883 1086 l 531 345 l 531 0 l 345 0 l 345 345 l -5 1086 l 190 1086 l 439 545 l 688 1086 m 120 1272 q 128 1313 120 1293 q 150 1347 136 1332 q 183 1370 164 1361 q 225 1378 203 1378 q 267 1370 248 1378 q 301 1347 287 1361 q 323 1313 315 1332 q 332 1272 332 1293 q 323 1230 332 1249 q 301 1196 315 1211 q 267 1173 287 1181 q 225 1164 248 1164 q 183 1173 202 1164 q 150 1196 163 1181 q 128 1230 136 1211 q 120 1272 120 1249 m 519 1272 q 528 1313 519 1293 q 550 1347 536 1332 q 584 1370 564 1361 q 625 1378 603 1378 q 667 1370 648 1378 q 701 1347 687 1361 q 724 1313 715 1332 q 732 1272 732 1293 q 724 1230 732 1249 q 701 1196 715 1211 q 667 1173 687 1181 q 625 1164 648 1164 q 582 1173 602 1164 q 549 1196 563 1181 q 527 1230 535 1211 q 519 1272 519 1249 z "},"Ź":{"ha":847,"x_min":56,"x_max":794,"o":"m 793 954 l 267 130 l 794 130 l 794 0 l 56 0 l 56 141 l 583 956 l 56 956 l 56 1086 l 793 1086 l 793 954 m 359 1213 l 484 1634 l 672 1552 l 433 1178 l 359 1213 z "},"ź":{"ha":715,"x_min":68,"x_max":646,"o":"m 83 674 l 83 802 l 642 802 l 642 665 l 262 127 l 646 127 l 646 0 l 68 0 l 68 138 l 458 674 l 83 674 m 292 918 l 416 1339 l 604 1257 l 366 883 l 292 918 z "},"Ż":{"ha":847,"x_min":56,"x_max":794,"o":"m 793 954 l 267 130 l 794 130 l 794 0 l 56 0 l 56 141 l 583 956 l 56 956 l 56 1086 l 793 1086 l 793 954 m 305 1436 l 540 1436 l 540 1192 l 305 1192 l 305 1436 z "},"ż":{"ha":715,"x_min":68,"x_max":646,"o":"m 83 674 l 83 802 l 642 802 l 642 665 l 262 127 l 646 127 l 646 0 l 68 0 l 68 138 l 458 674 l 83 674 m 237 1141 l 471 1141 l 471 897 l 237 897 l 237 1141 z "},"Ž":{"ha":847,"x_min":56,"x_max":794,"o":"m 793 954 l 267 130 l 794 130 l 794 0 l 56 0 l 56 141 l 583 956 l 56 956 l 56 1086 l 793 1086 l 793 954 m 369 1173 l 180 1560 l 319 1586 l 430 1324 l 541 1586 l 680 1560 l 490 1173 l 369 1173 z "},"ž":{"ha":715,"x_min":68,"x_max":646,"o":"m 83 674 l 83 802 l 642 802 l 642 665 l 262 127 l 646 127 l 646 0 l 68 0 l 68 138 l 458 674 l 83 674 m 311 887 l 121 1274 l 260 1300 l 372 1038 l 483 1300 l 621 1274 l 432 887 l 311 887 z "},"ƒ":{"ha":556,"x_min":15,"x_max":618,"o":"m 482 1015 q 430 1002 450 1015 q 398 960 410 989 q 380 883 386 930 q 371 766 374 836 l 569 766 l 569 679 l 367 679 l 345 231 q 332 119 341 168 q 308 31 323 69 q 272 -36 292 -7 q 224 -83 251 -64 q 159 -79 191 -83 q 101 -70 128 -75 q 52 -61 74 -65 q 15 -56 30 -56 l 40 26 q 46 32 40 31 q 60 35 52 34 q 79 38 68 36 q 98 44 89 39 q 136 98 121 64 q 155 191 151 132 l 180 679 l 39 679 l 39 766 l 184 766 q 205 941 189 867 q 254 1062 222 1015 q 334 1132 286 1109 q 451 1154 382 1154 q 505 1149 479 1154 q 553 1138 531 1145 q 592 1126 575 1132 q 618 1117 608 1120 l 595 987 q 578 994 590 989 q 551 1003 566 998 q 517 1011 535 1008 q 482 1015 499 1015 z "},"ˆ":{"ha":913,"x_min":220,"x_max":720,"o":"m 531 492 l 720 105 l 581 79 l 470 341 l 359 79 l 220 105 l 410 492 l 531 492 z "},"ˇ":{"ha":913,"x_min":220,"x_max":720,"o":"m 410 86 l 220 473 l 359 499 l 471 237 l 582 499 l 720 473 l 531 86 l 410 86 z "},"˘":{"ha":711,"x_min":146,"x_max":560,"o":"m 560 292 q 510 144 560 195 q 353 94 460 94 q 196 145 247 94 q 146 292 146 197 l 258 292 q 281 211 258 237 q 353 185 304 185 q 425 211 402 185 q 448 292 448 237 l 560 292 z "},"˙":{"ha":471,"x_min":130,"x_max":364,"o":"m 130 340 l 364 340 l 364 96 l 130 96 l 130 340 z "},"˚":{"ha":903,"x_min":241,"x_max":661,"o":"m 340 281 q 348 237 340 257 q 372 201 357 216 q 407 178 387 186 q 451 169 427 169 q 495 178 475 169 q 531 201 515 186 q 555 237 546 216 q 564 281 564 257 q 555 325 564 304 q 531 361 546 346 q 495 385 515 376 q 451 393 474 393 q 407 385 427 393 q 372 360 387 376 q 348 325 357 345 q 340 281 340 304 m 452 481 q 533 466 495 481 q 600 424 572 451 q 645 360 629 397 q 661 279 661 323 q 644 200 661 236 q 597 137 627 163 q 530 96 568 111 q 448 81 491 81 q 368 97 406 81 q 302 140 330 113 q 258 204 274 168 q 241 283 241 241 q 258 362 241 326 q 304 425 275 398 q 371 467 333 452 q 452 481 409 481 z "},"˛":{"ha":425,"x_min":21,"x_max":345,"o":"m 345 -376 q 290 -398 318 -389 q 234 -413 265 -406 q 171 -420 203 -420 q 115 -412 142 -420 q 67 -385 88 -404 q 34 -332 46 -366 q 21 -248 21 -299 q 30 -202 21 -225 q 53 -156 39 -178 q 85 -112 67 -133 q 123 -71 104 -90 q 224 14 168 -27 l 310 14 q 222 -91 260 -41 q 190 -135 205 -113 q 161 -178 174 -157 q 141 -217 149 -199 q 134 -248 134 -235 q 140 -287 134 -272 q 156 -312 146 -302 q 180 -325 166 -321 q 210 -329 194 -329 q 256 -323 232 -329 q 300 -309 280 -317 q 345 -289 323 -300 l 345 -376 z "},"˜":{"ha":1006,"x_min":226,"x_max":792,"o":"m 650 89 q 600 96 625 89 q 551 112 575 102 q 503 134 526 122 q 459 156 480 146 q 422 172 439 165 q 393 179 405 179 q 363 162 374 179 q 351 100 351 146 l 226 100 q 374 306 226 306 q 451 292 414 306 q 519 261 487 278 q 580 230 552 244 q 631 216 608 216 q 654 232 646 216 q 663 288 663 247 l 792 288 q 755 141 792 193 q 650 89 718 89 z "},"˝":{"ha":1510,"x_min":309,"x_max":909,"o":"m 309 117 l 434 539 l 622 457 l 383 83 l 309 117 m 569 117 l 721 539 l 909 457 l 643 83 l 569 117 z "},"́":{"ha":755,"x_min":309,"x_max":622,"o":"m 309 117 l 434 539 l 622 457 l 383 83 l 309 117 z "},"̆":{"ha":711,"x_min":146,"x_max":560,"o":"m 560 292 q 510 144 560 195 q 353 94 460 94 q 196 145 247 94 q 146 292 146 197 l 258 292 q 281 211 258 237 q 353 185 304 185 q 425 211 402 185 q 448 292 448 237 l 560 292 z "},"Ѐ":{"ha":880,"x_min":105,"x_max":816,"o":"m 232 1569 l 423 1650 l 546 1226 l 469 1192 l 232 1569 m 105 0 l 105 1086 l 808 1086 l 808 956 l 300 956 l 300 627 l 743 627 l 743 509 l 300 509 l 300 128 l 816 128 l 816 0 l 105 0 z "},"Ё":{"ha":890,"x_min":115,"x_max":826,"o":"m 149 1297 q 157 1338 149 1319 q 179 1372 165 1358 q 213 1395 193 1387 q 254 1404 232 1404 q 296 1396 277 1404 q 330 1373 315 1388 q 352 1339 344 1358 q 360 1297 360 1320 q 352 1255 360 1275 q 330 1221 344 1236 q 296 1198 315 1206 q 254 1190 277 1190 q 212 1199 231 1190 q 179 1222 193 1207 q 157 1256 165 1236 q 149 1297 149 1276 m 549 1297 q 557 1338 549 1319 q 579 1372 566 1358 q 613 1395 593 1387 q 654 1404 632 1404 q 696 1396 677 1404 q 730 1373 715 1388 q 752 1339 744 1358 q 760 1297 760 1320 q 752 1255 760 1275 q 730 1221 744 1236 q 696 1198 715 1206 q 654 1190 677 1190 q 612 1199 631 1190 q 579 1222 593 1207 q 557 1256 565 1236 q 549 1297 549 1276 m 115 0 l 115 1086 l 818 1086 l 818 956 l 310 956 l 310 627 l 753 627 l 753 509 l 310 509 l 310 128 l 826 128 l 826 0 l 115 0 z "},"Ђ":{"ha":1112,"x_min":13,"x_max":1029,"o":"m 616 -47 q 731 -34 687 -47 q 800 9 775 -21 q 833 89 824 39 q 842 211 842 138 l 842 507 q 706 691 842 691 q 643 685 672 691 q 589 667 614 678 q 543 641 564 656 q 505 610 522 627 l 505 0 l 311 0 l 311 956 l 13 956 l 13 1086 l 801 1086 l 801 956 l 505 956 l 505 717 q 607 794 545 768 q 752 821 669 821 q 957 741 885 821 q 1029 499 1029 661 l 1029 159 q 1008 16 1029 78 q 945 -87 986 -45 q 843 -151 903 -130 q 707 -173 783 -173 q 657 -170 681 -173 q 610 -162 633 -168 l 616 -47 z "},"Ѓ":{"ha":813,"x_min":105,"x_max":777,"o":"m 430 1192 l 538 1607 l 695 1545 l 469 1175 l 430 1192 m 300 956 l 300 0 l 105 0 l 105 1086 l 777 1086 l 777 956 l 300 956 z "},"Є":{"ha":897,"x_min":71,"x_max":854,"o":"m 71 536 q 100 780 71 673 q 190 959 130 886 q 337 1068 249 1031 q 543 1106 426 1106 q 695 1088 622 1106 q 845 1038 768 1069 l 795 898 q 725 928 757 916 q 664 948 693 941 q 609 959 635 956 q 555 962 582 962 q 348 874 417 962 q 269 606 278 787 l 699 606 l 699 488 l 269 488 q 345 213 277 306 q 545 121 412 121 q 676 139 613 121 q 801 195 739 158 l 854 58 q 797 27 831 42 q 719 2 762 13 q 630 -17 677 -9 q 538 -24 584 -24 q 334 15 421 -24 q 188 127 246 54 q 100 303 129 199 q 71 536 71 407 z "},"Ѕ":{"ha":891,"x_min":56,"x_max":837,"o":"m 837 298 q 814 171 837 229 q 744 68 792 112 q 621 1 696 25 q 440 -24 545 -24 q 305 -10 368 -24 q 193 21 241 4 q 88 66 136 41 l 121 208 q 136 199 121 206 q 175 183 150 193 q 232 163 199 174 q 301 144 264 153 q 377 129 338 135 q 453 123 416 123 q 534 131 498 123 q 596 157 570 139 q 635 203 621 175 q 649 273 649 232 q 616 374 649 334 q 515 440 583 414 l 282 531 q 193 576 234 550 q 121 636 151 602 q 74 713 91 670 q 56 811 56 757 q 87 945 56 889 q 170 1036 118 1000 q 291 1089 222 1072 q 435 1106 359 1106 q 558 1095 500 1106 q 661 1070 615 1084 q 739 1040 707 1055 q 785 1017 770 1025 l 745 883 q 704 904 733 890 q 636 930 675 917 q 551 952 597 943 q 458 962 505 962 q 370 955 410 962 q 302 933 330 949 q 257 891 273 918 q 241 825 241 865 q 247 790 241 807 q 264 758 252 773 q 297 729 276 743 q 349 703 317 715 l 580 616 q 683 566 635 595 q 764 498 730 537 q 818 409 798 459 q 837 298 837 359 z "},"І":{"ha":569,"x_min":57,"x_max":507,"o":"m 186 97 l 186 987 l 57 987 l 57 1086 l 507 1086 l 507 987 l 376 987 l 376 97 l 507 97 l 507 0 l 57 0 l 57 97 l 186 97 z "},"Ї":{"ha":559,"x_min":-26,"x_max":585,"o":"m -26 1285 q -18 1326 -26 1307 q 4 1360 -9 1345 q 38 1383 18 1375 q 79 1392 57 1392 q 121 1383 102 1392 q 155 1361 140 1375 q 177 1327 169 1346 q 185 1285 185 1308 q 177 1243 185 1263 q 155 1209 169 1223 q 121 1186 140 1194 q 79 1178 102 1178 q 37 1186 56 1178 q 4 1210 18 1195 q -18 1244 -10 1224 q -26 1285 -26 1263 m 374 1285 q 382 1326 374 1307 q 405 1360 391 1345 q 438 1383 418 1375 q 479 1392 457 1392 q 521 1383 502 1392 q 555 1361 541 1375 q 577 1327 569 1346 q 585 1285 585 1308 q 577 1243 585 1263 q 555 1209 569 1223 q 521 1186 541 1194 q 479 1178 502 1178 q 437 1186 456 1178 q 404 1210 418 1195 q 382 1244 390 1224 q 374 1285 374 1263 m 183 97 l 183 987 l 54 987 l 54 1086 l 504 1086 l 504 987 l 374 987 l 374 97 l 504 97 l 504 0 l 54 0 l 54 97 l 183 97 z "},"Ј":{"ha":549,"x_min":27,"x_max":443,"o":"m 27 66 q 140 95 96 77 q 207 145 183 114 q 240 224 231 177 q 248 339 248 271 l 248 1086 l 443 1086 l 443 351 q 426 182 443 256 q 366 56 408 108 q 254 -25 324 4 q 77 -61 183 -55 l 27 66 z "},"Љ":{"ha":1785,"x_min":43,"x_max":1727,"o":"m 1537 351 q 1516 450 1537 411 q 1454 511 1495 488 q 1351 542 1412 533 q 1209 551 1289 551 l 1134 551 l 1134 130 l 1235 130 q 1388 143 1329 130 q 1480 184 1447 157 q 1525 253 1513 211 q 1537 351 1537 294 m 939 0 l 939 956 l 496 956 l 484 572 q 474 415 481 491 q 451 269 467 339 q 408 148 437 199 q 328 61 378 96 q 208 10 278 27 q 43 -7 137 -7 l 44 160 q 143 174 103 162 q 210 206 184 185 q 251 256 236 227 q 272 325 265 286 q 281 410 279 363 q 286 512 283 457 l 302 1086 l 1134 1086 l 1134 677 l 1210 677 q 1438 659 1341 677 q 1599 601 1535 641 q 1695 497 1664 561 q 1727 344 1727 434 q 1691 170 1727 237 q 1587 65 1655 103 q 1420 14 1518 27 q 1200 0 1322 0 l 939 0 z "},"Њ":{"ha":1622,"x_min":105,"x_max":1565,"o":"m 1374 351 q 1353 450 1374 411 q 1291 511 1332 488 q 1188 542 1249 533 q 1046 551 1126 551 l 971 551 l 971 130 l 1072 130 q 1225 143 1166 130 q 1317 184 1284 157 q 1362 253 1350 211 q 1374 351 1374 294 m 777 505 l 300 505 l 300 0 l 105 0 l 105 1086 l 300 1086 l 300 623 l 777 623 l 777 1086 l 971 1086 l 971 677 l 1047 677 q 1275 659 1178 677 q 1436 601 1372 641 q 1533 497 1501 561 q 1565 344 1565 434 q 1530 176 1565 242 q 1432 70 1496 109 q 1276 16 1368 31 q 1068 0 1184 0 l 777 0 l 777 505 z "},"Ћ":{"ha":1116,"x_min":20,"x_max":1027,"o":"m 503 0 l 308 0 l 308 956 l 20 956 l 20 1086 l 808 1086 l 808 956 l 503 956 l 503 676 l 750 676 q 866 656 814 676 q 953 596 918 637 q 1008 495 989 556 q 1027 353 1027 435 l 1027 0 l 838 0 l 838 312 q 830 418 838 374 q 806 491 823 463 q 765 532 790 519 q 705 545 739 545 l 503 545 l 503 0 z "},"Ќ":{"ha":982,"x_min":105,"x_max":965,"o":"m 300 0 l 105 0 l 105 1086 l 300 1086 l 300 604 l 404 604 l 727 1086 l 924 1086 l 675 719 q 625 649 647 678 q 583 600 604 620 q 542 568 563 580 q 496 549 521 555 q 545 529 522 543 q 589 496 568 516 q 632 449 610 475 q 677 390 653 422 l 965 0 l 762 0 l 399 489 l 300 489 l 300 0 m 444 1190 l 569 1611 l 757 1530 l 518 1156 l 444 1190 z "},"Ѝ":{"ha":1101,"x_min":105,"x_max":996,"o":"m 221 1390 l 412 1470 l 535 1047 l 457 1012 l 221 1390 m 274 1086 l 274 332 l 769 1086 l 996 1086 l 996 0 l 825 0 l 825 871 l 275 69 l 275 0 l 105 0 l 105 1086 l 274 1086 z "},"Ў":{"ha":810,"x_min":-26,"x_max":800,"o":"m 596 1327 q 546 1180 596 1230 q 389 1130 496 1130 q 232 1181 283 1130 q 182 1327 182 1232 l 294 1327 q 317 1246 294 1272 q 389 1221 340 1221 q 461 1246 438 1221 q 484 1327 484 1272 l 596 1327 m 603 1086 l 800 1086 l 475 328 l 475 189 q 444 46 475 102 q 344 -41 412 -10 l 205 2 q 243 34 226 18 q 274 72 261 50 q 295 122 288 93 q 302 191 302 151 l 302 328 l -26 1086 l 163 1086 l 389 524 l 603 1086 z "},"Џ":{"ha":1091,"x_min":105,"x_max":985,"o":"m 105 1086 l 300 1086 l 300 130 l 791 130 l 791 1086 l 985 1086 l 985 0 l 644 0 l 644 -268 l 458 -268 l 458 0 l 105 0 l 105 1086 z "},"А":{"ha":1019,"x_min":31,"x_max":988,"o":"m 629 1086 l 988 0 l 791 0 l 711 252 l 308 252 l 228 0 l 31 0 l 388 1086 l 629 1086 m 334 346 l 686 346 l 512 890 l 334 346 z "},"Б":{"ha":1013,"x_min":105,"x_max":957,"o":"m 360 130 l 465 130 q 609 139 551 130 q 702 173 667 149 q 752 240 737 197 q 766 351 766 283 q 738 455 766 416 q 664 516 710 494 q 559 544 618 537 q 439 551 500 551 l 360 551 l 360 130 m 957 342 q 926 181 957 246 q 832 75 895 115 q 677 17 770 35 q 460 0 585 0 l 407 0 l 165 0 l 165 938 l 105 938 l 105 1086 l 850 1086 l 850 956 l 360 956 l 360 677 l 439 677 q 666 659 570 677 q 827 602 763 642 q 923 498 891 562 q 957 342 956 434 z "},"В":{"ha":971,"x_min":105,"x_max":911,"o":"m 374 1086 q 586 1071 500 1086 q 730 1028 672 1056 q 785 994 760 1014 q 827 948 810 974 q 854 890 845 922 q 864 819 864 859 q 847 718 864 760 q 800 648 830 676 q 727 605 769 621 q 634 583 685 589 q 743 558 692 575 q 831 510 793 542 q 890 429 868 479 q 911 304 911 378 q 895 188 911 237 q 845 106 878 140 q 766 51 813 72 q 660 19 720 31 q 528 4 600 7 q 373 0 456 0 l 105 0 l 105 1086 l 374 1086 m 418 130 q 558 138 500 130 q 653 167 616 146 q 706 224 689 188 q 722 317 722 260 q 706 411 722 374 q 654 471 689 449 q 565 503 619 494 q 437 512 511 512 l 300 512 l 300 130 l 418 130 m 300 634 l 436 634 q 556 644 507 634 q 636 675 606 654 q 680 729 667 696 q 694 807 694 762 q 679 874 694 846 q 630 921 664 903 q 541 948 596 939 q 407 956 486 956 l 300 956 l 300 634 z "},"Г":{"ha":807,"x_min":105,"x_max":777,"o":"m 300 956 l 300 0 l 105 0 l 105 1086 l 777 1086 l 777 956 l 300 956 z "},"Д":{"ha":1180,"x_min":28,"x_max":1112,"o":"m 845 113 l 845 956 l 420 956 l 420 692 q 418 542 420 620 q 405 389 416 465 q 373 242 395 313 q 313 113 351 172 l 845 113 m 85 113 q 137 200 111 149 q 182 328 162 252 q 214 512 202 405 q 226 770 226 620 l 226 1080 l 1040 1080 l 1040 79 l 1112 79 l 1112 -294 l 937 -294 l 937 -7 l 231 -7 l 231 -294 l 28 -294 l 28 113 l 85 113 z "},"Е":{"ha":873,"x_min":105,"x_max":816,"o":"m 105 0 l 105 1086 l 808 1086 l 808 956 l 300 956 l 300 627 l 743 627 l 743 509 l 300 509 l 300 128 l 816 128 l 816 0 l 105 0 z "},"Ж":{"ha":1498,"x_min":17,"x_max":1482,"o":"m 652 489 l 563 489 l 220 0 l 17 0 l 300 397 q 345 457 324 431 q 385 501 365 483 q 426 531 404 519 q 473 549 447 543 q 424 569 446 556 q 382 603 402 583 q 341 652 361 624 q 296 718 321 680 l 59 1086 l 256 1086 l 557 604 l 652 604 l 652 1086 l 847 1086 l 847 604 l 941 604 l 1243 1086 l 1447 1086 l 1203 719 q 1158 653 1179 682 q 1117 604 1137 625 q 1075 569 1097 583 q 1025 549 1053 555 q 1072 531 1051 543 q 1113 502 1093 520 q 1154 458 1133 484 q 1200 398 1175 433 l 1482 0 l 1278 0 l 935 489 l 847 489 l 847 0 l 652 0 l 652 489 z "},"З":{"ha":871,"x_min":83,"x_max":784,"o":"m 554 553 q 643 528 601 549 q 716 473 685 507 q 766 390 747 438 q 784 284 784 342 q 753 144 784 202 q 668 48 722 85 q 542 -7 614 11 q 391 -24 471 -24 q 241 -6 317 -24 q 83 47 165 12 l 127 181 q 182 159 150 170 q 250 140 214 149 q 322 126 286 132 q 392 121 359 121 q 466 130 434 121 q 520 153 498 138 q 558 186 543 168 q 582 225 573 205 q 594 266 591 245 q 597 303 597 286 q 579 387 597 353 q 525 443 562 421 q 432 473 488 464 q 300 483 376 483 l 229 483 l 229 618 l 337 618 q 528 664 466 618 q 589 799 589 710 q 579 870 589 840 q 546 921 569 901 q 484 951 522 941 q 390 962 446 962 q 307 956 346 962 q 234 941 267 949 q 174 922 200 932 q 132 904 148 912 l 87 1036 q 155 1066 118 1053 q 233 1088 193 1080 q 314 1102 273 1097 q 394 1106 355 1106 q 542 1089 473 1106 q 662 1038 611 1073 q 741 947 712 1002 q 770 814 770 891 q 753 707 770 753 q 706 628 736 661 q 637 577 676 595 q 554 553 597 558 z "},"И":{"ha":1101,"x_min":105,"x_max":996,"o":"m 274 1086 l 274 332 l 769 1086 l 996 1086 l 996 0 l 825 0 l 825 871 l 275 69 l 275 0 l 105 0 l 105 1086 l 274 1086 z "},"Й":{"ha":1101,"x_min":105,"x_max":996,"o":"m 756 1318 q 706 1171 756 1221 q 549 1120 656 1120 q 392 1172 443 1120 q 342 1318 342 1223 l 454 1318 q 477 1237 454 1263 q 549 1211 500 1211 q 621 1237 598 1211 q 644 1318 644 1263 l 756 1318 m 274 1086 l 274 332 l 769 1086 l 996 1086 l 996 0 l 825 0 l 825 871 l 275 69 l 275 0 l 105 0 l 105 1086 l 274 1086 z "},"К":{"ha":982,"x_min":105,"x_max":965,"o":"m 300 0 l 105 0 l 105 1086 l 300 1086 l 300 604 l 404 604 l 727 1086 l 924 1086 l 675 719 q 625 649 647 678 q 583 600 604 620 q 542 568 563 580 q 496 549 521 555 q 545 529 522 543 q 589 496 568 516 q 632 449 610 475 q 677 390 653 422 l 965 0 l 762 0 l 399 489 l 300 489 l 300 0 z "},"Л":{"ha":1227,"x_min":31,"x_max":1122,"o":"m 1122 0 l 928 0 l 928 956 l 484 956 l 469 522 q 460 370 467 441 q 436 240 453 299 q 389 136 419 182 q 312 58 359 90 q 195 9 264 26 q 31 -7 126 -7 l 33 159 q 152 176 106 161 q 223 226 197 191 q 260 324 250 262 q 275 483 271 386 l 291 1086 l 1122 1086 l 1122 0 z "},"М":{"ha":1339,"x_min":105,"x_max":1234,"o":"m 278 873 l 278 0 l 105 0 l 105 1086 l 369 1086 l 667 213 l 970 1086 l 1234 1086 l 1234 0 l 1061 0 l 1061 873 l 764 0 l 577 0 l 278 873 z "},"Н":{"ha":1077,"x_min":105,"x_max":971,"o":"m 777 505 l 300 505 l 300 0 l 105 0 l 105 1086 l 300 1086 l 300 623 l 777 623 l 777 1086 l 971 1086 l 971 0 l 777 0 l 777 505 z "},"О":{"ha":1082,"x_min":71,"x_max":1012,"o":"m 1012 549 q 987 322 1012 427 q 908 141 963 218 q 762 20 852 64 q 541 -24 672 -24 q 384 -4 453 -24 q 262 54 315 16 q 174 144 210 91 q 114 261 137 197 q 81 400 92 326 q 71 557 71 475 q 100 787 71 685 q 189 960 130 889 q 336 1068 248 1030 q 541 1105 424 1105 q 746 1068 658 1105 q 894 958 835 1030 q 982 783 953 886 q 1012 549 1012 680 m 267 538 q 282 364 267 441 q 331 233 298 287 q 415 150 363 178 q 541 121 467 121 q 664 148 612 121 q 749 229 715 176 q 799 360 783 282 q 814 538 814 437 q 799 719 814 640 q 750 852 783 798 q 666 934 717 906 q 543 962 614 962 q 418 935 470 962 q 332 853 366 907 q 283 720 298 799 q 267 538 267 641 z "},"П":{"ha":1091,"x_min":105,"x_max":985,"o":"m 985 0 l 791 0 l 791 956 l 300 956 l 300 0 l 105 0 l 105 1086 l 985 1086 l 985 0 z "},"Р":{"ha":949,"x_min":105,"x_max":897,"o":"m 897 745 q 864 588 897 652 q 767 485 831 524 q 605 427 703 445 q 379 410 508 410 l 300 410 l 300 0 l 105 0 l 105 1086 l 400 1086 q 530 1081 467 1086 q 648 1060 593 1075 q 748 1020 703 1045 q 826 958 793 996 q 878 867 859 920 q 897 745 896 814 m 372 535 q 515 546 454 535 q 618 579 577 556 q 680 641 659 603 q 701 734 701 679 q 679 849 701 806 q 617 917 657 892 q 522 948 578 941 q 398 956 466 956 l 300 956 l 300 535 l 372 535 z "},"С":{"ha":892,"x_min":69,"x_max":853,"o":"m 266 533 q 283 356 266 433 q 335 227 300 279 q 424 147 370 174 q 551 120 477 120 q 632 128 593 120 q 704 148 671 136 q 761 173 736 159 q 800 195 786 186 l 853 58 q 815 36 844 50 q 746 8 787 22 q 651 -14 704 -5 q 538 -24 597 -24 q 336 14 423 -24 q 189 124 248 52 q 99 300 130 196 q 69 536 69 404 q 81 685 69 613 q 118 820 93 757 q 181 936 143 884 q 272 1026 220 989 q 391 1085 324 1064 q 541 1106 458 1106 q 639 1100 591 1106 q 726 1083 686 1093 q 797 1062 766 1074 q 844 1038 827 1050 l 793 898 q 753 920 777 909 q 699 940 729 931 q 631 956 668 949 q 553 962 594 962 q 424 933 477 962 q 334 849 370 904 q 282 714 299 794 q 266 533 266 635 z "},"Т":{"ha":819,"x_min":14,"x_max":802,"o":"m 507 956 l 507 0 l 312 0 l 312 956 l 14 956 l 14 1086 l 802 1086 l 802 956 l 507 956 z "},"У":{"ha":810,"x_min":-9,"x_max":817,"o":"m 621 1086 l 817 1086 l 493 328 l 493 189 q 461 46 493 102 q 361 -41 429 -10 l 222 2 q 261 34 243 18 q 292 72 279 50 q 313 122 305 93 q 320 191 320 151 l 320 328 l -9 1086 l 181 1086 l 406 524 l 621 1086 z "},"Ф":{"ha":1198,"x_min":71,"x_max":1127,"o":"m 692 -28 l 499 -28 l 499 80 q 305 121 386 84 q 172 220 224 159 q 95 365 119 282 q 71 542 71 447 q 102 735 71 651 q 190 878 134 820 q 326 968 247 937 q 499 1004 404 1000 l 499 1114 l 692 1114 l 692 1004 q 866 970 786 1002 q 1003 878 945 937 q 1094 733 1061 818 q 1127 543 1127 648 q 1117 425 1127 482 q 1083 318 1106 368 q 1026 224 1061 267 q 943 151 991 182 q 832 101 895 119 q 692 80 769 82 l 692 -28 m 499 859 q 399 835 443 853 q 327 779 356 817 q 281 684 297 742 q 266 543 266 626 q 283 403 266 461 q 331 307 300 345 q 405 249 362 269 q 499 224 448 229 l 499 859 m 692 224 q 789 247 745 227 q 865 304 833 266 q 914 401 897 342 q 931 543 931 460 q 915 687 931 628 q 868 782 899 745 q 793 837 838 819 q 692 860 749 855 l 692 224 z "},"Х":{"ha":926,"x_min":17,"x_max":909,"o":"m 708 1086 l 908 1086 l 572 543 l 909 0 l 699 0 l 463 385 l 227 0 l 17 0 l 354 543 l 18 1086 l 218 1086 l 463 686 l 708 1086 z "},"Ц":{"ha":1174,"x_min":105,"x_max":1069,"o":"m 105 1086 l 300 1086 l 300 130 l 784 130 l 784 1086 l 979 1086 l 979 60 l 1069 60 l 1069 -268 l 882 -268 l 882 0 l 105 0 l 105 1086 z "},"Ч":{"ha":897,"x_min":78,"x_max":791,"o":"m 603 382 q 548 327 575 349 q 491 291 520 304 q 430 271 462 277 q 361 265 397 265 q 241 285 294 265 q 152 344 189 304 q 97 445 116 384 q 78 587 78 505 l 78 1086 l 266 1086 l 266 579 q 302 439 266 484 q 401 395 338 395 q 472 403 440 395 q 528 423 503 411 q 571 449 552 435 q 603 477 589 463 l 603 1086 l 791 1086 l 791 0 l 603 0 l 603 382 z "},"Ш":{"ha":1625,"x_min":105,"x_max":1520,"o":"m 910 130 l 1325 130 l 1325 1086 l 1520 1086 l 1520 0 l 105 0 l 105 1086 l 300 1086 l 300 130 l 715 130 l 715 1086 l 910 1086 l 910 130 z "},"Щ":{"ha":1662,"x_min":105,"x_max":1586,"o":"m 910 130 l 1326 130 l 1326 1086 l 1514 1086 l 1514 30 l 1586 30 l 1586 -295 l 1417 -295 l 1417 0 l 105 0 l 105 1086 l 300 1086 l 300 130 l 715 130 l 715 1086 l 910 1086 l 910 130 z "},"Ъ":{"ha":1087,"x_min":23,"x_max":1029,"o":"m 433 130 l 537 130 q 672 139 615 130 q 766 173 729 149 q 821 240 804 197 q 839 351 839 283 q 811 455 839 416 q 736 516 783 494 q 631 544 690 537 q 511 551 572 551 l 433 551 l 433 130 m 433 677 l 512 677 q 739 659 642 677 q 901 602 836 642 q 997 498 965 562 q 1029 342 1029 434 q 998 181 1029 246 q 905 75 967 115 q 750 17 843 35 q 533 0 657 0 l 238 0 l 238 958 l 23 958 l 23 1086 l 433 1086 l 433 677 z "},"Ы":{"ha":1388,"x_min":87,"x_max":1282,"o":"m 1282 0 l 1088 0 l 1088 1098 l 1282 1098 l 1282 0 m 878 342 q 847 181 878 246 q 754 75 816 115 q 599 17 692 35 q 382 0 506 0 l 87 0 l 87 1086 l 281 1086 l 281 677 l 361 677 q 588 659 491 677 q 748 602 684 642 q 845 498 812 562 q 878 342 877 434 m 281 130 l 386 130 q 523 139 466 130 q 616 173 580 149 q 670 240 653 197 q 688 351 688 283 q 660 455 688 416 q 585 516 631 494 q 480 544 539 537 q 360 551 421 551 l 281 551 l 281 130 z "},"Ь":{"ha":935,"x_min":87,"x_max":878,"o":"m 878 342 q 847 181 878 246 q 754 75 816 115 q 599 17 692 35 q 382 0 506 0 l 87 0 l 87 1086 l 281 1086 l 281 677 l 361 677 q 588 659 491 677 q 748 602 684 642 q 845 498 812 562 q 878 342 877 434 m 281 130 l 386 130 q 523 139 466 130 q 616 173 580 149 q 670 240 653 197 q 688 351 688 283 q 660 455 688 416 q 585 516 631 494 q 480 544 539 537 q 360 551 421 551 l 281 551 l 281 130 z "},"Э":{"ha":899,"x_min":44,"x_max":828,"o":"m 828 536 q 799 303 828 407 q 711 127 770 199 q 565 15 652 54 q 361 -24 477 -24 q 251 -14 304 -24 q 155 8 198 -5 q 83 36 113 22 q 44 58 54 50 l 98 195 q 136 173 112 185 q 193 149 160 160 q 268 129 227 137 q 357 121 309 121 q 479 149 429 121 q 562 226 530 177 q 610 341 594 275 q 631 484 627 408 l 241 484 l 241 608 l 629 608 q 606 760 625 694 q 553 871 588 826 q 467 939 519 916 q 343 962 415 962 q 265 956 301 962 q 198 940 229 949 q 144 920 168 931 q 104 898 120 909 l 54 1038 q 93 1057 64 1045 q 162 1079 121 1068 q 252 1098 203 1090 q 355 1106 302 1106 q 561 1068 473 1106 q 709 959 650 1031 q 798 780 768 886 q 828 536 828 673 z "},"Ю":{"ha":1453,"x_min":105,"x_max":1383,"o":"m 445 610 q 476 806 448 715 q 562 963 505 897 q 704 1068 618 1030 q 907 1106 790 1106 q 1070 1086 999 1106 q 1194 1029 1141 1066 q 1282 942 1246 993 q 1341 828 1318 890 q 1373 694 1363 766 q 1383 545 1383 623 q 1357 316 1383 420 q 1275 136 1331 212 q 1129 18 1219 60 q 912 -24 1040 -24 q 759 -4 826 -24 q 640 52 691 16 q 551 135 588 87 q 491 241 515 184 q 456 362 468 298 q 444 492 445 426 l 300 492 l 300 0 l 105 0 l 105 1086 l 300 1086 l 300 610 l 445 610 m 1186 551 q 1181 655 1186 604 q 1165 752 1177 706 q 1133 836 1153 798 q 1082 902 1113 874 q 1009 946 1052 930 q 911 962 967 962 q 786 932 838 962 q 701 848 734 902 q 654 720 669 795 q 639 555 639 646 q 649 388 640 467 q 689 250 659 309 q 772 155 718 190 q 913 121 825 121 q 1045 154 992 121 q 1129 245 1097 187 q 1173 382 1160 303 q 1186 551 1186 460 z "},"Я":{"ha":992,"x_min":85,"x_max":886,"o":"m 395 545 q 273 563 329 547 q 177 612 217 580 q 115 691 137 644 q 92 803 92 739 q 120 933 92 879 q 210 1021 148 987 q 371 1070 272 1055 q 613 1086 471 1086 l 886 1086 l 886 0 l 692 0 l 692 484 l 590 484 q 454 475 513 484 q 357 443 396 466 q 298 381 317 420 q 278 281 278 342 l 278 0 l 85 0 l 85 268 q 107 388 85 338 q 171 469 130 437 q 270 519 212 501 q 395 545 327 537 m 692 606 l 692 956 l 601 956 q 466 951 526 956 q 364 927 406 945 q 301 876 323 909 q 279 787 279 843 q 307 694 279 730 q 382 640 335 659 q 490 613 429 620 q 616 606 551 606 l 692 606 z "},"а":{"ha":851,"x_min":71,"x_max":758,"o":"m 428 693 q 295 674 361 693 q 173 621 229 655 l 121 739 q 191 774 156 759 q 263 800 226 790 q 342 816 301 810 q 432 821 384 821 q 593 799 530 821 q 693 729 656 776 q 744 612 730 683 q 758 447 758 542 l 758 0 l 616 0 l 590 113 q 486 15 545 45 q 345 -16 426 -16 q 231 1 281 -16 q 144 50 180 17 q 90 130 109 82 q 71 242 71 178 q 95 354 71 307 q 163 434 119 402 q 266 481 206 465 q 398 496 326 496 q 461 494 433 496 q 513 487 490 491 q 550 480 535 484 q 572 476 566 477 q 570 567 572 526 q 553 635 567 607 q 511 678 540 663 q 428 693 481 693 m 393 113 q 487 135 444 113 q 572 200 531 157 l 572 381 q 554 383 567 381 q 525 386 541 385 q 491 389 508 388 q 460 391 473 391 q 374 385 412 391 q 310 363 336 378 q 271 322 284 348 q 258 256 258 296 q 294 146 258 179 q 393 113 330 113 z "},"б":{"ha":836,"x_min":61,"x_max":779,"o":"m 243 412 q 251 298 243 353 q 278 201 258 243 q 332 134 298 159 q 420 109 366 109 q 555 182 513 109 q 597 393 597 255 q 587 522 597 470 q 555 605 576 574 q 503 650 534 637 q 433 664 473 664 q 337 641 380 664 q 260 574 294 617 q 247 495 251 536 q 243 412 243 454 m 419 -16 q 280 9 345 -16 q 166 90 215 34 q 89 236 117 146 q 61 456 61 326 q 75 669 61 578 q 112 827 88 761 q 170 937 136 894 q 243 1007 203 981 q 328 1043 283 1033 q 422 1054 374 1054 q 443 1054 431 1054 q 467 1054 454 1054 q 490 1054 479 1054 q 509 1053 501 1053 q 550 1056 534 1053 q 575 1065 566 1059 q 589 1084 585 1072 q 593 1113 593 1095 l 742 1113 q 728 1027 742 1060 q 686 975 713 994 q 620 949 659 956 q 532 943 581 943 l 495 943 q 430 940 462 943 q 369 927 398 937 q 316 899 340 917 q 272 851 291 881 q 242 779 254 822 q 227 677 230 736 q 269 720 243 700 q 327 756 295 741 q 395 780 359 771 q 469 788 431 788 q 586 767 530 788 q 685 700 642 747 q 753 577 728 653 q 779 391 779 501 q 748 204 779 281 q 666 78 717 127 q 550 6 615 29 q 419 -16 486 -16 z "},"в":{"ha":815,"x_min":103,"x_max":744,"o":"m 370 121 q 458 127 421 121 q 518 147 494 134 q 553 182 542 161 q 564 234 564 203 q 543 306 564 281 q 485 342 522 330 q 397 355 448 353 q 287 358 346 357 l 287 121 l 370 121 m 287 469 q 408 472 357 469 q 492 485 458 474 q 541 517 525 495 q 557 578 557 538 q 511 655 557 631 q 361 680 465 680 l 287 680 l 287 469 m 103 801 l 396 801 q 647 746 562 801 q 732 586 732 690 q 717 509 732 541 q 678 455 703 477 q 623 423 654 434 q 558 411 591 412 q 632 392 598 407 q 691 353 667 377 q 730 295 716 329 q 744 220 744 262 q 653 55 744 111 q 393 0 562 0 l 103 0 l 103 801 z "},"г":{"ha":692,"x_min":103,"x_max":653,"o":"m 103 0 l 103 802 l 653 802 l 653 675 l 290 675 l 290 0 l 103 0 z "},"д":{"ha":1000,"x_min":39,"x_max":957,"o":"m 39 115 q 98 142 71 121 q 144 189 124 162 q 178 247 165 216 q 199 307 192 278 q 223 430 214 368 q 239 553 233 491 q 251 677 245 615 q 264 802 256 739 l 824 802 l 824 119 l 957 119 l 957 -224 l 789 -224 l 789 0 l 208 0 l 208 -224 l 39 -224 l 39 115 m 637 675 l 420 675 l 378 345 q 368 274 374 307 q 354 214 361 241 q 336 163 346 186 q 312 119 326 140 l 637 119 l 637 675 z "},"е":{"ha":809,"x_min":60,"x_max":753,"o":"m 714 58 q 650 26 684 40 q 582 3 616 13 q 513 -11 547 -6 q 449 -16 479 -16 q 284 13 356 -16 q 162 93 212 41 q 86 220 112 146 q 60 387 60 294 q 83 561 60 481 q 154 698 107 640 q 269 789 200 756 q 427 821 338 821 q 567 796 507 821 q 669 724 628 770 q 732 611 711 677 q 753 465 753 545 q 752 415 753 439 q 750 368 751 391 l 250 368 q 265 254 250 302 q 308 174 280 205 q 375 128 335 143 q 464 113 414 113 q 575 131 527 113 q 670 185 623 149 l 714 58 m 596 479 q 553 638 596 585 q 435 693 511 692 q 355 674 389 692 q 299 625 321 656 q 264 554 276 595 q 250 467 252 513 l 596 467 l 596 479 z "},"ж":{"ha":1194,"x_min":28,"x_max":1166,"o":"m 511 0 l 511 340 l 420 340 l 239 0 l 33 0 l 224 307 q 281 371 249 347 q 351 402 314 395 q 309 414 329 404 q 272 440 290 423 q 237 479 254 456 q 202 531 220 503 l 28 802 l 239 802 l 421 471 l 511 471 l 511 802 l 682 802 l 682 472 l 772 472 l 954 802 l 1166 802 l 991 531 q 921 440 956 473 q 842 402 887 406 q 912 370 879 395 q 969 307 945 346 l 1162 -3 l 949 -3 l 775 341 l 682 341 l 682 0 l 511 0 z "},"з":{"ha":744,"x_min":87,"x_max":685,"o":"m 190 475 q 328 478 269 475 q 426 493 387 481 q 484 529 465 505 q 503 597 503 553 q 490 646 503 627 q 453 675 476 665 q 398 689 429 685 q 331 692 367 692 q 260 685 296 692 q 195 669 224 677 q 148 652 166 660 q 130 644 130 645 l 96 766 q 140 785 112 776 q 204 803 168 795 q 280 815 239 810 q 364 821 321 821 q 489 808 432 821 q 586 771 545 796 q 650 705 627 745 q 673 609 673 665 q 655 518 673 554 q 612 460 637 482 q 559 427 587 437 q 513 411 532 416 q 543 404 526 409 q 580 389 561 399 q 618 365 599 379 q 652 328 637 350 q 676 278 667 307 q 685 211 685 249 q 662 115 685 157 q 598 44 640 73 q 499 0 557 15 q 370 -16 441 -16 q 279 -10 323 -16 q 198 5 235 -4 q 131 25 160 14 q 87 47 102 37 l 123 168 q 155 152 132 162 q 211 133 178 142 q 280 118 243 124 q 353 111 317 111 q 465 137 423 111 q 509 224 506 163 q 492 291 509 266 q 437 328 475 315 q 339 345 399 341 q 190 349 278 349 l 190 475 z "},"и":{"ha":978,"x_min":103,"x_max":879,"o":"m 879 0 l 703 0 l 703 601 l 281 85 l 281 0 l 103 0 l 103 802 l 279 802 l 279 296 l 682 802 l 879 802 l 879 0 z "},"й":{"ha":978,"x_min":103,"x_max":879,"o":"m 704 1062 q 654 915 704 965 q 497 865 604 865 q 340 916 391 865 q 290 1062 290 967 l 402 1062 q 425 981 402 1007 q 497 956 448 956 q 569 981 546 956 q 591 1062 591 1007 l 704 1062 m 879 0 l 703 0 l 703 601 l 281 85 l 281 0 l 103 0 l 103 802 l 279 802 l 279 296 l 682 802 l 879 802 l 879 0 z "},"к":{"ha":860,"x_min":103,"x_max":828,"o":"m 279 802 l 279 471 l 355 471 l 614 802 l 828 802 l 614 539 q 577 497 599 520 q 530 453 555 473 q 478 418 505 432 q 424 402 450 404 q 461 391 441 398 q 502 372 481 384 q 544 343 523 360 q 585 300 566 326 l 823 0 l 614 0 l 356 341 l 279 341 l 279 0 l 103 0 l 103 802 l 279 802 z "},"л":{"ha":984,"x_min":31,"x_max":885,"o":"m 885 0 l 699 0 l 699 675 l 415 675 l 395 387 q 368 218 387 292 q 307 95 348 145 q 199 19 266 45 q 31 -7 132 -7 l 31 144 q 103 156 71 144 q 159 191 136 167 q 198 252 183 215 q 216 342 212 290 l 250 802 l 885 802 l 885 0 z "},"м":{"ha":1158,"x_min":103,"x_max":1059,"o":"m 1059 802 l 1059 0 l 896 0 l 896 642 l 668 0 l 492 0 l 267 642 l 267 0 l 103 0 l 103 802 l 361 802 l 582 185 l 802 802 l 1059 802 z "},"н":{"ha":951,"x_min":103,"x_max":852,"o":"m 288 483 l 665 483 l 665 802 l 852 802 l 852 0 l 666 0 l 666 363 l 290 363 l 290 0 l 103 0 l 103 802 l 288 802 l 288 483 z "},"о":{"ha":877,"x_min":60,"x_max":817,"o":"m 439 106 q 532 129 494 106 q 592 191 570 151 q 625 283 615 231 q 634 396 634 336 q 625 509 634 456 q 592 601 615 562 q 532 664 570 641 q 439 688 494 688 q 346 664 383 688 q 286 601 309 641 q 254 508 263 562 q 244 396 244 455 q 247 331 244 364 q 258 265 250 297 q 279 204 266 233 q 315 153 293 175 q 367 119 336 132 q 439 106 397 106 m 817 396 q 795 234 817 310 q 729 101 774 158 q 612 11 684 44 q 439 -22 541 -22 q 265 11 337 -22 q 148 101 193 44 q 81 234 102 158 q 60 396 60 310 q 81 559 60 483 q 148 693 102 636 q 266 783 194 750 q 438 817 337 817 q 611 783 539 817 q 728 693 682 750 q 795 559 774 636 q 817 396 817 483 z "},"п":{"ha":951,"x_min":103,"x_max":852,"o":"m 852 0 l 665 0 l 665 675 l 290 675 l 290 0 l 103 0 l 103 802 l 852 802 l 852 0 z "},"р":{"ha":895,"x_min":103,"x_max":836,"o":"m 494 693 q 385 668 439 693 q 290 601 330 644 l 290 210 q 337 170 312 188 q 388 140 361 153 q 439 120 414 127 q 489 113 465 113 q 569 139 538 113 q 619 204 601 164 q 644 293 637 244 q 651 389 651 342 q 614 615 651 536 q 494 693 576 693 m 505 -16 q 385 15 441 -16 q 290 98 329 46 l 290 -307 l 103 -307 l 103 802 l 244 802 l 278 682 q 318 739 295 713 q 371 783 342 764 q 436 811 401 801 q 511 821 471 821 q 753 715 670 821 q 836 397 836 609 q 814 235 836 311 q 751 104 793 159 q 648 16 709 48 q 505 -16 586 -16 z "}}}
